{"glyphs":{"0":{"ha":828,"x_min":161,"x_max":817,"o":"m 411 -17 q 292 14 342 -17 q 214 97 242 44 q 174 209 186 150 q 161 336 161 268 q 173 497 161 414 q 215 669 185 579 q 289 829 244 760 q 406 944 333 899 q 567 989 478 989 q 714 935 656 989 q 794 806 772 882 q 817 636 817 731 q 795 427 817 533 q 729 217 774 321 q 602 49 685 114 q 411 -17 519 -17 m 418 53 q 550 98 492 53 q 643 209 608 143 q 701 357 678 275 q 732 507 724 439 q 740 631 740 575 q 726 771 740 710 q 669 876 711 832 q 560 921 626 921 q 427 876 486 921 q 333 764 368 831 q 276 615 299 697 q 244 465 253 532 q 236 342 236 397 q 278 135 236 218 q 418 53 321 53 z "},"1":{"ha":439,"x_min":194,"x_max":457,"o":"m 211 0 l 353 803 l 194 803 l 201 847 q 331 873 285 847 q 410 972 378 899 l 457 972 l 285 0 l 211 0 z "},"2":{"ha":801,"x_min":92,"x_max":811,"o":"m 92 0 q 114 92 99 49 q 147 167 129 135 q 192 233 164 200 q 243 287 219 265 q 304 335 267 308 q 367 378 342 363 q 436 421 393 394 q 501 460 485 450 q 560 497 518 469 q 619 540 601 525 q 665 584 636 556 q 704 636 693 613 q 726 692 715 660 q 736 757 736 724 q 688 875 736 829 q 554 921 640 921 q 403 876 467 921 q 307 751 340 831 l 246 782 q 366 931 282 872 q 557 989 450 989 q 743 924 675 989 q 811 758 811 860 q 799 677 811 717 q 772 608 788 638 q 725 546 757 579 q 671 493 693 513 q 603 443 649 474 q 535 400 557 413 q 463 357 514 388 q 275 222 339 283 q 188 72 211 160 l 700 72 l 686 0 l 92 0 z "},"3":{"ha":788,"x_min":100,"x_max":774,"o":"m 393 -17 q 192 49 265 -17 q 100 203 119 114 l 168 226 q 393 53 213 53 q 579 117 506 53 q 653 296 653 181 q 604 426 653 379 q 460 472 556 472 l 403 472 l 414 540 l 458 540 q 629 602 561 540 q 697 764 697 664 q 651 878 697 836 q 531 921 606 921 q 296 771 372 921 l 231 796 q 349 933 271 878 q 535 989 428 989 q 708 928 643 989 q 774 772 774 868 q 726 615 774 686 q 585 507 678 543 q 688 432 650 488 q 726 300 726 376 q 631 69 726 154 q 393 -17 536 -17 z "},"4":{"ha":783,"x_min":88,"x_max":774,"o":"m 499 0 l 547 274 l 88 274 l 96 314 l 703 972 l 744 972 l 633 339 l 774 339 l 761 274 l 621 274 l 574 0 l 499 0 m 560 339 l 643 821 l 204 339 l 560 339 z "},"5":{"ha":839,"x_min":113,"x_max":832,"o":"m 404 -17 q 225 26 303 -17 q 113 118 147 68 l 165 171 q 410 53 257 53 q 630 138 549 53 q 711 346 711 222 q 658 500 711 440 q 506 560 604 560 q 271 456 369 560 l 213 474 l 376 972 l 832 972 l 819 903 l 425 903 l 308 553 q 521 628 397 628 q 713 553 639 628 q 786 354 786 478 q 685 90 786 197 q 404 -17 585 -17 z "},"6":{"ha":782,"x_min":121,"x_max":729,"o":"m 381 -17 q 188 64 254 -17 q 121 261 121 144 q 294 710 121 503 q 718 992 467 918 l 704 922 q 420 753 546 874 q 238 485 294 632 q 481 597 331 597 q 662 525 594 597 q 729 340 729 453 q 630 85 729 188 q 381 -17 531 -17 m 385 53 q 577 133 500 53 q 654 333 654 214 q 603 475 654 422 q 465 528 553 528 q 274 447 353 528 q 194 249 194 365 q 245 107 194 161 q 385 53 296 53 z "},"7":{"ha":664,"x_min":204,"x_max":765,"o":"m 215 0 q 366 476 263 257 q 671 906 469 696 l 204 906 l 217 972 l 765 972 l 757 919 q 292 0 388 558 l 215 0 z "},"8":{"ha":799,"x_min":135,"x_max":778,"o":"m 406 -17 q 207 53 279 -17 q 135 235 135 124 q 199 430 135 343 q 374 546 264 517 q 297 610 329 563 q 264 715 264 657 q 344 908 264 828 q 553 989 425 989 q 716 928 654 989 q 778 771 778 867 q 730 624 778 689 q 596 532 682 558 q 703 449 665 507 q 742 315 742 390 q 646 78 742 172 q 406 -17 550 -17 m 496 565 q 646 622 586 565 q 706 769 706 679 q 662 880 706 839 q 547 921 618 921 q 397 864 458 921 q 336 717 336 807 q 378 608 336 651 q 496 565 421 565 m 408 53 q 590 124 515 53 q 665 311 665 194 q 614 449 665 394 q 472 504 563 504 q 286 428 361 504 q 211 239 211 351 q 265 103 211 153 q 408 53 318 53 z "},"9":{"ha":782,"x_min":188,"x_max":796,"o":"m 226 -17 l 238 51 q 513 224 389 96 q 681 499 636 351 q 433 385 585 385 q 255 456 322 385 q 188 638 188 526 q 289 888 188 788 q 542 989 390 989 q 730 911 664 989 q 796 714 796 833 q 721 404 796 557 q 515 138 646 251 q 226 -17 383 25 m 446 450 q 641 529 561 450 q 721 722 721 608 q 672 865 721 810 q 536 921 622 921 q 342 841 421 921 q 264 644 264 761 q 313 504 264 558 q 446 450 361 450 z "}," ":{"ha":314,"x_min":0,"x_max":0,"o":""},"!":{"ha":365,"x_min":129,"x_max":386,"o":"m 221 268 l 253 664 l 311 989 l 386 989 l 328 664 l 235 268 l 221 268 m 182 -19 q 144 -3 158 -19 q 129 36 129 14 q 151 87 129 64 q 203 110 174 110 q 241 93 226 110 q 256 54 256 76 q 233 3 256 26 q 182 -19 211 -19 z "},"\"":{"ha":510,"x_min":197,"x_max":572,"o":"m 197 601 l 251 972 l 336 972 l 258 601 l 197 601 m 432 601 l 486 972 l 572 972 l 494 601 l 432 601 z "},"#":{"ha":931,"x_min":131,"x_max":957,"o":"m 206 0 l 297 293 l 131 293 l 154 363 l 318 363 l 403 626 l 240 626 l 261 694 l 421 694 l 515 972 l 581 972 l 493 694 l 717 694 l 804 972 l 879 972 l 792 694 l 957 694 l 936 626 l 772 626 l 688 363 l 849 363 l 828 293 l 668 293 l 576 0 l 501 0 l 593 293 l 369 293 l 278 0 l 206 0 m 389 363 l 613 363 l 697 626 l 474 626 l 389 363 z "},"$":{"ha":804,"x_min":125,"x_max":789,"o":"m 333 -136 l 354 -14 q 201 51 261 -4 q 125 185 142 107 l 197 210 q 410 54 239 54 q 590 113 521 54 q 658 276 658 172 q 616 392 658 344 q 514 468 574 439 q 394 527 454 497 q 292 608 335 557 q 250 733 250 660 q 326 908 250 836 q 531 988 403 979 l 550 1096 l 622 1096 l 603 986 q 729 935 681 976 q 789 832 778 894 l 718 808 q 549 919 690 919 q 387 872 447 919 q 326 746 326 825 q 369 648 326 689 q 471 579 411 607 q 591 519 531 551 q 694 430 651 488 q 736 292 736 372 q 650 76 736 158 q 426 -15 564 -7 l 406 -136 l 333 -136 z "},"%":{"ha":1208,"x_min":204,"x_max":1158,"o":"m 381 494 q 248 552 292 494 q 204 692 204 610 q 272 894 204 799 q 463 989 340 989 q 594 931 551 989 q 636 792 636 872 q 622 692 636 742 q 577 597 607 642 q 497 523 547 551 q 381 494 446 494 m 308 -17 l 231 -17 l 1058 989 l 1136 989 l 308 -17 m 389 560 q 519 628 472 560 q 567 785 567 697 q 538 883 567 843 q 453 924 510 924 q 322 855 368 924 q 276 699 276 786 q 304 599 276 639 q 389 560 332 560 m 904 -17 q 771 40 814 -17 q 728 179 728 97 q 753 311 728 246 q 840 427 778 376 q 986 478 901 478 q 1117 419 1075 478 q 1158 281 1158 361 q 1144 181 1158 231 q 1100 85 1129 131 q 1020 12 1071 40 q 904 -17 969 -17 m 913 49 q 1042 117 996 49 q 1089 272 1089 185 q 1061 372 1089 332 q 976 413 1033 413 q 845 344 892 413 q 799 188 799 275 q 827 88 799 128 q 913 49 856 49 z "},"&":{"ha":885,"x_min":103,"x_max":842,"o":"m 747 0 l 658 138 q 324 -17 504 -17 q 163 41 222 -17 q 103 194 103 99 q 177 390 103 311 q 394 546 251 469 q 310 760 310 682 q 381 926 310 863 q 557 989 453 989 q 687 940 636 989 q 738 817 738 892 q 678 665 738 731 q 496 532 619 600 l 674 258 q 764 443 733 343 l 835 443 q 713 200 799 311 l 842 0 l 747 0 m 382 772 q 464 581 382 710 q 615 688 567 636 q 664 804 664 739 q 631 889 664 857 q 544 921 597 921 q 427 879 472 921 q 382 772 382 838 m 344 53 q 622 194 492 53 l 426 494 q 235 360 296 424 q 175 213 175 297 q 222 96 175 139 q 344 53 268 53 z "},"'":{"ha":274,"x_min":197,"x_max":336,"o":"m 251 972 l 336 972 l 258 601 l 197 601 l 251 972 z "},"(":{"ha":461,"x_min":172,"x_max":547,"o":"m 257 -181 q 172 217 172 -29 q 260 667 172 474 q 478 989 349 860 l 547 989 q 469 894 510 950 q 373 740 428 838 q 283 507 318 642 q 247 231 247 372 q 274 -17 247 92 q 326 -181 300 -125 l 257 -181 z "},")":{"ha":461,"x_min":57,"x_max":414,"o":"m 57 -181 q 339 557 339 146 q 308 820 339 700 q 249 989 278 940 l 318 989 q 414 571 414 832 q 126 -181 414 124 l 57 -181 z "},"*":{"ha":722,"x_min":197,"x_max":761,"o":"m 500 546 l 464 664 l 388 546 l 281 425 l 229 471 l 333 590 l 440 679 l 325 699 l 197 744 l 235 814 l 358 769 l 454 704 l 457 826 l 483 978 l 557 978 l 531 826 l 488 704 l 607 771 l 749 815 l 761 743 l 617 697 l 493 679 l 568 590 l 635 469 l 567 424 l 500 546 z "},"+":{"ha":897,"x_min":197,"x_max":850,"o":"m 560 439 l 560 150 l 483 150 l 483 439 l 197 439 l 197 511 l 483 511 l 483 803 l 560 803 l 560 511 l 850 511 l 850 439 l 560 439 z "},",":{"ha":292,"x_min":67,"x_max":222,"o":"m 85 -196 l 67 -190 q 121 -117 94 -164 q 153 -24 147 -69 q 108 -8 125 -24 q 92 32 92 7 q 113 87 92 65 q 164 108 135 108 q 206 90 189 108 q 222 39 222 72 q 181 -93 222 -28 q 85 -196 140 -158 z "},"-":{"ha":547,"x_min":181,"x_max":497,"o":"m 181 378 l 193 450 l 497 450 l 485 378 l 181 378 z "},".":{"ha":292,"x_min":90,"x_max":218,"o":"m 142 -19 q 105 -3 119 -19 q 90 36 90 14 q 114 88 92 65 q 165 110 136 110 q 203 93 189 110 q 218 54 218 76 q 194 3 217 25 q 142 -19 171 -19 z "},"/":{"ha":660,"x_min":-29,"x_max":783,"o":"m -29 -181 l 711 989 l 783 989 l 43 -181 l -29 -181 z "},":":{"ha":292,"x_min":85,"x_max":310,"o":"m 235 542 q 198 558 213 542 q 183 597 183 575 q 206 648 183 625 q 258 671 229 671 q 296 654 282 671 q 310 615 310 638 q 287 564 310 586 q 235 542 264 542 m 136 -19 q 99 -3 113 -19 q 85 36 85 14 q 108 87 85 64 q 160 110 131 110 q 197 93 183 110 q 211 54 211 76 q 188 3 211 26 q 136 -19 165 -19 z "},";":{"ha":292,"x_min":60,"x_max":310,"o":"m 235 542 q 198 558 213 542 q 183 597 183 575 q 206 648 183 625 q 258 671 229 671 q 296 654 282 671 q 310 615 310 638 q 287 564 310 586 q 235 542 264 542 m 78 -196 l 60 -190 q 111 -116 86 -164 q 142 -22 136 -68 q 101 -8 117 -22 q 85 32 85 7 q 106 87 85 65 q 156 108 126 108 q 197 90 181 108 q 214 39 214 72 q 174 -93 214 -28 q 78 -196 133 -158 z "},"<":{"ha":897,"x_min":200,"x_max":853,"o":"m 853 167 l 200 440 l 200 513 l 853 786 l 853 711 l 286 476 l 853 243 l 853 167 z "},"=":{"ha":897,"x_min":197,"x_max":850,"o":"m 197 561 l 197 632 l 850 632 l 850 561 l 197 561 m 197 318 l 197 390 l 850 390 l 850 318 l 197 318 z "},">":{"ha":897,"x_min":194,"x_max":847,"o":"m 847 440 l 194 167 l 194 242 l 761 476 l 194 711 l 194 786 l 847 513 l 847 440 z "},"?":{"ha":714,"x_min":188,"x_max":761,"o":"m 339 240 l 344 271 q 399 403 358 344 q 488 498 440 461 q 580 571 535 535 q 655 656 625 607 q 685 767 685 704 q 640 876 685 833 q 513 919 596 919 q 352 869 418 919 q 257 725 286 818 l 188 735 q 315 920 224 851 q 524 989 407 989 q 699 928 636 989 q 761 775 761 868 q 739 662 761 713 q 683 578 717 611 q 607 512 649 546 q 528 448 565 478 q 460 372 490 418 q 419 271 429 326 l 414 240 l 339 240 m 329 -19 q 291 -3 306 -19 q 276 36 276 14 q 301 88 278 65 q 353 110 324 110 q 390 93 375 110 q 404 54 404 76 q 381 3 403 25 q 329 -19 358 -19 z "},"@":{"ha":1086,"x_min":143,"x_max":1107,"o":"m 543 -17 q 254 93 365 -17 q 143 389 143 203 q 228 699 143 558 q 446 914 314 839 q 722 989 578 989 q 1002 892 897 989 q 1107 636 1107 794 q 1022 345 1107 468 q 829 222 936 222 q 753 249 779 222 q 726 324 726 276 q 635 240 688 269 q 532 210 583 210 q 413 263 457 210 q 368 404 368 317 q 452 635 368 535 q 661 735 536 735 q 762 696 725 735 q 801 597 799 657 l 840 717 l 907 717 l 808 414 q 794 340 794 372 q 846 282 794 282 q 980 390 921 282 q 1039 632 1039 499 q 950 843 1039 765 q 717 921 861 921 q 360 769 506 921 q 215 397 215 617 q 304 149 215 247 q 553 51 393 51 q 742 74 657 51 l 714 3 q 543 -17 644 -17 m 556 276 q 703 354 642 276 q 765 531 765 432 q 736 631 765 594 q 656 668 707 668 q 503 590 563 668 q 443 411 443 513 q 474 313 443 350 q 556 276 504 276 z "},"A":{"ha":886,"x_min":78,"x_max":786,"o":"m 78 0 l 572 972 l 629 972 l 786 0 l 713 0 l 669 263 l 290 263 l 157 0 l 78 0 m 321 326 l 661 326 l 599 731 q 581 851 585 801 q 551 785 574 833 q 525 731 528 738 l 321 326 z "},"B":{"ha":854,"x_min":131,"x_max":839,"o":"m 301 972 l 596 972 q 781 913 724 972 q 839 761 839 854 q 774 590 839 657 q 619 506 708 522 q 746 438 699 496 q 793 293 793 379 q 776 191 793 240 q 722 97 758 142 q 617 26 686 53 q 457 0 549 0 l 131 0 l 301 972 m 493 538 q 694 599 621 538 q 767 756 767 660 q 590 907 767 907 l 364 907 l 299 538 l 493 538 m 464 67 q 661 136 601 67 q 721 296 721 206 q 500 472 721 472 l 288 472 l 215 67 l 464 67 z "},"C":{"ha":861,"x_min":164,"x_max":893,"o":"m 475 -17 q 297 42 369 -17 q 194 186 225 100 q 164 378 164 272 q 197 602 164 493 q 288 797 229 711 q 438 936 347 883 q 639 989 529 989 q 893 832 822 989 l 831 797 q 755 889 799 857 q 632 921 711 921 q 419 839 511 921 q 284 637 328 757 q 240 385 240 517 q 300 148 240 243 q 481 53 360 53 q 728 189 631 53 l 790 160 q 475 -17 678 -17 z "},"D":{"ha":901,"x_min":131,"x_max":885,"o":"m 301 972 l 528 972 q 695 938 624 972 q 806 846 767 904 q 865 720 846 788 q 885 576 885 653 q 855 371 885 469 q 765 188 825 272 q 598 51 704 103 q 354 0 492 0 l 131 0 l 301 972 m 369 69 q 565 113 479 69 q 703 231 651 157 q 781 392 754 304 q 807 576 807 481 q 738 810 807 715 q 525 904 669 904 l 363 904 l 217 69 l 369 69 z "},"E":{"ha":789,"x_min":131,"x_max":815,"o":"m 131 0 l 301 972 l 815 972 l 806 906 l 364 906 l 299 538 l 594 538 l 582 471 l 288 471 l 217 67 l 688 67 l 675 0 l 131 0 z "},"F":{"ha":746,"x_min":131,"x_max":829,"o":"m 131 0 l 301 972 l 829 972 l 819 906 l 364 906 l 299 538 l 604 538 l 592 471 l 288 471 l 204 0 l 131 0 z "},"G":{"ha":917,"x_min":164,"x_max":892,"o":"m 475 -17 q 297 40 369 -17 q 194 180 225 96 q 164 368 164 264 q 194 594 164 485 q 283 793 225 704 q 433 935 340 882 q 639 989 525 989 q 892 844 818 989 l 824 807 q 626 921 767 921 q 457 870 533 921 q 335 738 381 819 q 265 563 289 657 q 240 376 240 469 q 299 145 240 238 q 478 53 358 53 q 663 128 588 53 q 764 343 738 203 l 769 381 l 588 381 l 599 449 l 860 449 l 844 363 q 712 77 810 171 q 475 -17 614 -17 z "},"H":{"ha":913,"x_min":131,"x_max":931,"o":"m 131 0 l 301 972 l 375 972 l 300 540 l 781 540 l 856 972 l 931 972 l 760 0 l 685 0 l 768 471 l 288 471 l 206 0 l 131 0 z "},"I":{"ha":351,"x_min":131,"x_max":375,"o":"m 131 0 l 301 972 l 375 972 l 204 0 l 131 0 z "},"J":{"ha":714,"x_min":68,"x_max":733,"o":"m 299 -17 q 150 30 210 -17 q 68 150 90 76 l 131 178 q 299 51 172 51 q 543 310 497 51 l 658 972 l 733 972 l 617 307 q 299 -17 560 -17 z "},"K":{"ha":846,"x_min":131,"x_max":847,"o":"m 678 0 l 475 579 l 267 358 l 204 0 l 131 0 l 301 972 l 375 972 l 288 471 l 761 972 l 847 972 l 531 638 l 754 0 l 678 0 z "},"L":{"ha":731,"x_min":131,"x_max":682,"o":"m 131 0 l 301 972 l 375 972 l 217 69 l 682 69 l 669 0 l 131 0 z "},"M":{"ha":1076,"x_min":129,"x_max":1092,"o":"m 518 -17 l 356 697 q 339 774 351 713 q 326 696 333 738 l 204 0 l 129 0 l 300 972 l 368 972 l 528 261 q 537 219 529 253 q 547 168 544 186 q 600 260 574 218 l 1021 972 l 1092 972 l 921 0 l 846 0 l 969 697 l 983 776 q 970 752 978 765 q 953 723 963 739 q 940 700 944 707 l 518 -17 z "},"N":{"ha":929,"x_min":129,"x_max":947,"o":"m 129 0 l 300 972 l 369 972 l 682 233 q 703 182 688 221 q 725 131 719 143 q 733 177 726 138 q 743 233 740 217 l 874 972 l 947 972 l 776 0 l 703 0 l 403 710 q 350 836 397 725 l 328 708 l 204 0 l 129 0 z "},"O":{"ha":964,"x_min":164,"x_max":946,"o":"m 476 -17 q 297 40 369 -17 q 194 182 224 97 q 164 371 164 267 q 193 582 164 476 q 277 781 222 688 q 426 931 332 874 q 638 989 521 989 q 781 957 719 989 q 877 869 842 925 q 929 748 913 814 q 946 606 946 682 q 929 435 946 521 q 875 268 913 350 q 784 124 838 186 q 651 22 731 61 q 476 -17 571 -17 m 479 53 q 656 105 578 53 q 778 240 733 157 q 847 417 824 324 q 871 606 871 511 q 813 831 871 740 q 633 921 756 921 q 456 869 535 921 q 332 733 378 817 q 263 556 286 650 q 239 368 239 463 q 297 142 239 231 q 479 53 356 53 z "},"P":{"ha":818,"x_min":131,"x_max":874,"o":"m 131 0 l 301 972 l 608 972 q 810 903 746 972 q 874 732 874 833 q 853 617 874 674 q 792 512 832 561 q 681 433 751 463 q 522 403 611 403 l 275 403 l 204 0 l 131 0 m 529 469 q 730 549 661 469 q 799 729 799 628 q 753 856 799 804 q 606 907 708 907 l 363 907 l 288 469 l 529 469 z "},"Q":{"ha":964,"x_min":164,"x_max":946,"o":"m 729 -85 l 672 33 q 476 -17 585 -17 q 297 40 369 -17 q 194 182 224 97 q 164 371 164 267 q 193 582 164 476 q 277 781 222 688 q 426 931 332 874 q 638 989 521 989 q 781 957 719 989 q 877 869 842 925 q 929 748 913 814 q 946 606 946 682 q 890 305 946 453 q 728 71 835 157 l 788 -53 l 729 -85 m 479 53 q 642 96 568 53 l 585 214 l 644 246 l 697 136 q 826 344 782 214 q 871 606 871 474 q 813 831 871 740 q 633 921 756 921 q 456 869 535 921 q 332 733 378 817 q 263 556 286 650 q 239 368 239 463 q 297 142 239 231 q 479 53 356 53 z "},"R":{"ha":874,"x_min":131,"x_max":872,"o":"m 872 738 q 794 544 872 622 q 582 451 717 465 l 731 0 l 653 0 l 506 447 l 283 447 l 204 0 l 131 0 l 301 972 l 610 972 q 809 903 746 972 q 872 738 872 833 m 531 514 q 727 575 656 514 q 799 736 799 636 q 755 856 799 806 q 611 906 711 906 l 364 906 l 296 514 l 531 514 z "},"S":{"ha":793,"x_min":122,"x_max":775,"o":"m 707 808 q 532 921 668 921 q 376 873 433 921 q 319 746 319 825 q 342 669 319 703 q 400 614 364 636 q 479 570 436 592 q 565 524 522 549 q 644 470 608 500 q 703 393 681 440 q 725 285 725 346 q 633 64 725 144 q 399 -17 540 -17 q 217 40 290 -17 q 122 185 144 97 l 192 210 q 406 51 243 51 q 581 111 514 51 q 647 276 647 171 q 606 392 647 344 q 505 471 564 440 q 386 533 446 501 q 285 616 326 564 q 243 742 243 668 q 324 918 243 847 q 536 989 406 989 q 694 946 631 989 q 775 835 758 903 l 707 808 z "},"T":{"ha":757,"x_min":236,"x_max":836,"o":"m 567 906 l 407 0 l 333 0 l 493 906 l 236 906 l 247 972 l 836 972 l 825 906 l 567 906 z "},"U":{"ha":897,"x_min":176,"x_max":921,"o":"m 447 -17 q 251 51 325 -17 q 176 256 176 119 q 188 368 176 304 l 293 972 l 368 972 l 263 368 q 253 263 253 314 q 449 51 253 51 q 739 356 685 51 l 846 972 l 921 972 l 813 354 q 689 72 779 160 q 447 -17 599 -17 z "},"V":{"ha":853,"x_min":235,"x_max":931,"o":"m 388 0 l 235 972 l 311 972 l 419 253 q 436 139 428 207 q 490 249 453 174 l 849 972 l 931 972 l 440 0 l 388 0 z "},"W":{"ha":1117,"x_min":233,"x_max":1196,"o":"m 265 0 l 233 972 l 308 972 l 332 247 q 335 167 332 200 l 368 246 l 681 972 l 738 972 l 800 242 l 806 165 q 821 203 810 175 q 835 239 832 232 l 1117 972 l 1196 972 l 818 0 l 753 0 l 689 722 q 682 801 685 765 q 649 722 665 760 l 331 0 l 265 0 z "},"X":{"ha":742,"x_min":50,"x_max":813,"o":"m 50 0 l 410 513 l 243 972 l 317 972 l 456 579 l 731 972 l 813 972 l 483 504 l 665 0 l 592 0 l 436 436 l 133 0 l 50 0 z "},"Y":{"ha":815,"x_min":224,"x_max":908,"o":"m 358 0 l 426 388 l 224 972 l 299 972 l 472 456 l 829 972 l 908 972 l 497 382 l 431 0 l 358 0 z "},"Z":{"ha":825,"x_min":78,"x_max":894,"o":"m 78 0 l 88 47 l 789 907 l 269 907 l 281 972 l 894 972 l 885 922 l 188 67 l 733 67 l 724 0 l 78 0 z "},"[":{"ha":514,"x_min":129,"x_max":596,"o":"m 129 -181 l 335 989 l 596 989 l 583 922 l 394 922 l 213 -114 l 401 -114 l 390 -181 l 129 -181 z "},"\\":{"ha":660,"x_min":176,"x_max":578,"o":"m 506 -181 l 176 989 l 249 989 l 578 -181 l 506 -181 z "},"]":{"ha":514,"x_min":47,"x_max":514,"o":"m 47 -181 l 58 -114 l 247 -114 l 429 922 l 240 922 l 253 989 l 514 989 l 308 -181 l 47 -181 z "},"^":{"ha":897,"x_min":226,"x_max":829,"o":"m 754 503 l 560 894 l 301 503 l 226 503 l 532 989 l 608 989 l 829 503 l 754 503 z "},"_":{"ha":719,"x_min":-25,"x_max":683,"o":"m -25 -231 l -11 -154 l 683 -154 l 669 -231 l -25 -231 z "},"`":{"ha":454,"x_min":185,"x_max":456,"o":"m 383 800 l 185 1017 l 294 1017 l 456 800 l 383 800 z "},"a":{"ha":701,"x_min":111,"x_max":675,"o":"m 514 0 l 528 82 q 306 -17 426 -17 q 163 38 215 -17 q 111 185 111 92 q 194 380 111 310 q 394 450 278 450 q 582 388 500 450 l 596 464 q 604 538 604 511 q 479 661 604 661 q 254 588 378 661 l 243 651 q 483 726 378 726 q 620 683 565 726 q 675 544 675 640 q 667 471 675 522 l 585 0 l 514 0 m 315 49 q 544 171 433 49 l 569 318 q 393 383 486 383 q 245 332 306 383 q 185 189 185 281 q 219 88 185 126 q 315 49 254 49 z "},"b":{"ha":746,"x_min":118,"x_max":731,"o":"m 397 -17 q 207 85 271 -17 l 192 0 l 118 0 l 288 969 l 368 1003 l 301 629 q 508 726 389 726 q 669 650 608 726 q 731 446 731 574 q 638 110 731 236 q 397 -17 546 -17 m 394 53 q 585 163 515 53 q 654 443 654 274 q 613 602 654 546 q 494 658 572 658 q 377 622 432 658 q 286 535 322 585 l 222 175 q 289 87 244 121 q 394 53 333 53 z "},"c":{"ha":638,"x_min":124,"x_max":651,"o":"m 346 -17 q 184 59 244 -17 q 124 267 124 135 q 215 598 124 469 q 454 726 307 726 q 587 685 533 726 q 651 578 640 643 l 583 551 q 449 658 560 658 q 267 544 333 658 q 200 267 200 431 q 238 109 200 165 q 350 53 276 53 q 526 172 468 53 l 589 146 q 346 -17 510 -17 z "},"d":{"ha":747,"x_min":129,"x_max":794,"o":"m 356 -17 q 189 65 249 -17 q 129 286 129 147 q 226 606 129 485 q 478 726 324 726 q 589 698 544 726 q 654 629 633 669 l 715 969 l 794 1003 l 618 0 l 544 0 l 558 81 q 356 -17 471 -17 m 365 53 q 482 89 426 53 q 576 181 538 125 l 638 536 q 579 622 619 585 q 475 658 539 658 q 279 555 351 658 q 207 285 207 451 q 247 118 207 183 q 365 53 288 53 z "},"e":{"ha":701,"x_min":124,"x_max":697,"o":"m 360 -17 q 186 63 249 -17 q 124 274 124 142 q 223 599 124 472 q 471 726 322 726 q 635 665 574 726 q 697 475 697 604 q 675 328 697 424 l 203 328 q 200 281 200 297 q 371 54 200 54 q 538 113 453 54 l 572 58 q 360 -17 474 -17 m 213 394 l 614 394 q 624 479 624 439 q 579 618 624 576 q 471 660 535 660 q 301 584 365 660 q 213 394 236 508 z "},"f":{"ha":424,"x_min":140,"x_max":547,"o":"m 329 643 l 215 0 l 142 0 l 254 643 l 140 643 l 151 710 l 267 710 l 289 838 q 451 989 317 989 q 547 961 504 989 l 536 897 q 451 921 489 921 q 389 897 408 921 q 361 824 369 872 l 340 710 l 504 710 l 492 643 l 329 643 z "},"g":{"ha":749,"x_min":125,"x_max":740,"o":"m 226 -236 q 450 -175 379 -228 q 538 -26 521 -122 l 558 93 q 349 -17 483 -17 q 186 62 247 -17 q 125 274 125 140 q 222 601 125 475 q 468 726 318 726 q 653 625 590 726 l 668 710 l 740 710 l 611 -22 q 563 -157 597 -103 q 477 -240 529 -211 q 372 -280 425 -268 q 250 -296 319 -292 l 226 -236 m 367 53 q 485 91 431 53 q 576 189 540 129 l 636 536 q 572 625 617 592 q 468 658 526 658 q 273 551 344 658 q 201 282 201 444 q 247 114 201 175 q 367 53 293 53 z "},"h":{"ha":744,"x_min":118,"x_max":699,"o":"m 118 0 l 289 969 l 368 1003 l 297 606 q 507 726 375 726 q 699 526 699 726 q 688 414 699 478 l 615 0 l 543 0 l 619 436 q 626 517 626 488 q 590 625 626 590 q 492 660 554 660 q 265 424 308 660 l 192 0 l 118 0 z "},"i":{"ha":326,"x_min":119,"x_max":368,"o":"m 307 861 q 276 874 288 861 q 264 906 264 886 q 281 949 264 931 q 324 968 299 968 q 356 955 344 968 q 368 922 368 942 q 350 879 368 897 q 307 861 332 861 m 119 0 l 244 710 l 318 710 l 193 0 l 119 0 z "},"j":{"ha":336,"x_min":-86,"x_max":369,"o":"m 310 861 q 278 874 290 861 q 265 906 265 886 q 283 949 265 931 q 325 968 301 968 q 358 955 346 968 q 369 922 369 942 q 352 879 369 897 q 310 861 335 861 m -61 -299 l -86 -236 q 51 -190 8 -226 q 108 -69 93 -153 l 246 710 l 319 710 l 182 -75 q 98 -243 160 -196 q -61 -299 36 -290 z "},"k":{"ha":675,"x_min":118,"x_max":672,"o":"m 461 514 l 631 0 l 550 0 l 404 460 l 247 314 l 192 0 l 118 0 l 289 969 l 368 1003 l 264 411 l 585 710 l 672 710 l 461 514 z "},"l":{"ha":329,"x_min":121,"x_max":371,"o":"m 121 0 l 292 969 l 371 1003 l 196 0 l 121 0 z "},"m":{"ha":1133,"x_min":118,"x_max":1083,"o":"m 118 0 l 243 710 l 315 710 l 297 611 q 390 697 335 667 q 503 726 446 726 q 612 691 569 726 q 665 586 654 656 q 896 726 749 726 q 1033 674 983 726 q 1083 526 1083 621 q 1076 457 1083 486 l 996 0 l 922 0 l 1000 443 q 1006 515 1006 475 q 881 660 1006 660 q 746 599 801 660 q 674 447 690 539 l 594 0 l 521 0 l 597 443 q 604 515 604 482 q 482 660 604 660 q 344 599 401 660 q 268 438 286 538 l 192 0 l 118 0 z "},"n":{"ha":744,"x_min":118,"x_max":699,"o":"m 118 0 l 243 710 l 315 710 l 297 607 q 508 726 375 726 q 649 674 599 726 q 699 519 699 621 q 689 408 699 465 l 617 0 l 543 0 l 617 426 q 625 515 625 468 q 590 624 625 588 q 493 660 556 660 q 347 599 408 660 q 265 422 285 539 l 192 0 l 118 0 z "},"o":{"ha":728,"x_min":125,"x_max":714,"o":"m 363 -17 q 186 61 247 -17 q 125 271 125 139 q 219 594 125 461 q 475 726 314 726 q 653 647 592 726 q 714 442 714 568 q 621 117 714 250 q 363 -17 528 -17 m 367 53 q 567 165 494 53 q 639 438 639 278 q 597 597 639 536 q 474 658 554 658 q 273 544 344 658 q 201 269 201 431 q 243 112 201 171 q 367 53 285 53 z "},"p":{"ha":753,"x_min":67,"x_max":735,"o":"m 401 -17 q 282 15 332 -17 q 207 97 232 47 l 147 -249 l 67 -282 l 242 710 l 315 710 l 300 626 q 513 726 388 726 q 675 647 615 726 q 735 438 735 568 q 638 108 735 232 q 401 -17 540 -17 m 400 53 q 586 158 514 53 q 658 431 658 264 q 617 597 658 536 q 496 658 575 658 q 378 625 433 658 q 285 535 324 592 l 222 182 q 400 53 275 53 z "},"q":{"ha":751,"x_min":128,"x_max":743,"o":"m 351 -17 q 187 56 246 -17 q 128 264 128 129 q 223 597 128 468 q 467 726 318 726 q 654 626 603 726 l 668 710 l 743 710 l 575 -244 l 496 -278 l 560 93 q 351 -17 471 -17 m 364 53 q 576 185 479 53 l 638 535 q 573 626 618 593 q 467 658 528 658 q 278 548 353 658 q 204 268 204 438 q 364 53 204 53 z "},"r":{"ha":510,"x_min":118,"x_max":596,"o":"m 118 0 l 243 710 l 315 710 l 293 585 q 396 691 339 656 q 507 726 453 726 q 596 697 564 726 l 572 629 q 486 653 535 653 q 351 588 419 653 q 261 397 283 524 l 192 0 l 118 0 z "},"s":{"ha":610,"x_min":93,"x_max":603,"o":"m 315 -17 q 93 99 171 -17 l 150 144 q 318 50 214 50 q 437 87 392 50 q 482 189 482 124 q 449 269 482 236 q 371 323 417 301 q 278 367 325 344 q 199 432 232 390 q 167 533 167 474 q 231 672 167 618 q 397 726 296 726 q 603 629 538 726 l 550 588 q 393 660 489 660 q 281 624 325 660 q 238 535 238 589 q 270 463 238 493 q 350 413 303 433 q 444 367 397 392 q 523 299 490 343 q 556 190 556 254 q 491 40 556 97 q 315 -17 426 -17 z "},"t":{"ha":483,"x_min":151,"x_max":528,"o":"m 289 -17 q 205 15 233 -17 q 176 100 176 47 q 183 161 176 122 l 268 643 l 151 643 l 163 710 l 279 710 l 325 969 l 404 1003 l 353 710 l 528 710 l 515 643 l 342 643 l 260 174 q 253 117 253 142 q 317 54 253 54 q 424 89 368 54 l 401 13 q 289 -17 349 -17 z "},"u":{"ha":744,"x_min":151,"x_max":735,"o":"m 536 0 l 553 96 q 351 -17 482 -17 q 202 37 253 -17 q 151 192 151 90 q 161 289 151 228 l 235 710 l 308 710 l 232 271 q 225 197 225 226 q 363 50 225 50 q 505 106 444 50 q 586 286 565 163 l 660 710 l 735 710 l 610 0 l 536 0 z "},"v":{"ha":667,"x_min":174,"x_max":726,"o":"m 299 0 l 174 710 l 247 710 l 332 207 q 346 122 336 183 q 366 161 350 131 q 389 207 382 192 l 650 710 l 726 710 l 354 0 l 299 0 z "},"w":{"ha":942,"x_min":174,"x_max":996,"o":"m 226 0 l 174 710 l 244 710 l 275 183 q 278 137 276 167 q 281 106 281 107 q 290 127 283 114 q 303 158 296 140 q 315 183 311 175 l 557 710 l 610 710 l 671 183 q 676 142 672 169 q 681 107 679 115 q 693 138 682 110 q 711 183 704 167 l 922 710 l 996 710 l 703 0 l 638 0 l 569 508 l 561 574 q 547 542 558 567 q 531 507 535 517 l 292 0 l 226 0 z "},"x":{"ha":661,"x_min":50,"x_max":700,"o":"m 50 0 l 346 369 l 194 710 l 274 710 l 397 433 l 619 710 l 700 710 l 425 368 l 590 0 l 511 0 l 375 306 l 131 0 l 50 0 z "},"y":{"ha":679,"x_min":139,"x_max":738,"o":"m 139 -269 l 293 21 l 165 710 l 240 710 l 325 210 q 335 151 328 189 q 342 111 342 114 q 393 210 351 132 l 657 710 l 738 710 l 215 -269 l 139 -269 z "},"z":{"ha":664,"x_min":82,"x_max":682,"o":"m 82 0 l 90 46 l 568 643 l 222 643 l 233 710 l 682 710 l 675 667 l 193 67 l 568 67 l 557 0 l 82 0 z "},"{":{"ha":513,"x_min":144,"x_max":607,"o":"m 400 -181 q 214 33 214 -168 q 225 140 214 78 l 236 203 q 243 260 243 240 q 218 342 243 313 q 150 372 193 372 l 144 372 l 156 438 l 161 438 q 253 479 214 438 q 304 593 292 521 l 326 717 q 421 917 349 844 q 607 989 493 989 l 594 926 q 400 713 435 919 l 381 601 q 317 452 363 496 q 196 406 272 408 l 194 400 q 313 256 313 390 q 304 171 313 221 l 290 97 q 283 26 283 53 q 411 -118 283 -114 l 400 -181 z "},"|":{"ha":365,"x_min":215,"x_max":289,"o":"m 215 -525 l 215 1475 l 289 1475 l 289 -525 l 215 -525 z "},"}":{"ha":513,"x_min":40,"x_max":503,"o":"m 40 -181 l 51 -118 q 247 96 213 -111 l 265 200 q 330 355 285 310 q 451 403 375 400 l 453 408 q 335 550 335 426 q 343 636 335 586 l 357 713 q 364 783 364 757 q 235 926 364 922 l 247 989 q 432 775 432 979 q 419 657 432 722 l 411 610 q 403 540 403 560 q 428 463 403 490 q 497 436 453 436 l 503 436 l 490 371 l 485 371 q 394 330 432 371 q 343 217 356 289 l 322 99 q 40 -181 274 -181 z "},"~":{"ha":897,"x_min":200,"x_max":850,"o":"m 669 385 q 511 440 607 385 q 367 494 415 494 q 290 465 319 494 q 253 385 260 436 l 200 385 q 252 513 207 461 q 381 565 297 565 q 541 511 444 565 q 683 457 638 457 q 760 486 729 457 q 799 565 792 515 l 850 565 q 797 437 843 489 q 669 385 751 385 z "}," ":{"ha":314,"x_min":0,"x_max":0,"o":""},"¡":{"ha":365,"x_min":88,"x_max":343,"o":"m 268 597 q 231 614 246 597 q 217 654 217 631 q 239 704 217 682 q 290 726 261 726 q 328 710 313 726 q 343 671 343 694 q 320 619 343 642 q 268 597 297 597 m 88 -278 l 143 46 l 236 442 l 251 442 l 218 46 l 163 -278 l 88 -278 z "},"¢":{"ha":694,"x_min":168,"x_max":697,"o":"m 313 -17 l 336 118 q 212 206 256 135 q 168 392 168 278 q 249 706 168 579 q 464 853 331 832 l 489 989 l 560 989 l 536 854 q 647 808 606 847 q 697 706 689 768 l 625 679 q 584 756 617 728 q 500 783 551 783 q 313 675 381 783 q 244 397 244 567 q 283 242 244 297 q 397 186 322 186 q 496 217 451 186 q 565 306 540 249 l 632 279 q 407 114 558 122 l 383 -17 l 313 -17 z "},"£":{"ha":821,"x_min":122,"x_max":871,"o":"m 122 0 l 136 83 q 324 425 319 197 l 193 425 l 204 488 l 318 488 q 306 542 315 503 q 291 611 296 581 q 286 672 286 642 q 377 899 286 808 q 632 989 468 989 q 871 907 782 989 l 832 840 q 619 918 751 918 q 431 849 497 918 q 365 682 365 781 q 381 569 365 638 q 399 488 397 501 l 624 488 l 614 425 l 403 425 q 204 68 394 222 l 744 68 l 732 0 l 122 0 z "},"¤":{"ha":863,"x_min":101,"x_max":908,"o":"m 451 131 q 257 201 324 131 l 146 104 l 101 161 l 217 260 q 188 401 188 318 q 283 669 188 556 l 207 765 l 269 821 l 346 726 q 558 796 440 796 q 753 725 682 796 l 863 821 l 908 763 l 796 665 q 824 526 824 606 q 725 254 824 372 l 803 158 l 740 104 l 664 199 q 451 131 572 131 m 460 203 q 665 291 583 203 q 746 513 746 379 q 694 665 746 607 q 551 724 642 724 q 347 635 429 724 q 264 414 264 546 q 317 261 264 319 q 460 203 369 203 z "},"¥":{"ha":758,"x_min":129,"x_max":878,"o":"m 490 429 l 700 429 l 690 365 l 471 365 l 449 236 l 667 236 l 656 171 l 438 171 l 407 0 l 335 0 l 365 171 l 129 171 l 140 236 l 376 236 l 399 365 l 164 365 l 174 429 l 400 429 l 204 972 l 282 972 l 453 482 l 801 972 l 878 972 l 490 429 z "},"¦":{"ha":365,"x_min":222,"x_max":296,"o":"m 222 508 l 222 1146 l 296 1146 l 296 508 l 222 508 m 222 -312 l 222 325 l 296 325 l 296 -312 l 222 -312 z "},"§":{"ha":729,"x_min":75,"x_max":743,"o":"m 325 -167 q 169 -134 233 -167 q 75 -56 106 -101 l 139 -6 q 332 -94 206 -94 q 493 -54 433 -94 q 553 72 553 -14 q 540 127 553 103 q 499 172 528 151 q 450 202 469 192 q 385 231 431 213 q 328 256 340 250 q 266 287 289 274 q 219 319 243 300 q 183 365 194 339 q 172 422 172 390 q 214 535 172 489 q 325 600 256 581 q 232 758 232 647 q 314 927 232 865 q 514 989 396 989 q 743 892 671 989 l 679 844 q 504 915 622 915 q 363 878 417 915 q 310 772 310 840 q 322 720 310 743 q 367 676 335 697 q 428 642 400 656 q 517 604 457 629 q 644 531 600 569 q 689 421 689 492 q 561 236 689 289 q 631 90 631 188 q 547 -100 631 -33 q 325 -167 464 -167 m 500 271 q 611 401 611 310 q 599 446 611 425 q 572 481 588 467 q 524 511 556 494 q 469 537 492 528 q 401 563 446 546 q 292 518 333 553 q 251 435 251 483 q 257 404 251 418 q 277 378 263 390 q 306 356 292 365 q 345 334 319 346 q 390 315 371 322 q 444 293 408 307 q 500 271 479 279 z "},"¨":{"ha":454,"x_min":236,"x_max":568,"o":"m 279 861 q 249 874 261 861 q 236 907 236 888 q 256 950 238 932 q 299 968 275 968 q 330 955 318 968 q 342 922 342 942 q 323 879 342 897 q 279 861 304 861 m 506 861 q 475 874 488 861 q 463 907 463 888 q 482 950 463 932 q 525 968 501 968 q 556 955 544 968 q 568 922 568 942 q 549 879 568 897 q 506 861 531 861 z "},"©":{"ha":1188,"x_min":163,"x_max":1168,"o":"m 1024 128 q 951 56 1024 128 q 665 -17 879 -17 q 307 128 451 -17 q 163 486 163 272 q 307 844 163 700 q 665 989 451 989 q 1024 844 879 989 q 1168 486 1168 700 q 1024 128 1168 272 m 352 171 q 414 108 352 171 q 665 44 476 44 q 978 171 854 44 q 1103 486 1103 297 q 978 801 1103 675 q 665 928 854 928 q 352 801 476 928 q 228 486 228 675 q 352 171 228 297 m 674 192 q 495 269 558 192 q 432 493 432 347 q 497 715 432 633 q 679 796 561 796 q 876 658 824 796 l 810 631 q 672 726 772 726 q 506 493 506 726 q 546 317 506 375 q 675 260 586 260 q 822 369 794 260 l 883 344 q 806 231 861 271 q 674 192 750 192 z "},"ª":{"ha":621,"x_min":168,"x_max":649,"o":"m 503 393 l 514 454 q 335 379 431 379 q 215 424 263 379 q 168 542 168 468 q 244 708 168 650 q 415 767 321 767 q 561 722 497 767 l 568 761 q 576 828 576 806 q 465 924 576 924 q 286 867 379 924 l 278 931 q 479 989 369 989 q 601 953 553 989 q 649 840 649 918 q 639 763 649 813 l 574 393 l 503 393 m 347 443 q 528 528 438 443 l 550 656 q 411 701 485 701 q 295 663 346 701 q 244 549 244 624 q 272 472 244 500 q 347 443 300 443 z "},"«":{"ha":658,"x_min":119,"x_max":729,"o":"m 264 0 l 119 356 l 389 710 l 469 710 l 201 354 l 346 0 l 264 0 m 522 0 l 378 356 l 646 710 l 729 710 l 460 354 l 604 0 l 522 0 z "},"¬":{"ha":897,"x_min":196,"x_max":849,"o":"m 774 244 l 774 572 l 196 572 l 196 643 l 849 643 l 849 244 l 774 244 z "},"­":{"ha":547,"x_min":181,"x_max":497,"o":"m 181 378 l 193 450 l 497 450 l 485 378 l 181 378 z "},"®":{"ha":1188,"x_min":163,"x_max":1168,"o":"m 1024 128 q 951 56 1024 128 q 665 -17 879 -17 q 307 128 451 -17 q 163 486 163 272 q 307 844 163 700 q 665 989 451 989 q 1024 844 879 989 q 1168 486 1168 700 q 1024 128 1168 272 m 665 44 q 977 171 853 44 q 1101 486 1101 297 q 977 801 1101 675 q 665 928 853 928 q 351 801 476 928 q 226 486 226 675 q 351 171 226 297 q 665 44 476 44 m 464 190 l 464 778 l 732 778 q 853 725 813 778 q 894 608 894 672 q 854 496 894 544 q 744 439 814 447 l 888 190 l 808 190 l 672 436 l 535 436 l 535 190 l 464 190 m 535 500 l 726 500 q 799 531 775 500 q 824 607 824 561 q 800 680 824 649 q 726 711 776 711 l 535 711 l 535 500 z "},"¯":{"ha":454,"x_min":164,"x_max":625,"o":"m 164 856 l 176 921 l 625 921 l 614 856 l 164 856 z "},"°":{"ha":554,"x_min":204,"x_max":624,"o":"m 378 647 q 253 697 301 647 q 204 824 204 747 q 277 996 204 926 q 450 1065 350 1065 q 575 1015 526 1065 q 624 890 624 965 q 551 717 624 788 q 378 647 478 647 m 390 718 q 501 766 454 718 q 549 881 549 814 q 519 963 549 931 q 439 996 489 996 q 326 949 374 996 q 278 835 278 903 q 309 751 278 783 q 390 718 340 718 z "},"±":{"ha":897,"x_min":199,"x_max":851,"o":"m 561 529 l 561 285 l 486 285 l 486 529 l 199 529 l 199 600 l 486 600 l 486 844 l 561 844 l 561 600 l 851 600 l 851 529 l 561 529 m 199 0 l 199 72 l 851 72 l 851 0 l 199 0 z "},"²":{"ha":501,"x_min":153,"x_max":593,"o":"m 153 617 q 226 770 171 714 q 392 890 282 826 q 494 969 464 933 q 525 1061 525 1006 q 501 1125 525 1097 q 428 1153 476 1153 q 289 1051 331 1153 l 233 1076 q 431 1213 290 1213 q 549 1171 504 1213 q 593 1063 593 1129 q 551 935 593 983 q 401 826 508 886 q 242 682 279 761 l 525 682 l 514 617 l 153 617 z "},"³":{"ha":499,"x_min":165,"x_max":589,"o":"m 229 763 q 350 663 257 663 q 452 698 413 663 q 492 792 492 733 q 468 860 492 832 q 401 888 444 888 l 357 888 l 369 947 l 399 947 q 485 985 453 947 q 518 1072 518 1022 q 497 1131 518 1107 q 433 1154 475 1154 q 296 1065 351 1154 l 242 1088 q 328 1179 275 1144 q 444 1214 382 1214 q 549 1178 508 1214 q 589 1082 589 1142 q 559 988 589 1032 q 481 925 529 944 q 563 801 563 900 q 500 658 563 713 q 344 603 438 603 q 165 739 199 603 l 229 763 z "},"´":{"ha":454,"x_min":285,"x_max":632,"o":"m 358 800 l 285 800 l 522 1017 l 632 1017 l 358 800 z "},"µ":{"ha":744,"x_min":63,"x_max":735,"o":"m 538 0 l 556 101 q 351 -17 478 -17 q 199 69 236 -17 l 143 -246 l 63 -281 l 238 710 l 311 710 l 235 272 q 226 190 226 228 q 263 85 226 121 q 365 50 299 50 q 506 107 444 50 q 588 286 567 164 l 661 710 l 735 710 l 610 0 l 538 0 z "},"¶":{"ha":839,"x_min":161,"x_max":854,"o":"m 353 -260 l 468 399 q 235 472 308 399 q 161 644 161 544 q 180 755 161 701 q 238 856 199 808 q 349 933 278 904 q 514 961 419 961 l 854 961 l 661 -135 l 582 -169 l 768 888 l 628 888 l 432 -226 l 353 -260 z "},"·":{"ha":292,"x_min":160,"x_max":286,"o":"m 211 421 q 174 438 189 421 q 160 476 160 454 q 183 528 161 506 q 235 550 206 550 q 272 533 258 550 q 286 494 286 517 q 264 444 286 467 q 211 421 242 421 z "},"¸":{"ha":454,"x_min":28,"x_max":293,"o":"m 247 -284 q 224 -305 247 -284 q 131 -325 201 -325 q 28 -281 60 -325 l 78 -250 q 133 -272 100 -272 q 199 -247 172 -272 q 225 -186 225 -222 q 205 -137 225 -156 q 151 -119 185 -119 q 100 -128 117 -119 l 88 -110 l 199 14 l 243 14 l 174 -79 q 263 -108 233 -79 q 293 -179 293 -137 q 247 -284 293 -243 z "},"¹":{"ha":271,"x_min":197,"x_max":368,"o":"m 197 617 l 278 1074 l 208 1074 l 217 1119 q 324 1203 292 1121 l 368 1203 l 264 617 l 197 617 z "},"º":{"ha":636,"x_min":185,"x_max":682,"o":"m 382 378 q 238 440 290 378 q 185 613 185 503 q 268 886 185 783 q 483 989 351 989 q 630 926 578 989 q 682 754 682 864 q 599 481 682 583 q 382 378 517 378 m 393 449 q 551 531 494 449 q 608 750 608 613 q 573 875 608 831 q 472 919 538 919 q 317 838 375 919 q 258 619 258 757 q 294 494 258 539 q 393 449 331 449 z "},"»":{"ha":658,"x_min":42,"x_max":651,"o":"m 42 0 l 311 356 l 167 710 l 247 710 l 393 356 l 124 0 l 42 0 m 300 0 l 569 356 l 424 710 l 507 710 l 651 356 l 382 0 l 300 0 z "},"¼":{"ha":933,"x_min":19,"x_max":924,"o":"m 19 -17 l 847 989 l 924 989 l 96 -17 l 19 -17 m 175 393 l 256 850 l 186 850 l 194 896 q 260 917 236 897 q 300 979 283 938 l 346 979 l 243 393 l 175 393 m 715 0 l 743 157 l 456 157 l 461 192 l 833 588 l 886 588 l 821 219 l 894 219 l 883 157 l 810 157 l 783 0 l 715 0 m 754 219 l 800 482 l 560 219 l 754 219 z "},"½":{"ha":1003,"x_min":19,"x_max":986,"o":"m 19 -17 l 847 989 l 924 989 l 96 -17 l 19 -17 m 175 393 l 256 850 l 186 850 l 194 896 q 260 917 236 897 q 300 979 283 938 l 346 979 l 243 393 l 175 393 m 628 458 q 704 558 654 519 q 825 596 754 596 q 942 556 899 596 q 986 449 986 515 q 944 319 986 368 q 794 210 901 269 q 636 65 674 144 l 918 65 l 907 0 l 546 0 q 576 92 556 51 q 633 167 596 133 q 699 221 669 200 q 785 275 729 242 q 888 353 857 317 q 918 444 918 389 q 894 509 918 482 q 822 536 871 536 q 682 435 726 536 l 628 458 z "},"¾":{"ha":1133,"x_min":129,"x_max":1122,"o":"m 308 376 q 190 413 236 376 q 129 513 144 450 l 192 538 q 315 436 225 436 q 417 472 378 436 q 457 567 457 508 q 433 635 457 607 q 367 663 410 663 l 322 663 l 333 722 l 363 722 q 450 760 417 722 q 483 847 483 799 q 462 906 483 883 q 399 929 440 929 q 260 840 318 929 l 206 864 q 293 954 239 919 q 408 989 347 989 q 515 954 475 989 q 554 857 554 919 q 525 763 554 806 q 446 700 496 719 q 526 578 526 675 q 463 432 526 488 q 308 376 400 376 m 218 -17 l 1046 989 l 1122 989 l 294 -17 l 218 -17 m 915 0 l 942 157 l 654 157 l 661 192 l 1032 588 l 1086 588 l 1021 219 l 1094 219 l 1083 157 l 1010 157 l 982 0 l 915 0 m 953 219 l 1000 482 l 758 219 l 953 219 z "},"¿":{"ha":714,"x_min":71,"x_max":644,"o":"m 479 597 q 442 614 457 597 q 428 654 428 631 q 451 704 429 682 q 503 726 474 726 q 541 710 526 726 q 556 671 556 694 q 531 619 554 642 q 479 597 508 597 m 308 -278 q 133 -217 196 -278 q 71 -64 71 -157 q 93 50 71 -1 q 149 133 115 101 q 225 200 183 165 q 304 264 267 235 q 372 340 342 293 q 413 440 403 386 l 418 471 l 493 471 l 488 440 q 433 308 474 367 q 344 213 392 250 q 252 140 297 176 q 177 56 207 104 q 147 -56 147 7 q 192 -165 147 -122 q 319 -208 236 -208 q 480 -158 414 -208 q 575 -14 546 -107 l 644 -24 q 517 -209 608 -140 q 308 -278 425 -278 z "},"À":{"ha":886,"x_min":78,"x_max":786,"o":"m 589 1021 l 390 1238 l 500 1238 l 661 1021 l 589 1021 m 78 0 l 572 972 l 629 972 l 786 0 l 713 0 l 669 263 l 290 263 l 157 0 l 78 0 m 321 326 l 661 326 l 599 731 q 581 851 585 801 q 551 785 574 833 q 525 731 528 738 l 321 326 z "},"Á":{"ha":886,"x_min":78,"x_max":896,"o":"m 622 1021 l 549 1021 l 786 1238 l 896 1238 l 622 1021 m 78 0 l 572 972 l 629 972 l 786 0 l 713 0 l 669 263 l 290 263 l 157 0 l 78 0 m 321 326 l 661 326 l 599 731 q 581 851 585 801 q 551 785 574 833 q 525 731 528 738 l 321 326 z "},"Â":{"ha":886,"x_min":78,"x_max":844,"o":"m 776 1021 l 636 1175 l 442 1021 l 371 1021 l 608 1238 l 683 1238 l 844 1021 l 776 1021 m 78 0 l 572 972 l 629 972 l 786 0 l 713 0 l 669 263 l 290 263 l 157 0 l 78 0 m 321 326 l 661 326 l 599 731 q 581 851 585 801 q 551 785 574 833 q 525 731 528 738 l 321 326 z "},"Ã":{"ha":886,"x_min":78,"x_max":875,"o":"m 729 1057 q 615 1103 679 1057 q 517 1149 551 1149 q 466 1126 488 1149 q 435 1063 444 1103 l 390 1063 q 439 1175 401 1135 q 535 1215 476 1215 q 650 1169 586 1215 q 747 1124 714 1124 q 831 1210 808 1124 l 875 1210 q 729 1057 847 1057 m 78 0 l 572 972 l 629 972 l 786 0 l 713 0 l 669 263 l 290 263 l 157 0 l 78 0 m 321 326 l 661 326 l 599 731 q 581 851 585 801 q 551 785 574 833 q 525 731 528 738 l 321 326 z "},"Ä":{"ha":886,"x_min":78,"x_max":796,"o":"m 507 1082 q 476 1095 489 1082 q 464 1128 464 1108 q 484 1171 465 1153 q 526 1189 503 1189 q 558 1176 546 1189 q 569 1143 569 1163 q 551 1100 569 1118 q 507 1082 532 1082 m 733 1082 q 703 1095 715 1082 q 690 1128 690 1108 q 710 1171 690 1153 q 753 1189 729 1189 q 784 1176 772 1189 q 796 1143 796 1163 q 777 1100 796 1118 q 733 1082 758 1082 m 78 0 l 572 972 l 629 972 l 786 0 l 713 0 l 669 263 l 290 263 l 157 0 l 78 0 m 321 326 l 661 326 l 599 731 q 581 851 585 801 q 551 785 574 833 q 525 731 528 738 l 321 326 z "},"Å":{"ha":886,"x_min":78,"x_max":786,"o":"m 643 890 l 786 0 l 713 0 l 669 263 l 290 263 l 157 0 l 78 0 l 531 893 q 472 942 494 908 q 450 1018 450 976 q 503 1142 450 1092 q 631 1193 557 1193 q 728 1154 690 1193 q 767 1058 767 1115 q 731 955 767 1001 q 643 890 696 908 m 625 1136 q 546 1104 579 1136 q 513 1022 513 1072 q 535 963 513 986 q 592 939 558 939 q 672 972 639 939 q 704 1054 704 1004 q 682 1113 704 1090 q 625 1136 660 1136 m 321 326 l 661 326 l 599 731 q 581 851 585 801 q 551 785 574 833 q 525 731 528 738 l 321 326 z "},"Æ":{"ha":1160,"x_min":-19,"x_max":1193,"o":"m -19 0 l 704 972 l 1193 972 l 1182 906 l 794 906 l 729 538 l 979 538 l 967 471 l 718 471 l 647 67 l 1064 67 l 1053 0 l 561 0 l 607 263 l 264 263 l 71 0 l -19 0 m 311 326 l 618 326 l 715 882 q 661 806 689 842 l 311 326 z "},"Ç":{"ha":861,"x_min":164,"x_max":894,"o":"m 404 -325 q 303 -286 338 -325 l 357 -253 q 408 -272 369 -272 q 475 -247 447 -272 q 503 -185 503 -221 q 481 -138 503 -157 q 429 -119 460 -119 q 378 -128 394 -119 l 365 -110 l 450 -17 q 318 19 375 -14 q 228 108 261 53 q 180 228 196 163 q 164 368 164 293 q 195 594 164 485 q 285 793 226 704 q 435 935 343 882 q 640 989 528 989 q 806 947 750 989 q 894 832 861 904 l 824 794 q 752 888 794 856 q 632 921 710 921 q 417 835 508 921 q 283 628 325 750 q 240 375 240 507 q 299 144 240 236 q 476 53 357 53 q 726 189 632 53 l 788 161 q 499 -15 682 -1 l 451 -79 q 541 -108 511 -79 q 571 -176 571 -136 q 523 -282 571 -239 q 404 -325 475 -325 z "},"È":{"ha":789,"x_min":131,"x_max":815,"o":"m 546 1021 l 347 1238 l 457 1238 l 618 1021 l 546 1021 m 131 0 l 301 972 l 815 972 l 806 906 l 364 906 l 299 538 l 594 538 l 582 471 l 288 471 l 217 67 l 688 67 l 675 0 l 131 0 z "},"É":{"ha":789,"x_min":131,"x_max":853,"o":"m 579 1021 l 506 1021 l 743 1238 l 853 1238 l 579 1021 m 131 0 l 301 972 l 815 972 l 806 906 l 364 906 l 299 538 l 594 538 l 582 471 l 288 471 l 217 67 l 688 67 l 675 0 l 131 0 z "},"Ê":{"ha":789,"x_min":131,"x_max":815,"o":"m 733 1021 l 593 1175 l 399 1021 l 328 1021 l 565 1238 l 640 1238 l 801 1021 l 733 1021 m 131 0 l 301 972 l 815 972 l 806 906 l 364 906 l 299 538 l 594 538 l 582 471 l 288 471 l 217 67 l 688 67 l 675 0 l 131 0 z "},"Ë":{"ha":789,"x_min":131,"x_max":815,"o":"m 464 1082 q 433 1095 446 1082 q 421 1128 421 1108 q 441 1171 422 1153 q 483 1189 460 1189 q 515 1176 503 1189 q 526 1143 526 1163 q 508 1100 526 1118 q 464 1082 489 1082 m 690 1082 q 660 1095 672 1082 q 647 1128 647 1108 q 667 1171 647 1153 q 710 1189 686 1189 q 741 1176 729 1189 q 753 1143 753 1163 q 734 1100 753 1118 q 690 1082 715 1082 m 131 0 l 301 972 l 815 972 l 806 906 l 364 906 l 299 538 l 594 538 l 582 471 l 288 471 l 217 67 l 688 67 l 675 0 l 131 0 z "},"Ì":{"ha":351,"x_min":129,"x_max":400,"o":"m 328 1021 l 129 1238 l 239 1238 l 400 1021 l 328 1021 m 131 0 l 301 972 l 375 972 l 204 0 l 131 0 z "},"Í":{"ha":351,"x_min":131,"x_max":635,"o":"m 361 1021 l 288 1021 l 525 1238 l 635 1238 l 361 1021 m 131 0 l 301 972 l 375 972 l 204 0 l 131 0 z "},"Î":{"ha":351,"x_min":110,"x_max":583,"o":"m 515 1021 l 375 1175 l 181 1021 l 110 1021 l 347 1238 l 422 1238 l 583 1021 l 515 1021 m 131 0 l 301 972 l 375 972 l 204 0 l 131 0 z "},"Ï":{"ha":351,"x_min":131,"x_max":535,"o":"m 246 1082 q 215 1095 228 1082 q 203 1128 203 1108 q 223 1171 204 1153 q 265 1189 242 1189 q 297 1176 285 1189 q 308 1143 308 1163 q 290 1100 308 1118 q 246 1082 271 1082 m 472 1082 q 442 1095 454 1082 q 429 1128 429 1108 q 449 1171 429 1153 q 492 1189 468 1189 q 523 1176 511 1189 q 535 1143 535 1163 q 516 1100 535 1118 q 472 1082 497 1082 m 131 0 l 301 972 l 375 972 l 204 0 l 131 0 z "},"Ð":{"ha":901,"x_min":117,"x_max":885,"o":"m 131 0 l 210 451 l 117 451 l 128 519 l 221 519 l 301 972 l 528 972 q 693 940 622 972 q 804 850 764 907 q 865 724 844 793 q 885 576 885 656 q 867 416 885 494 q 810 261 850 338 q 710 128 769 185 q 558 35 650 71 q 354 0 467 0 l 131 0 m 217 69 l 369 69 q 566 113 479 69 q 703 231 653 157 q 781 393 754 306 q 807 576 807 481 q 738 810 807 717 q 525 904 669 904 l 363 904 l 296 519 l 519 519 l 508 451 l 283 451 l 217 69 z "},"Ñ":{"ha":929,"x_min":129,"x_max":947,"o":"m 750 1057 q 636 1103 700 1057 q 538 1149 572 1149 q 487 1126 508 1149 q 456 1063 465 1103 l 411 1063 q 460 1175 422 1135 q 556 1215 497 1215 q 669 1169 606 1215 q 768 1124 733 1124 q 819 1146 797 1124 q 851 1210 842 1168 l 896 1210 q 750 1057 868 1057 m 129 0 l 300 972 l 369 972 l 682 233 q 703 182 688 221 q 725 131 719 143 q 733 177 726 138 q 743 233 740 217 l 874 972 l 947 972 l 776 0 l 703 0 l 403 710 q 350 836 397 725 l 328 708 l 204 0 l 129 0 z "},"Ò":{"ha":964,"x_min":164,"x_max":946,"o":"m 624 1021 l 425 1238 l 535 1238 l 696 1021 l 624 1021 m 476 -17 q 297 40 369 -17 q 194 182 224 97 q 164 371 164 267 q 193 582 164 476 q 277 781 222 688 q 426 931 332 874 q 638 989 521 989 q 781 957 719 989 q 877 869 842 925 q 929 748 913 814 q 946 606 946 682 q 929 435 946 521 q 875 268 913 350 q 784 124 838 186 q 651 22 731 61 q 476 -17 571 -17 m 479 53 q 656 105 578 53 q 778 240 733 157 q 847 417 824 324 q 871 606 871 511 q 813 831 871 740 q 633 921 756 921 q 456 869 535 921 q 332 733 378 817 q 263 556 286 650 q 239 368 239 463 q 297 142 239 231 q 479 53 356 53 z "},"Ó":{"ha":964,"x_min":164,"x_max":946,"o":"m 657 1021 l 583 1021 l 821 1238 l 931 1238 l 657 1021 m 476 -17 q 297 40 369 -17 q 194 182 224 97 q 164 371 164 267 q 193 582 164 476 q 277 781 222 688 q 426 931 332 874 q 638 989 521 989 q 781 957 719 989 q 877 869 842 925 q 929 748 913 814 q 946 606 946 682 q 929 435 946 521 q 875 268 913 350 q 784 124 838 186 q 651 22 731 61 q 476 -17 571 -17 m 479 53 q 656 105 578 53 q 778 240 733 157 q 847 417 824 324 q 871 606 871 511 q 813 831 871 740 q 633 921 756 921 q 456 869 535 921 q 332 733 378 817 q 263 556 286 650 q 239 368 239 463 q 297 142 239 231 q 479 53 356 53 z "},"Ô":{"ha":964,"x_min":164,"x_max":946,"o":"m 811 1021 l 671 1175 l 476 1021 l 406 1021 l 643 1238 l 718 1238 l 879 1021 l 811 1021 m 476 -17 q 297 40 369 -17 q 194 182 224 97 q 164 371 164 267 q 193 582 164 476 q 277 781 222 688 q 426 931 332 874 q 638 989 521 989 q 781 957 719 989 q 877 869 842 925 q 929 748 913 814 q 946 606 946 682 q 929 435 946 521 q 875 268 913 350 q 784 124 838 186 q 651 22 731 61 q 476 -17 571 -17 m 479 53 q 656 105 578 53 q 778 240 733 157 q 847 417 824 324 q 871 606 871 511 q 813 831 871 740 q 633 921 756 921 q 456 869 535 921 q 332 733 378 817 q 263 556 286 650 q 239 368 239 463 q 297 142 239 231 q 479 53 356 53 z "},"Õ":{"ha":964,"x_min":164,"x_max":946,"o":"m 764 1057 q 650 1103 714 1057 q 551 1149 586 1149 q 501 1126 522 1149 q 469 1063 479 1103 l 425 1063 q 474 1175 436 1135 q 569 1215 511 1215 q 683 1169 619 1215 q 782 1124 747 1124 q 833 1146 811 1124 q 865 1210 856 1168 l 910 1210 q 764 1057 882 1057 m 476 -17 q 297 40 369 -17 q 194 182 224 97 q 164 371 164 267 q 193 582 164 476 q 277 781 222 688 q 426 931 332 874 q 638 989 521 989 q 781 957 719 989 q 877 869 842 925 q 929 748 913 814 q 946 606 946 682 q 929 435 946 521 q 875 268 913 350 q 784 124 838 186 q 651 22 731 61 q 476 -17 571 -17 m 479 53 q 656 105 578 53 q 778 240 733 157 q 847 417 824 324 q 871 606 871 511 q 813 831 871 740 q 633 921 756 921 q 456 869 535 921 q 332 733 378 817 q 263 556 286 650 q 239 368 239 463 q 297 142 239 231 q 479 53 356 53 z "},"Ö":{"ha":964,"x_min":164,"x_max":946,"o":"m 542 1082 q 511 1095 524 1082 q 499 1128 499 1108 q 519 1171 500 1153 q 561 1189 538 1189 q 592 1176 581 1189 q 604 1143 604 1163 q 585 1100 604 1118 q 542 1082 567 1082 m 768 1082 q 738 1095 750 1082 q 725 1128 725 1108 q 744 1171 725 1153 q 788 1189 764 1189 q 819 1176 807 1189 q 831 1143 831 1163 q 812 1100 831 1118 q 768 1082 793 1082 m 476 -17 q 297 40 369 -17 q 194 182 224 97 q 164 371 164 267 q 193 582 164 476 q 277 781 222 688 q 426 931 332 874 q 638 989 521 989 q 781 957 719 989 q 877 869 842 925 q 929 748 913 814 q 946 606 946 682 q 929 435 946 521 q 875 268 913 350 q 784 124 838 186 q 651 22 731 61 q 476 -17 571 -17 m 479 53 q 656 105 578 53 q 778 240 733 157 q 847 417 824 324 q 871 606 871 511 q 813 831 871 740 q 633 921 756 921 q 456 869 535 921 q 332 733 378 817 q 263 556 286 650 q 239 368 239 463 q 297 142 239 231 q 479 53 356 53 z "},"×":{"ha":897,"x_min":222,"x_max":826,"o":"m 526 424 l 276 172 l 222 224 l 475 476 l 224 726 l 275 776 l 525 526 l 775 776 l 826 725 l 575 475 l 826 222 l 776 174 l 526 424 z "},"Ø":{"ha":964,"x_min":100,"x_max":1013,"o":"m 100 -17 l 217 124 q 164 371 164 218 q 181 538 164 454 q 235 704 197 622 q 326 849 272 786 q 463 950 381 911 q 642 989 544 989 q 858 899 782 989 l 935 989 l 1013 989 l 896 849 q 946 604 946 754 q 918 392 946 497 q 836 194 890 288 q 687 42 782 100 q 471 -17 592 -17 q 253 74 333 -17 l 178 -17 l 100 -17 m 269 189 l 810 839 q 631 921 746 921 q 454 869 532 921 q 331 734 376 817 q 263 558 286 651 q 239 371 239 464 q 269 189 239 260 m 482 53 q 658 105 581 53 q 781 240 736 157 q 848 415 825 322 q 871 601 871 508 q 840 782 871 711 l 301 133 q 482 53 361 53 z "},"Ù":{"ha":897,"x_min":176,"x_max":921,"o":"m 594 1021 l 396 1238 l 506 1238 l 667 1021 l 594 1021 m 447 -17 q 251 51 325 -17 q 176 256 176 119 q 188 368 176 304 l 293 972 l 368 972 l 263 368 q 253 263 253 314 q 449 51 253 51 q 739 356 685 51 l 846 972 l 921 972 l 813 354 q 689 72 779 160 q 447 -17 599 -17 z "},"Ú":{"ha":897,"x_min":176,"x_max":921,"o":"m 628 1021 l 554 1021 l 792 1238 l 901 1238 l 628 1021 m 447 -17 q 251 51 325 -17 q 176 256 176 119 q 188 368 176 304 l 293 972 l 368 972 l 263 368 q 253 263 253 314 q 449 51 253 51 q 739 356 685 51 l 846 972 l 921 972 l 813 354 q 689 72 779 160 q 447 -17 599 -17 z "},"Û":{"ha":897,"x_min":176,"x_max":921,"o":"m 782 1021 l 642 1175 l 447 1021 l 376 1021 l 614 1238 l 689 1238 l 850 1021 l 782 1021 m 447 -17 q 251 51 325 -17 q 176 256 176 119 q 188 368 176 304 l 293 972 l 368 972 l 263 368 q 253 263 253 314 q 449 51 253 51 q 739 356 685 51 l 846 972 l 921 972 l 813 354 q 689 72 779 160 q 447 -17 599 -17 z "},"Ü":{"ha":897,"x_min":176,"x_max":921,"o":"m 513 1082 q 482 1095 494 1082 q 469 1128 469 1108 q 490 1171 471 1153 q 532 1189 508 1189 q 563 1176 551 1189 q 575 1143 575 1163 q 556 1100 575 1118 q 513 1082 538 1082 m 739 1082 q 708 1095 721 1082 q 696 1128 696 1108 q 715 1171 696 1153 q 758 1189 735 1189 q 790 1176 778 1189 q 801 1143 801 1163 q 783 1100 801 1118 q 739 1082 764 1082 m 447 -17 q 251 51 325 -17 q 176 256 176 119 q 188 368 176 304 l 293 972 l 368 972 l 263 368 q 253 263 253 314 q 449 51 253 51 q 739 356 685 51 l 846 972 l 921 972 l 813 354 q 689 72 779 160 q 447 -17 599 -17 z "},"Ý":{"ha":815,"x_min":224,"x_max":908,"o":"m 588 1021 l 514 1021 l 751 1238 l 861 1238 l 588 1021 m 358 0 l 426 388 l 224 972 l 299 972 l 472 456 l 829 972 l 908 972 l 497 382 l 431 0 l 358 0 z "},"Þ":{"ha":818,"x_min":131,"x_max":847,"o":"m 131 0 l 301 972 l 374 972 l 342 779 l 590 779 q 785 712 724 779 q 847 544 847 644 q 826 428 847 485 q 765 320 806 371 q 652 239 724 269 q 490 208 581 208 l 240 208 l 204 0 l 131 0 m 506 278 q 628 301 575 278 q 712 364 682 325 q 757 446 742 403 q 772 533 772 489 q 728 659 772 607 q 583 711 683 711 l 329 711 l 253 278 l 506 278 z "},"ß":{"ha":756,"x_min":57,"x_max":756,"o":"m 57 -276 l 224 669 q 342 911 253 833 q 539 989 431 989 q 697 933 638 989 q 756 783 756 876 q 710 626 756 699 q 569 531 664 554 q 685 455 646 511 q 724 325 724 399 q 628 80 724 176 q 399 -17 532 -17 q 304 1 336 -17 l 347 60 q 407 53 375 53 q 573 123 499 53 q 647 319 647 193 q 599 444 647 394 q 447 494 551 494 l 442 494 l 453 561 l 458 561 q 619 615 560 561 q 679 776 679 668 q 641 883 679 844 q 531 921 603 921 q 383 859 446 921 q 297 672 319 797 l 138 -239 l 57 -276 z "},"à":{"ha":701,"x_min":111,"x_max":675,"o":"m 471 799 l 272 1015 l 382 1015 l 543 799 l 471 799 m 514 0 l 528 82 q 306 -17 426 -17 q 163 38 215 -17 q 111 185 111 92 q 194 380 111 310 q 394 450 278 450 q 582 388 500 450 l 596 464 q 604 538 604 511 q 479 661 604 661 q 254 588 378 661 l 243 651 q 483 726 378 726 q 620 683 565 726 q 675 544 675 640 q 667 471 675 522 l 585 0 l 514 0 m 315 49 q 544 171 433 49 l 569 318 q 393 383 486 383 q 245 332 306 383 q 185 189 185 281 q 219 88 185 126 q 315 49 254 49 z "},"á":{"ha":701,"x_min":111,"x_max":778,"o":"m 504 799 l 431 799 l 668 1015 l 778 1015 l 504 799 m 514 0 l 528 82 q 306 -17 426 -17 q 163 38 215 -17 q 111 185 111 92 q 194 380 111 310 q 394 450 278 450 q 582 388 500 450 l 596 464 q 604 538 604 511 q 479 661 604 661 q 254 588 378 661 l 243 651 q 483 726 378 726 q 620 683 565 726 q 675 544 675 640 q 667 471 675 522 l 585 0 l 514 0 m 315 49 q 544 171 433 49 l 569 318 q 393 383 486 383 q 245 332 306 383 q 185 189 185 281 q 219 88 185 126 q 315 49 254 49 z "},"â":{"ha":701,"x_min":111,"x_max":726,"o":"m 658 799 l 518 953 l 324 799 l 253 799 l 490 1015 l 565 1015 l 726 799 l 658 799 m 514 0 l 528 82 q 306 -17 426 -17 q 163 38 215 -17 q 111 185 111 92 q 194 380 111 310 q 394 450 278 450 q 582 388 500 450 l 596 464 q 604 538 604 511 q 479 661 604 661 q 254 588 378 661 l 243 651 q 483 726 378 726 q 620 683 565 726 q 675 544 675 640 q 667 471 675 522 l 585 0 l 514 0 m 315 49 q 544 171 433 49 l 569 318 q 393 383 486 383 q 245 332 306 383 q 185 189 185 281 q 219 88 185 126 q 315 49 254 49 z "},"ã":{"ha":701,"x_min":111,"x_max":757,"o":"m 611 835 q 497 881 561 835 q 399 926 433 926 q 348 903 369 926 q 317 840 326 881 l 272 840 q 321 953 283 913 q 417 993 358 993 q 531 947 467 993 q 629 901 594 901 q 681 924 658 901 q 713 988 703 946 l 757 988 q 611 835 729 835 m 514 0 l 528 82 q 306 -17 426 -17 q 163 38 215 -17 q 111 185 111 92 q 194 380 111 310 q 394 450 278 450 q 582 388 500 450 l 596 464 q 604 538 604 511 q 479 661 604 661 q 254 588 378 661 l 243 651 q 483 726 378 726 q 620 683 565 726 q 675 544 675 640 q 667 471 675 522 l 585 0 l 514 0 m 315 49 q 544 171 433 49 l 569 318 q 393 383 486 383 q 245 332 306 383 q 185 189 185 281 q 219 88 185 126 q 315 49 254 49 z "},"ä":{"ha":701,"x_min":111,"x_max":678,"o":"m 389 860 q 358 873 371 860 q 346 906 346 886 q 366 949 347 931 q 408 967 385 967 q 440 953 428 967 q 451 921 451 940 q 433 878 451 896 q 389 860 414 860 m 615 860 q 585 873 597 860 q 572 906 572 886 q 592 949 572 931 q 635 967 611 967 q 666 953 654 967 q 678 921 678 940 q 659 878 678 896 q 615 860 640 860 m 514 0 l 528 82 q 306 -17 426 -17 q 163 38 215 -17 q 111 185 111 92 q 194 380 111 310 q 394 450 278 450 q 582 388 500 450 l 596 464 q 604 538 604 511 q 479 661 604 661 q 254 588 378 661 l 243 651 q 483 726 378 726 q 620 683 565 726 q 675 544 675 640 q 667 471 675 522 l 585 0 l 514 0 m 315 49 q 544 171 433 49 l 569 318 q 393 383 486 383 q 245 332 306 383 q 185 189 185 281 q 219 88 185 126 q 315 49 254 49 z "},"å":{"ha":701,"x_min":111,"x_max":675,"o":"m 490 797 q 393 838 432 797 q 354 935 354 878 q 408 1059 354 1008 q 536 1110 463 1110 q 633 1070 594 1110 q 672 975 672 1031 q 617 849 672 901 q 490 797 563 797 m 497 856 q 577 889 544 856 q 610 971 610 922 q 588 1030 610 1007 q 529 1053 565 1053 q 451 1021 483 1053 q 418 939 418 989 q 441 878 418 901 q 497 856 464 856 m 514 0 l 528 82 q 306 -17 426 -17 q 163 38 215 -17 q 111 185 111 92 q 194 380 111 310 q 394 450 278 450 q 582 388 500 450 l 596 464 q 604 538 604 511 q 479 661 604 661 q 254 588 378 661 l 243 651 q 483 726 378 726 q 620 683 565 726 q 675 544 675 640 q 667 471 675 522 l 585 0 l 514 0 m 315 49 q 544 171 433 49 l 569 318 q 393 383 486 383 q 245 332 306 383 q 185 189 185 281 q 219 88 185 126 q 315 49 254 49 z "},"æ":{"ha":1149,"x_min":111,"x_max":1146,"o":"m 308 -17 q 163 38 215 -17 q 111 185 111 92 q 194 381 111 311 q 397 450 278 450 q 582 388 500 450 l 597 472 q 604 536 604 511 q 479 661 604 661 q 254 588 378 661 l 243 651 q 483 726 378 726 q 606 692 556 726 q 667 588 656 658 q 919 726 763 726 q 1086 663 1026 726 q 1146 476 1146 600 q 1124 328 1146 431 l 651 328 q 649 278 649 292 q 819 54 649 54 q 986 113 904 54 l 1021 58 q 808 -17 921 -17 q 670 28 726 -17 q 592 153 614 72 q 308 -17 468 -17 m 661 394 l 1063 394 q 1072 485 1072 442 q 1028 617 1072 575 q 919 660 985 660 q 753 588 821 660 q 661 394 686 515 m 318 49 q 576 213 453 49 l 572 265 q 574 315 572 307 q 393 383 489 383 q 247 333 308 383 q 185 189 185 283 q 219 88 185 126 q 318 49 254 49 z "},"ç":{"ha":636,"x_min":124,"x_max":650,"o":"m 278 -325 q 176 -286 211 -325 l 231 -253 q 282 -272 246 -272 q 350 -247 322 -272 q 378 -185 378 -221 q 356 -138 378 -157 q 303 -119 335 -119 q 251 -128 269 -119 l 239 -110 l 324 -17 q 176 63 229 -10 q 124 260 124 135 q 218 596 124 465 q 463 726 313 726 q 590 685 540 726 q 650 578 640 643 l 582 551 q 451 658 561 658 q 265 545 331 658 q 199 263 199 432 q 237 108 199 164 q 349 53 275 53 q 525 172 465 53 l 588 146 q 374 -15 517 4 l 325 -79 q 414 -108 385 -79 q 443 -176 443 -136 q 396 -282 443 -239 q 278 -325 349 -325 z "},"è":{"ha":701,"x_min":124,"x_max":697,"o":"m 465 799 l 267 1015 l 376 1015 l 538 799 l 465 799 m 360 -17 q 186 63 249 -17 q 124 274 124 142 q 223 599 124 472 q 471 726 322 726 q 635 665 574 726 q 697 475 697 604 q 675 328 697 424 l 203 328 q 200 281 200 297 q 371 54 200 54 q 538 113 453 54 l 572 58 q 360 -17 474 -17 m 213 394 l 614 394 q 624 479 624 439 q 579 618 624 576 q 471 660 535 660 q 301 584 365 660 q 213 394 236 508 z "},"é":{"ha":701,"x_min":124,"x_max":772,"o":"m 499 799 l 425 799 l 663 1015 l 772 1015 l 499 799 m 360 -17 q 186 63 249 -17 q 124 274 124 142 q 223 599 124 472 q 471 726 322 726 q 635 665 574 726 q 697 475 697 604 q 675 328 697 424 l 203 328 q 200 281 200 297 q 371 54 200 54 q 538 113 453 54 l 572 58 q 360 -17 474 -17 m 213 394 l 614 394 q 624 479 624 439 q 579 618 624 576 q 471 660 535 660 q 301 584 365 660 q 213 394 236 508 z "},"ê":{"ha":701,"x_min":124,"x_max":721,"o":"m 653 799 l 513 953 l 318 799 l 247 799 l 485 1015 l 560 1015 l 721 799 l 653 799 m 360 -17 q 186 63 249 -17 q 124 274 124 142 q 223 599 124 472 q 471 726 322 726 q 635 665 574 726 q 697 475 697 604 q 675 328 697 424 l 203 328 q 200 281 200 297 q 371 54 200 54 q 538 113 453 54 l 572 58 q 360 -17 474 -17 m 213 394 l 614 394 q 624 479 624 439 q 579 618 624 576 q 471 660 535 660 q 301 584 365 660 q 213 394 236 508 z "},"ë":{"ha":701,"x_min":124,"x_max":697,"o":"m 383 860 q 353 873 365 860 q 340 906 340 886 q 360 949 342 931 q 403 967 379 967 q 434 953 422 967 q 446 921 446 940 q 427 878 446 896 q 383 860 408 860 m 610 860 q 579 873 592 860 q 567 906 567 886 q 586 949 567 931 q 629 967 606 967 q 660 953 649 967 q 672 921 672 940 q 653 878 672 896 q 610 860 635 860 m 360 -17 q 186 63 249 -17 q 124 274 124 142 q 223 599 124 472 q 471 726 322 726 q 635 665 574 726 q 697 475 697 604 q 675 328 697 424 l 203 328 q 200 281 200 297 q 371 54 200 54 q 538 113 453 54 l 572 58 q 360 -17 474 -17 m 213 394 l 614 394 q 624 479 624 439 q 579 618 624 576 q 471 660 535 660 q 301 584 365 660 q 213 394 236 508 z "},"ì":{"ha":326,"x_min":78,"x_max":349,"o":"m 276 799 l 78 1015 l 188 1015 l 349 799 l 276 799 m 119 0 l 244 710 l 315 710 l 190 0 l 119 0 z "},"í":{"ha":326,"x_min":119,"x_max":583,"o":"m 310 799 l 236 799 l 474 1015 l 583 1015 l 310 799 m 119 0 l 244 710 l 315 710 l 190 0 l 119 0 z "},"î":{"ha":326,"x_min":58,"x_max":532,"o":"m 464 799 l 324 953 l 129 799 l 58 799 l 296 1015 l 371 1015 l 532 799 l 464 799 m 119 0 l 244 710 l 315 710 l 190 0 l 119 0 z "},"ï":{"ha":326,"x_min":119,"x_max":483,"o":"m 194 860 q 164 873 176 860 q 151 906 151 886 q 172 949 153 931 q 214 967 190 967 q 245 953 233 967 q 257 921 257 940 q 238 878 257 896 q 194 860 219 860 m 421 860 q 390 873 403 860 q 378 906 378 886 q 397 949 378 931 q 440 967 417 967 q 472 953 460 967 q 483 921 483 940 q 465 878 483 896 q 421 860 446 860 m 119 0 l 244 710 l 315 710 l 190 0 l 119 0 z "},"ð":{"ha":728,"x_min":125,"x_max":717,"o":"m 361 -17 q 188 60 251 -17 q 125 257 125 136 q 224 527 125 421 q 463 633 324 633 q 653 496 614 633 q 535 842 653 735 l 424 739 l 393 778 l 494 872 q 326 931 425 918 l 338 989 q 543 918 457 974 l 640 1010 l 672 971 l 583 888 q 717 500 717 760 q 621 120 717 257 q 361 -17 525 -17 m 374 53 q 549 140 476 53 q 621 350 621 226 q 576 506 621 446 q 451 565 531 565 q 276 478 350 565 q 201 261 201 390 q 247 109 201 165 q 374 53 292 53 z "},"ñ":{"ha":744,"x_min":118,"x_max":774,"o":"m 628 835 q 514 881 578 835 q 415 926 450 926 q 365 903 386 926 q 333 840 343 881 l 289 840 q 338 953 300 913 q 433 993 375 993 q 547 947 483 993 q 646 901 611 901 q 697 924 675 901 q 729 988 719 946 l 774 988 q 628 835 746 835 m 118 0 l 243 710 l 315 710 l 297 607 q 508 726 375 726 q 649 674 599 726 q 699 519 699 621 q 689 408 699 465 l 617 0 l 543 0 l 617 426 q 625 515 625 468 q 590 624 625 588 q 493 660 556 660 q 347 599 408 660 q 265 422 285 539 l 192 0 l 118 0 z "},"ò":{"ha":728,"x_min":125,"x_max":714,"o":"m 474 799 l 275 1015 l 385 1015 l 546 799 l 474 799 m 363 -17 q 186 61 247 -17 q 125 271 125 139 q 219 594 125 461 q 475 726 314 726 q 653 647 592 726 q 714 442 714 568 q 621 117 714 250 q 363 -17 528 -17 m 367 53 q 567 165 494 53 q 639 438 639 278 q 597 597 639 536 q 474 658 554 658 q 273 544 344 658 q 201 269 201 431 q 243 112 201 171 q 367 53 285 53 z "},"ó":{"ha":728,"x_min":125,"x_max":781,"o":"m 507 799 l 433 799 l 671 1015 l 781 1015 l 507 799 m 363 -17 q 186 61 247 -17 q 125 271 125 139 q 219 594 125 461 q 475 726 314 726 q 653 647 592 726 q 714 442 714 568 q 621 117 714 250 q 363 -17 528 -17 m 367 53 q 567 165 494 53 q 639 438 639 278 q 597 597 639 536 q 474 658 554 658 q 273 544 344 658 q 201 269 201 431 q 243 112 201 171 q 367 53 285 53 z "},"ô":{"ha":728,"x_min":125,"x_max":729,"o":"m 661 799 l 521 953 l 326 799 l 256 799 l 493 1015 l 568 1015 l 729 799 l 661 799 m 363 -17 q 186 61 247 -17 q 125 271 125 139 q 219 594 125 461 q 475 726 314 726 q 653 647 592 726 q 714 442 714 568 q 621 117 714 250 q 363 -17 528 -17 m 367 53 q 567 165 494 53 q 639 438 639 278 q 597 597 639 536 q 474 658 554 658 q 273 544 344 658 q 201 269 201 431 q 243 112 201 171 q 367 53 285 53 z "},"õ":{"ha":728,"x_min":125,"x_max":760,"o":"m 614 835 q 500 881 564 835 q 401 926 436 926 q 351 903 372 926 q 319 840 329 881 l 275 840 q 324 953 286 913 q 419 993 361 993 q 533 947 469 993 q 632 901 597 901 q 683 924 661 901 q 715 988 706 946 l 760 988 q 614 835 732 835 m 363 -17 q 186 61 247 -17 q 125 271 125 139 q 219 594 125 461 q 475 726 314 726 q 653 647 592 726 q 714 442 714 568 q 621 117 714 250 q 363 -17 528 -17 m 367 53 q 567 165 494 53 q 639 438 639 278 q 597 597 639 536 q 474 658 554 658 q 273 544 344 658 q 201 269 201 431 q 243 112 201 171 q 367 53 285 53 z "},"ö":{"ha":728,"x_min":125,"x_max":714,"o":"m 392 860 q 361 873 374 860 q 349 906 349 886 q 369 949 350 931 q 411 967 388 967 q 442 953 431 967 q 454 921 454 940 q 435 878 454 896 q 392 860 417 860 m 618 860 q 588 873 600 860 q 575 906 575 886 q 594 949 575 931 q 638 967 614 967 q 669 953 657 967 q 681 921 681 940 q 662 878 681 896 q 618 860 643 860 m 363 -17 q 186 61 247 -17 q 125 271 125 139 q 219 594 125 461 q 475 726 314 726 q 653 647 592 726 q 714 442 714 568 q 621 117 714 250 q 363 -17 528 -17 m 367 53 q 567 165 494 53 q 639 438 639 278 q 597 597 639 536 q 474 658 554 658 q 273 544 344 658 q 201 269 201 431 q 243 112 201 171 q 367 53 285 53 z "},"÷":{"ha":897,"x_min":196,"x_max":849,"o":"m 518 710 q 481 725 496 710 q 465 763 465 740 q 481 801 465 785 q 518 818 496 818 q 558 801 542 818 q 574 763 574 785 q 558 725 574 740 q 518 710 542 710 m 196 440 l 196 511 l 849 511 l 849 440 l 196 440 m 518 135 q 481 149 496 135 q 465 186 465 164 q 481 226 465 210 q 518 242 496 242 q 558 226 542 242 q 574 186 574 210 q 558 149 574 164 q 518 135 542 135 z "},"ø":{"ha":728,"x_min":64,"x_max":775,"o":"m 64 -17 l 163 97 q 125 271 125 168 q 219 594 125 461 q 475 726 314 726 q 642 658 581 726 l 701 726 l 775 726 l 676 611 q 714 442 714 540 q 621 117 714 250 q 363 -17 528 -17 q 196 51 256 -17 l 138 -17 l 64 -17 m 217 163 l 593 600 q 474 658 550 658 q 273 544 344 658 q 201 269 201 431 q 217 163 201 204 m 367 53 q 567 165 494 53 q 639 438 639 278 q 621 547 639 501 l 246 108 q 367 53 286 53 z "},"ù":{"ha":744,"x_min":151,"x_max":735,"o":"m 475 799 l 276 1015 l 386 1015 l 547 799 l 475 799 m 536 0 l 553 96 q 351 -17 482 -17 q 202 37 253 -17 q 151 192 151 90 q 161 289 151 228 l 235 710 l 308 710 l 232 271 q 225 197 225 226 q 363 50 225 50 q 505 106 444 50 q 586 286 565 163 l 660 710 l 735 710 l 610 0 l 536 0 z "},"ú":{"ha":744,"x_min":151,"x_max":782,"o":"m 508 799 l 435 799 l 672 1015 l 782 1015 l 508 799 m 536 0 l 553 96 q 351 -17 482 -17 q 202 37 253 -17 q 151 192 151 90 q 161 289 151 228 l 235 710 l 308 710 l 232 271 q 225 197 225 226 q 363 50 225 50 q 505 106 444 50 q 586 286 565 163 l 660 710 l 735 710 l 610 0 l 536 0 z "},"û":{"ha":744,"x_min":151,"x_max":735,"o":"m 663 799 l 522 953 l 328 799 l 257 799 l 494 1015 l 569 1015 l 731 799 l 663 799 m 536 0 l 553 96 q 351 -17 482 -17 q 202 37 253 -17 q 151 192 151 90 q 161 289 151 228 l 235 710 l 308 710 l 232 271 q 225 197 225 226 q 363 50 225 50 q 505 106 444 50 q 586 286 565 163 l 660 710 l 735 710 l 610 0 l 536 0 z "},"ü":{"ha":744,"x_min":151,"x_max":735,"o":"m 393 860 q 363 873 375 860 q 350 906 350 886 q 370 949 351 931 q 413 967 389 967 q 444 953 432 967 q 456 921 456 940 q 437 878 456 896 q 393 860 418 860 m 619 860 q 589 873 601 860 q 576 906 576 886 q 596 949 576 931 q 639 967 615 967 q 670 953 658 967 q 682 921 682 940 q 663 878 682 896 q 619 860 644 860 m 536 0 l 553 96 q 351 -17 482 -17 q 202 37 253 -17 q 151 192 151 90 q 161 289 151 228 l 235 710 l 308 710 l 232 271 q 225 197 225 226 q 363 50 225 50 q 505 106 444 50 q 586 286 565 163 l 660 710 l 735 710 l 610 0 l 536 0 z "},"ý":{"ha":679,"x_min":139,"x_max":750,"o":"m 476 799 l 403 799 l 640 1015 l 750 1015 l 476 799 m 139 -269 l 293 21 l 165 710 l 240 710 l 325 210 q 335 151 328 189 q 342 111 342 114 q 393 210 351 132 l 657 710 l 738 710 l 215 -269 l 139 -269 z "},"þ":{"ha":753,"x_min":69,"x_max":735,"o":"m 388 -17 q 208 96 258 -17 l 149 -246 l 69 -282 l 288 960 l 367 996 l 301 626 q 514 726 397 726 q 676 649 617 726 q 735 444 735 572 q 637 109 735 235 q 388 -17 539 -17 m 389 53 q 586 158 514 53 q 658 433 658 263 q 616 597 658 536 q 494 658 574 658 q 381 625 436 658 q 285 535 325 592 l 224 182 q 389 53 276 53 z "},"ÿ":{"ha":679,"x_min":139,"x_max":738,"o":"m 361 860 q 331 873 343 860 q 318 906 318 886 q 338 949 319 931 q 381 967 357 967 q 412 953 400 967 q 424 921 424 940 q 405 878 424 896 q 361 860 386 860 m 588 860 q 557 873 569 860 q 544 906 544 886 q 564 949 544 931 q 607 967 583 967 q 638 953 626 967 q 650 921 650 940 q 631 878 650 896 q 588 860 613 860 m 139 -269 l 293 21 l 165 710 l 240 710 l 325 210 q 335 151 328 189 q 342 111 342 114 q 393 210 351 132 l 657 710 l 738 710 l 215 -269 l 139 -269 z "},"Ā":{"ha":886,"x_min":78,"x_max":854,"o":"m 393 1076 l 406 1142 l 854 1142 l 843 1076 l 393 1076 m 78 0 l 572 972 l 629 972 l 786 0 l 713 0 l 669 263 l 290 263 l 157 0 l 78 0 m 321 326 l 661 326 l 599 731 q 581 851 585 801 q 551 785 574 833 q 525 731 528 738 l 321 326 z "},"ā":{"ha":701,"x_min":111,"x_max":736,"o":"m 275 854 l 288 919 l 736 919 l 725 854 l 275 854 m 514 0 l 528 82 q 306 -17 426 -17 q 163 38 215 -17 q 111 185 111 92 q 194 380 111 310 q 394 450 278 450 q 582 388 500 450 l 596 464 q 604 538 604 511 q 479 661 604 661 q 254 588 378 661 l 243 651 q 483 726 378 726 q 620 683 565 726 q 675 544 675 640 q 667 471 675 522 l 585 0 l 514 0 m 315 49 q 544 171 433 49 l 569 318 q 393 383 486 383 q 245 332 306 383 q 185 189 185 281 q 219 88 185 126 q 315 49 254 49 z "},"Ă":{"ha":886,"x_min":78,"x_max":879,"o":"m 608 1028 q 454 1079 506 1028 q 403 1207 403 1131 q 406 1251 403 1236 l 472 1251 q 469 1218 469 1229 q 614 1094 469 1094 q 740 1136 685 1094 q 810 1251 796 1178 l 879 1251 q 793 1090 861 1151 q 608 1028 725 1028 m 78 0 l 572 972 l 629 972 l 786 0 l 713 0 l 669 263 l 290 263 l 157 0 l 78 0 m 321 326 l 661 326 l 599 731 q 581 851 585 801 q 551 785 574 833 q 525 731 528 738 l 321 326 z "},"ă":{"ha":701,"x_min":111,"x_max":761,"o":"m 490 806 q 336 857 388 806 q 285 985 285 908 q 288 1029 285 1014 l 354 1029 q 351 996 351 1007 q 496 872 351 872 q 622 914 567 872 q 692 1029 678 956 l 761 1029 q 675 867 743 929 q 490 806 607 806 m 514 0 l 528 82 q 306 -17 426 -17 q 163 38 215 -17 q 111 185 111 92 q 194 380 111 310 q 394 450 278 450 q 582 388 500 450 l 596 464 q 604 538 604 511 q 479 661 604 661 q 254 588 378 661 l 243 651 q 483 726 378 726 q 620 683 565 726 q 675 544 675 640 q 667 471 675 522 l 585 0 l 514 0 m 315 49 q 544 171 433 49 l 569 318 q 393 383 486 383 q 245 332 306 383 q 185 189 185 281 q 219 88 185 126 q 315 49 254 49 z "},"Ą":{"ha":886,"x_min":78,"x_max":786,"o":"m 625 -325 q 540 -297 574 -325 q 507 -215 507 -268 q 563 -85 507 -140 q 713 3 619 -29 l 669 263 l 290 263 l 157 0 l 78 0 l 572 972 l 629 972 l 786 0 q 630 -83 686 -32 q 574 -201 574 -135 q 592 -253 574 -236 q 639 -271 611 -271 q 726 -232 683 -271 l 764 -264 q 625 -325 703 -325 m 321 326 l 661 326 l 599 731 q 581 851 582 833 q 525 732 561 806 l 321 326 z "},"ą":{"ha":701,"x_min":111,"x_max":675,"o":"m 446 -325 q 361 -297 394 -325 q 328 -215 328 -268 q 514 0 328 -79 l 528 82 q 306 -17 426 -17 q 163 38 215 -17 q 111 185 111 92 q 194 380 111 310 q 394 450 278 450 q 582 388 500 450 l 596 464 q 604 538 604 511 q 479 661 604 661 q 254 588 378 661 l 243 651 q 483 726 378 726 q 620 683 565 726 q 675 544 675 640 q 667 471 675 513 l 585 0 q 393 -201 393 -81 q 413 -253 393 -236 q 460 -271 432 -271 q 547 -232 501 -271 l 583 -264 q 446 -325 522 -325 m 315 49 q 544 171 433 49 l 569 318 q 393 383 486 383 q 245 332 306 383 q 185 189 185 281 q 219 88 185 126 q 315 49 254 49 z "},"Ć":{"ha":861,"x_min":164,"x_max":932,"o":"m 658 1021 l 585 1021 l 822 1238 l 932 1238 l 658 1021 m 475 -17 q 297 42 369 -17 q 194 186 225 100 q 164 378 164 272 q 197 602 164 493 q 288 797 229 711 q 438 936 347 883 q 639 989 529 989 q 893 832 822 989 l 831 797 q 755 889 799 857 q 632 921 711 921 q 419 839 511 921 q 284 637 328 757 q 240 385 240 517 q 300 148 240 243 q 481 53 360 53 q 728 189 631 53 l 790 160 q 475 -17 678 -17 z "},"ć":{"ha":638,"x_min":124,"x_max":754,"o":"m 481 799 l 407 799 l 644 1015 l 754 1015 l 481 799 m 346 -17 q 184 59 244 -17 q 124 267 124 135 q 215 598 124 469 q 454 726 307 726 q 587 685 533 726 q 651 578 640 643 l 583 551 q 449 658 560 658 q 267 544 333 658 q 200 267 200 431 q 238 109 200 165 q 350 53 276 53 q 526 172 468 53 l 589 146 q 346 -17 510 -17 z "},"Ĉ":{"ha":861,"x_min":164,"x_max":893,"o":"m 813 1021 l 672 1175 l 478 1021 l 407 1021 l 644 1238 l 719 1238 l 881 1021 l 813 1021 m 475 -17 q 297 42 369 -17 q 194 186 225 100 q 164 378 164 272 q 197 602 164 493 q 288 797 229 711 q 438 936 347 883 q 639 989 529 989 q 893 832 822 989 l 831 797 q 755 889 799 857 q 632 921 711 921 q 419 839 511 921 q 284 637 328 757 q 240 385 240 517 q 300 148 240 243 q 481 53 360 53 q 728 189 631 53 l 790 160 q 475 -17 678 -17 z "},"ĉ":{"ha":638,"x_min":124,"x_max":703,"o":"m 635 799 l 494 953 l 300 799 l 229 799 l 467 1015 l 542 1015 l 703 799 l 635 799 m 346 -17 q 184 59 244 -17 q 124 267 124 135 q 215 598 124 469 q 454 726 307 726 q 587 685 533 726 q 651 578 640 643 l 583 551 q 449 658 560 658 q 267 544 333 658 q 200 267 200 431 q 238 109 200 165 q 350 53 276 53 q 526 172 468 53 l 589 146 q 346 -17 510 -17 z "},"Ċ":{"ha":861,"x_min":164,"x_max":893,"o":"m 651 1063 q 621 1076 633 1063 q 608 1108 608 1089 q 628 1151 610 1133 q 671 1169 647 1169 q 702 1156 690 1169 q 714 1124 714 1143 q 695 1081 714 1099 q 651 1063 676 1063 m 475 -17 q 297 42 369 -17 q 194 186 225 100 q 164 378 164 272 q 197 602 164 493 q 288 797 229 711 q 438 936 347 883 q 639 989 529 989 q 893 832 822 989 l 831 797 q 755 889 799 857 q 632 921 711 921 q 419 839 511 921 q 284 637 328 757 q 240 385 240 517 q 300 148 240 243 q 481 53 360 53 q 728 189 631 53 l 790 160 q 475 -17 678 -17 z "},"ċ":{"ha":638,"x_min":124,"x_max":651,"o":"m 474 840 q 443 853 456 840 q 431 886 431 867 q 451 929 432 911 q 493 947 469 947 q 524 934 513 947 q 536 901 536 921 q 517 858 536 876 q 474 840 499 840 m 346 -17 q 184 59 244 -17 q 124 267 124 135 q 215 598 124 469 q 454 726 307 726 q 587 685 533 726 q 651 578 640 643 l 583 551 q 449 658 560 658 q 267 544 333 658 q 200 267 200 431 q 238 109 200 165 q 350 53 276 53 q 526 172 468 53 l 589 146 q 346 -17 510 -17 z "},"Č":{"ha":861,"x_min":164,"x_max":922,"o":"m 685 1021 l 608 1021 l 449 1238 l 515 1238 l 656 1085 l 851 1238 l 922 1238 l 685 1021 m 475 -17 q 297 42 369 -17 q 194 186 225 100 q 164 378 164 272 q 197 602 164 493 q 288 797 229 711 q 438 936 347 883 q 639 989 529 989 q 893 832 822 989 l 831 797 q 755 889 799 857 q 632 921 711 921 q 419 839 511 921 q 284 637 328 757 q 240 385 240 517 q 300 148 240 243 q 481 53 360 53 q 728 189 631 53 l 790 160 q 475 -17 678 -17 z "},"č":{"ha":638,"x_min":124,"x_max":744,"o":"m 507 799 l 431 799 l 271 1015 l 338 1015 l 478 863 l 674 1015 l 744 1015 l 507 799 m 346 -17 q 184 59 244 -17 q 124 267 124 135 q 215 598 124 469 q 454 726 307 726 q 587 685 533 726 q 651 578 640 643 l 583 551 q 449 658 560 658 q 267 544 333 658 q 200 267 200 431 q 238 109 200 165 q 350 53 276 53 q 526 172 468 53 l 589 146 q 346 -17 510 -17 z "},"Ď":{"ha":901,"x_min":131,"x_max":885,"o":"m 607 1021 l 531 1021 l 371 1238 l 438 1238 l 578 1085 l 774 1238 l 844 1238 l 607 1021 m 301 972 l 528 972 q 695 938 624 972 q 806 846 767 904 q 865 720 846 788 q 885 576 885 653 q 855 371 885 469 q 765 188 825 272 q 598 51 704 103 q 354 0 492 0 l 131 0 l 301 972 m 369 69 q 565 113 479 69 q 703 231 651 157 q 781 392 754 304 q 807 576 807 481 q 738 810 807 715 q 525 904 669 904 l 363 904 l 217 69 l 369 69 z "},"ď":{"ha":919,"x_min":129,"x_max":1026,"o":"m 356 -17 q 189 65 249 -17 q 129 286 129 147 q 226 606 129 485 q 478 726 324 726 q 589 698 544 726 q 654 629 633 669 l 715 969 l 794 1003 l 618 0 l 544 0 l 558 81 q 356 -17 471 -17 m 1026 989 l 1022 969 q 879 672 986 772 l 861 688 q 954 989 919 782 l 1026 989 m 365 53 q 482 89 426 53 q 576 181 538 125 l 638 536 q 579 622 619 585 q 475 658 539 658 q 279 555 351 658 q 207 285 207 451 q 247 118 207 183 q 365 53 288 53 z "},"Đ":{"ha":901,"x_min":117,"x_max":885,"o":"m 131 0 l 210 451 l 117 451 l 128 519 l 221 519 l 301 972 l 528 972 q 693 940 622 972 q 804 850 764 907 q 865 724 844 793 q 885 576 885 656 q 867 416 885 494 q 810 261 850 338 q 710 128 769 185 q 558 35 650 71 q 354 0 467 0 l 131 0 m 217 69 l 369 69 q 566 113 479 69 q 703 231 653 157 q 781 393 754 306 q 807 576 807 481 q 738 810 807 717 q 525 904 669 904 l 363 904 l 296 519 l 519 519 l 508 451 l 283 451 l 217 69 z "},"đ":{"ha":747,"x_min":124,"x_max":860,"o":"m 756 779 l 618 0 l 544 0 l 560 82 q 351 -17 471 -17 q 185 61 247 -17 q 124 265 124 139 q 221 565 124 449 q 471 681 318 681 q 647 586 588 681 l 682 779 l 488 779 l 499 846 l 693 846 l 715 969 l 794 1003 l 767 846 l 860 846 l 849 779 l 756 779 m 363 53 q 576 181 488 53 l 631 489 q 467 611 579 611 q 272 515 343 611 q 201 263 201 419 q 245 115 201 176 q 363 53 289 53 z "},"Ē":{"ha":789,"x_min":131,"x_max":815,"o":"m 350 1076 l 363 1142 l 811 1142 l 800 1076 l 350 1076 m 131 0 l 301 972 l 815 972 l 806 906 l 364 906 l 299 538 l 594 538 l 582 471 l 288 471 l 217 67 l 688 67 l 675 0 l 131 0 z "},"ē":{"ha":701,"x_min":124,"x_max":731,"o":"m 269 854 l 282 919 l 731 919 l 719 854 l 269 854 m 360 -17 q 186 63 249 -17 q 124 274 124 142 q 223 599 124 472 q 471 726 322 726 q 635 665 574 726 q 697 475 697 604 q 675 328 697 424 l 203 328 q 200 281 200 297 q 371 54 200 54 q 538 113 453 54 l 572 58 q 360 -17 474 -17 m 213 394 l 614 394 q 624 479 624 439 q 579 618 624 576 q 471 660 535 660 q 301 584 365 660 q 213 394 236 508 z "},"Ĕ":{"ha":789,"x_min":131,"x_max":836,"o":"m 565 1028 q 411 1079 463 1028 q 360 1207 360 1131 q 363 1251 360 1236 l 429 1251 q 426 1218 426 1229 q 571 1094 426 1094 q 697 1136 642 1094 q 767 1251 753 1178 l 836 1251 q 750 1090 818 1151 q 565 1028 682 1028 m 131 0 l 301 972 l 815 972 l 806 906 l 364 906 l 299 538 l 594 538 l 582 471 l 288 471 l 217 67 l 688 67 l 675 0 l 131 0 z "},"ĕ":{"ha":701,"x_min":124,"x_max":756,"o":"m 485 806 q 331 857 382 806 q 279 985 279 908 q 282 1029 279 1014 l 349 1029 q 346 996 346 1007 q 490 872 346 872 q 617 914 561 872 q 686 1029 672 956 l 756 1029 q 669 867 738 929 q 485 806 601 806 m 360 -17 q 186 63 249 -17 q 124 274 124 142 q 223 599 124 472 q 471 726 322 726 q 635 665 574 726 q 697 475 697 604 q 675 328 697 424 l 203 328 q 200 281 200 297 q 371 54 200 54 q 538 113 453 54 l 572 58 q 360 -17 474 -17 m 213 394 l 614 394 q 624 479 624 439 q 579 618 624 576 q 471 660 535 660 q 301 584 365 660 q 213 394 236 508 z "},"Ė":{"ha":789,"x_min":131,"x_max":815,"o":"m 572 1063 q 542 1076 554 1063 q 529 1108 529 1089 q 549 1151 531 1133 q 592 1169 568 1169 q 623 1156 611 1169 q 635 1124 635 1143 q 616 1081 635 1099 q 572 1063 597 1063 m 131 0 l 301 972 l 815 972 l 806 906 l 364 906 l 299 538 l 594 538 l 582 471 l 288 471 l 217 67 l 688 67 l 675 0 l 131 0 z "},"ė":{"ha":701,"x_min":124,"x_max":697,"o":"m 492 840 q 461 853 474 840 q 449 886 449 867 q 469 929 450 911 q 511 947 488 947 q 542 934 531 947 q 554 901 554 921 q 535 858 554 876 q 492 840 517 840 m 360 -17 q 186 63 249 -17 q 124 274 124 142 q 223 599 124 472 q 471 726 322 726 q 635 665 574 726 q 697 475 697 604 q 675 328 697 424 l 203 328 q 200 281 200 297 q 371 54 200 54 q 538 113 453 54 l 572 58 q 360 -17 474 -17 m 213 394 l 614 394 q 624 479 624 439 q 579 618 624 576 q 471 660 535 660 q 301 584 365 660 q 213 394 236 508 z "},"Ę":{"ha":789,"x_min":131,"x_max":815,"o":"m 446 -325 q 361 -297 394 -325 q 328 -215 328 -268 q 379 -90 328 -146 q 514 0 431 -35 l 131 0 l 301 972 l 815 972 l 804 903 l 364 903 l 299 538 l 594 538 l 582 469 l 286 469 l 217 69 l 688 69 l 675 0 l 631 0 q 472 -62 551 0 q 393 -201 393 -124 q 413 -253 393 -236 q 460 -271 432 -271 q 547 -232 506 -271 l 583 -264 q 446 -325 525 -325 z "},"ę":{"ha":701,"x_min":124,"x_max":697,"o":"m 331 -325 q 244 -297 278 -325 q 211 -215 211 -268 q 365 -17 211 -96 q 339 -15 347 -17 q 180 71 236 -7 q 124 274 124 149 q 223 599 124 472 q 471 726 322 726 q 635 665 574 726 q 697 475 697 604 q 675 328 697 424 l 203 328 q 200 281 200 297 q 371 54 200 54 q 538 113 453 54 l 572 58 q 472 1 532 28 q 328 -89 378 -42 q 278 -201 278 -136 q 297 -253 278 -236 q 344 -271 317 -271 q 432 -232 386 -271 l 468 -264 q 331 -325 407 -325 m 213 394 l 614 394 q 624 479 624 439 q 579 618 624 576 q 471 660 535 660 q 301 584 365 660 q 213 394 236 508 z "},"Ě":{"ha":789,"x_min":131,"x_max":843,"o":"m 606 1021 l 529 1021 l 369 1238 l 436 1238 l 576 1085 l 772 1238 l 843 1238 l 606 1021 m 131 0 l 301 972 l 815 972 l 806 906 l 364 906 l 299 538 l 594 538 l 582 471 l 288 471 l 217 67 l 688 67 l 675 0 l 131 0 z "},"ě":{"ha":701,"x_min":124,"x_max":763,"o":"m 525 799 l 449 799 l 289 1015 l 356 1015 l 496 863 l 692 1015 l 763 1015 l 525 799 m 360 -17 q 186 63 249 -17 q 124 274 124 142 q 223 599 124 472 q 471 726 322 726 q 635 665 574 726 q 697 475 697 604 q 675 328 697 424 l 203 328 q 200 281 200 297 q 371 54 200 54 q 538 113 453 54 l 572 58 q 360 -17 474 -17 m 213 394 l 614 394 q 624 479 624 439 q 579 618 624 576 q 471 660 535 660 q 301 584 365 660 q 213 394 236 508 z "},"Ĝ":{"ha":917,"x_min":164,"x_max":892,"o":"m 810 1021 l 669 1175 l 475 1021 l 404 1021 l 642 1238 l 717 1238 l 878 1021 l 810 1021 m 475 -17 q 297 40 369 -17 q 194 180 225 96 q 164 368 164 264 q 194 594 164 485 q 283 793 225 704 q 433 935 340 882 q 639 989 525 989 q 892 844 818 989 l 824 807 q 626 921 767 921 q 457 870 533 921 q 335 738 381 819 q 265 563 289 657 q 240 376 240 469 q 299 145 240 238 q 478 53 358 53 q 663 128 588 53 q 764 343 738 203 l 769 381 l 588 381 l 599 449 l 860 449 l 844 363 q 712 77 810 171 q 475 -17 614 -17 z "},"ĝ":{"ha":749,"x_min":125,"x_max":740,"o":"m 653 799 l 513 953 l 318 799 l 247 799 l 485 1015 l 560 1015 l 721 799 l 653 799 m 226 -236 q 450 -175 379 -228 q 538 -26 521 -122 l 558 93 q 349 -17 483 -17 q 186 62 247 -17 q 125 274 125 140 q 222 601 125 475 q 468 726 318 726 q 653 625 590 726 l 668 710 l 740 710 l 611 -22 q 563 -157 597 -103 q 477 -240 529 -211 q 372 -280 425 -268 q 250 -296 319 -292 l 226 -236 m 367 53 q 485 91 431 53 q 576 189 540 129 l 636 536 q 572 625 617 592 q 468 658 526 658 q 273 551 344 658 q 201 282 201 444 q 247 114 201 175 q 367 53 293 53 z "},"Ğ":{"ha":917,"x_min":164,"x_max":913,"o":"m 642 1028 q 488 1079 539 1028 q 436 1207 436 1131 q 439 1251 436 1236 l 506 1251 q 503 1218 503 1229 q 647 1094 503 1094 q 774 1136 718 1094 q 843 1251 829 1178 l 913 1251 q 826 1090 894 1151 q 642 1028 758 1028 m 475 -17 q 297 40 369 -17 q 194 180 225 96 q 164 368 164 264 q 194 594 164 485 q 283 793 225 704 q 433 935 340 882 q 639 989 525 989 q 892 844 818 989 l 824 807 q 626 921 767 921 q 457 870 533 921 q 335 738 381 819 q 265 563 289 657 q 240 376 240 469 q 299 145 240 238 q 478 53 358 53 q 663 128 588 53 q 764 343 738 203 l 769 381 l 588 381 l 599 449 l 860 449 l 844 363 q 712 77 810 171 q 475 -17 614 -17 z "},"ğ":{"ha":749,"x_min":125,"x_max":756,"o":"m 485 806 q 331 857 382 806 q 279 985 279 908 q 282 1029 279 1014 l 349 1029 q 346 996 346 1007 q 490 872 346 872 q 617 914 561 872 q 686 1029 672 956 l 756 1029 q 669 867 738 929 q 485 806 601 806 m 226 -236 q 450 -175 379 -228 q 538 -26 521 -122 l 558 93 q 349 -17 483 -17 q 186 62 247 -17 q 125 274 125 140 q 222 601 125 475 q 468 726 318 726 q 653 625 590 726 l 668 710 l 740 710 l 611 -22 q 563 -157 597 -103 q 477 -240 529 -211 q 372 -280 425 -268 q 250 -296 319 -292 l 226 -236 m 367 53 q 485 91 431 53 q 576 189 540 129 l 636 536 q 572 625 617 592 q 468 658 526 658 q 273 551 344 658 q 201 282 201 444 q 247 114 201 175 q 367 53 293 53 z "},"Ġ":{"ha":917,"x_min":164,"x_max":892,"o":"m 649 1063 q 618 1076 631 1063 q 606 1108 606 1089 q 626 1151 607 1133 q 668 1169 644 1169 q 699 1156 688 1169 q 711 1124 711 1143 q 692 1081 711 1099 q 649 1063 674 1063 m 475 -17 q 297 40 369 -17 q 194 180 225 96 q 164 368 164 264 q 194 594 164 485 q 283 793 225 704 q 433 935 340 882 q 639 989 525 989 q 892 844 818 989 l 824 807 q 626 921 767 921 q 457 870 533 921 q 335 738 381 819 q 265 563 289 657 q 240 376 240 469 q 299 145 240 238 q 478 53 358 53 q 663 128 588 53 q 764 343 738 203 l 769 381 l 588 381 l 599 449 l 860 449 l 844 363 q 712 77 810 171 q 475 -17 614 -17 z "},"ġ":{"ha":749,"x_min":125,"x_max":740,"o":"m 492 840 q 461 853 474 840 q 449 886 449 867 q 469 929 450 911 q 511 947 488 947 q 542 934 531 947 q 554 901 554 921 q 535 858 554 876 q 492 840 517 840 m 226 -236 q 450 -175 379 -228 q 538 -26 521 -122 l 558 93 q 349 -17 483 -17 q 186 62 247 -17 q 125 274 125 140 q 222 601 125 475 q 468 726 318 726 q 653 625 590 726 l 668 710 l 740 710 l 611 -22 q 563 -157 597 -103 q 477 -240 529 -211 q 372 -280 425 -268 q 250 -296 319 -292 l 226 -236 m 367 53 q 485 91 431 53 q 576 189 540 129 l 636 536 q 572 625 617 592 q 468 658 526 658 q 273 551 344 658 q 201 282 201 444 q 247 114 201 175 q 367 53 293 53 z "},"Ģ":{"ha":917,"x_min":164,"x_max":892,"o":"m 475 -17 q 297 40 369 -17 q 194 180 225 96 q 164 368 164 264 q 194 594 164 485 q 283 793 225 704 q 433 935 340 882 q 639 989 525 989 q 892 844 818 989 l 824 807 q 626 921 767 921 q 457 870 533 921 q 335 738 381 819 q 265 563 289 657 q 240 376 240 469 q 299 145 240 238 q 478 53 358 53 q 663 128 588 53 q 764 343 738 203 l 769 381 l 588 381 l 599 449 l 860 449 l 844 363 q 712 77 810 171 q 475 -17 614 -17 m 396 -340 l 378 -335 q 450 -197 439 -269 q 414 -183 426 -197 q 401 -149 401 -169 q 421 -100 401 -119 q 467 -81 440 -81 q 501 -96 488 -81 q 515 -139 515 -111 q 481 -249 515 -193 q 396 -340 447 -306 z "},"ģ":{"ha":749,"x_min":125,"x_max":740,"o":"m 497 836 q 444 900 444 836 q 479 1006 444 950 q 564 1096 514 1063 l 583 1090 q 511 953 522 1025 q 547 939 533 953 q 560 904 560 925 q 542 855 560 874 q 497 836 524 836 m 226 -236 q 450 -175 379 -228 q 538 -26 521 -122 l 558 93 q 349 -17 483 -17 q 186 62 247 -17 q 125 274 125 140 q 222 601 125 475 q 468 726 318 726 q 653 625 590 726 l 668 710 l 740 710 l 611 -22 q 563 -157 597 -103 q 477 -240 529 -211 q 372 -280 425 -268 q 250 -296 319 -292 l 226 -236 m 367 53 q 485 91 431 53 q 576 189 540 129 l 636 536 q 572 625 617 592 q 468 658 526 658 q 273 551 344 658 q 201 282 201 444 q 247 114 201 175 q 367 53 293 53 z "},"Ĥ":{"ha":913,"x_min":131,"x_max":931,"o":"m 792 1021 l 651 1175 l 457 1021 l 386 1021 l 624 1238 l 699 1238 l 860 1021 l 792 1021 m 131 0 l 301 972 l 375 972 l 300 540 l 781 540 l 856 972 l 931 972 l 760 0 l 685 0 l 768 471 l 288 471 l 206 0 l 131 0 z "},"ĥ":{"ha":744,"x_min":118,"x_max":782,"o":"m 714 1063 l 574 1217 l 379 1063 l 308 1063 l 546 1279 l 621 1279 l 782 1063 l 714 1063 m 118 0 l 289 969 l 368 1003 l 297 606 q 507 726 375 726 q 699 526 699 726 q 688 414 699 478 l 615 0 l 543 0 l 619 436 q 626 517 626 488 q 590 625 626 590 q 492 660 554 660 q 265 424 308 660 l 192 0 l 118 0 z "},"Ħ":{"ha":913,"x_min":131,"x_max":1022,"o":"m 685 0 l 768 471 l 288 471 l 204 0 l 131 0 l 261 750 l 144 750 l 157 819 l 275 819 l 301 972 l 375 972 l 349 819 l 829 819 l 856 972 l 931 972 l 904 819 l 1022 819 l 1010 750 l 892 750 l 760 0 l 685 0 m 781 540 l 818 750 l 338 750 l 300 540 l 781 540 z "},"ħ":{"ha":744,"x_min":118,"x_max":690,"o":"m 543 0 l 610 386 q 618 467 618 433 q 581 579 618 546 q 486 613 543 613 q 258 378 300 613 l 192 0 l 118 0 l 256 779 l 165 779 l 176 846 l 267 846 l 289 969 l 368 1003 l 340 846 l 550 846 l 539 779 l 328 779 l 289 560 q 499 681 368 681 q 690 478 690 681 q 679 367 690 433 l 615 0 l 543 0 z "},"Ĩ":{"ha":351,"x_min":129,"x_max":614,"o":"m 468 1057 q 354 1103 418 1057 q 256 1149 290 1149 q 205 1126 226 1149 q 174 1063 183 1103 l 129 1063 q 178 1175 140 1135 q 274 1215 215 1215 q 389 1169 325 1215 q 486 1124 453 1124 q 569 1210 547 1124 l 614 1210 q 468 1057 586 1057 m 131 0 l 301 972 l 375 972 l 204 0 l 131 0 z "},"ĩ":{"ha":326,"x_min":78,"x_max":563,"o":"m 417 835 q 303 881 367 835 q 204 926 239 926 q 153 903 175 926 q 122 840 132 881 l 78 840 q 126 953 89 913 q 222 993 164 993 q 336 947 272 993 q 435 901 400 901 q 486 924 464 901 q 518 988 508 946 l 563 988 q 417 835 535 835 m 119 0 l 244 710 l 315 710 l 190 0 l 119 0 z "},"Ī":{"ha":351,"x_min":131,"x_max":593,"o":"m 132 1076 l 144 1142 l 593 1142 l 582 1076 l 132 1076 m 131 0 l 301 972 l 375 972 l 204 0 l 131 0 z "},"ī":{"ha":326,"x_min":81,"x_max":542,"o":"m 81 854 l 93 919 l 542 919 l 531 854 l 81 854 m 119 0 l 244 710 l 315 710 l 190 0 l 119 0 z "},"Ĭ":{"ha":351,"x_min":131,"x_max":618,"o":"m 347 1028 q 193 1079 244 1028 q 142 1207 142 1131 q 144 1251 142 1236 l 211 1251 q 208 1218 208 1229 q 353 1094 208 1094 q 479 1136 424 1094 q 549 1251 535 1178 l 618 1251 q 532 1090 600 1151 q 347 1028 464 1028 m 131 0 l 301 972 l 375 972 l 204 0 l 131 0 z "},"ĭ":{"ha":326,"x_min":90,"x_max":567,"o":"m 296 806 q 142 857 193 806 q 90 985 90 908 q 93 1029 90 1014 l 160 1029 q 157 996 157 1007 q 301 872 157 872 q 428 914 372 872 q 497 1029 483 956 l 567 1029 q 481 867 549 929 q 296 806 413 806 m 119 0 l 244 710 l 315 710 l 190 0 l 119 0 z "},"Į":{"ha":351,"x_min":-36,"x_max":375,"o":"m 83 -325 q -2 -297 32 -325 q -36 -215 -36 -268 q 11 -91 -36 -147 q 132 3 58 -35 l 301 972 l 375 972 l 204 0 q 79 -85 128 -31 q 31 -201 31 -140 q 50 -253 31 -236 q 97 -271 69 -271 q 185 -232 142 -271 l 221 -264 q 83 -325 160 -325 z "},"į":{"ha":328,"x_min":-44,"x_max":371,"o":"m 310 868 q 278 881 290 868 q 267 913 267 893 q 285 956 267 938 q 328 975 303 975 q 359 962 347 975 q 371 929 371 949 q 353 885 371 903 q 310 868 335 868 m 74 -325 q -11 -297 22 -325 q -44 -215 -44 -268 q 0 -94 -44 -151 q 121 1 44 -36 l 246 710 l 318 710 l 194 0 q 67 -90 111 -35 q 22 -201 22 -144 q 41 -253 22 -235 q 88 -271 60 -271 q 176 -232 131 -271 l 213 -264 q 74 -325 154 -325 z "},"İ":{"ha":351,"x_min":131,"x_max":417,"o":"m 354 1063 q 324 1076 336 1063 q 311 1108 311 1089 q 331 1151 313 1133 q 374 1169 350 1169 q 405 1156 393 1169 q 417 1124 417 1143 q 398 1081 417 1099 q 354 1063 379 1063 m 131 0 l 301 972 l 375 972 l 204 0 l 131 0 z "},"ı":{"ha":326,"x_min":119,"x_max":315,"o":"m 119 0 l 244 710 l 315 710 l 190 0 l 119 0 z "},"Ĳ":{"ha":1051,"x_min":131,"x_max":1071,"o":"m 131 0 l 301 972 l 375 972 l 204 0 l 131 0 m 636 -17 q 488 30 547 -17 q 406 150 428 76 l 468 178 q 636 51 510 51 q 881 310 835 51 l 996 972 l 1071 972 l 954 307 q 636 -17 897 -17 z "},"ĳ":{"ha":718,"x_min":119,"x_max":751,"o":"m 307 861 q 276 874 288 861 q 264 906 264 886 q 281 949 264 931 q 324 968 299 968 q 356 955 344 968 q 368 922 368 942 q 350 879 368 897 q 307 861 332 861 m 692 861 q 660 874 672 861 q 647 906 647 886 q 665 949 647 931 q 707 968 683 968 q 740 955 728 968 q 751 922 751 942 q 734 879 751 897 q 692 861 717 861 m 119 0 l 244 710 l 318 710 l 193 0 l 119 0 m 321 -299 l 296 -236 q 433 -190 390 -226 q 490 -69 475 -153 l 628 710 l 701 710 l 564 -75 q 480 -243 542 -196 q 321 -299 418 -290 z "},"Ĵ":{"ha":714,"x_min":68,"x_max":940,"o":"m 872 1021 l 732 1175 l 538 1021 l 467 1021 l 704 1238 l 779 1238 l 940 1021 l 872 1021 m 299 -17 q 150 30 210 -17 q 68 150 90 76 l 131 178 q 299 51 172 51 q 543 310 497 51 l 658 972 l 733 972 l 617 307 q 299 -17 560 -17 z "},"ĵ":{"ha":336,"x_min":-86,"x_max":535,"o":"m 467 799 l 326 953 l 132 799 l 61 799 l 299 1015 l 374 1015 l 535 799 l 467 799 m -61 -299 l -86 -236 q 51 -190 8 -226 q 108 -69 93 -153 l 246 710 l 319 710 l 182 -75 q 98 -243 160 -196 q -61 -299 36 -290 z "},"Ķ":{"ha":846,"x_min":131,"x_max":847,"o":"m 678 0 l 475 579 l 267 358 l 204 0 l 131 0 l 301 972 l 375 972 l 288 471 l 761 972 l 847 972 l 531 638 l 754 0 l 678 0 m 351 -340 l 333 -335 q 406 -197 394 -269 q 369 -183 382 -197 q 357 -149 357 -169 q 376 -100 357 -119 q 422 -81 396 -81 q 457 -96 443 -81 q 471 -139 471 -111 q 437 -249 471 -193 q 351 -340 403 -306 z "},"ķ":{"ha":675,"x_min":118,"x_max":672,"o":"m 461 514 l 631 0 l 550 0 l 404 460 l 247 314 l 192 0 l 118 0 l 289 969 l 368 1003 l 264 411 l 585 710 l 672 710 l 461 514 m 283 -340 l 265 -335 q 338 -197 326 -269 q 301 -183 314 -197 q 289 -149 289 -169 q 308 -100 289 -119 q 354 -81 328 -81 q 389 -96 375 -81 q 403 -139 403 -111 q 369 -249 403 -193 q 283 -340 335 -306 z "},"ĸ":{"ha":694,"x_min":119,"x_max":744,"o":"m 574 0 l 438 388 l 219 160 l 192 0 l 119 0 l 243 710 l 315 710 l 238 264 l 660 710 l 744 710 l 497 450 l 656 0 l 574 0 z "},"Ĺ":{"ha":731,"x_min":131,"x_max":682,"o":"m 357 1021 l 283 1021 l 521 1238 l 631 1238 l 357 1021 m 131 0 l 301 972 l 375 972 l 217 69 l 682 69 l 669 0 l 131 0 z "},"ĺ":{"ha":329,"x_min":121,"x_max":592,"o":"m 318 1050 l 244 1050 l 482 1267 l 592 1267 l 318 1050 m 121 0 l 292 969 l 371 1003 l 196 0 l 121 0 z "},"Ļ":{"ha":731,"x_min":131,"x_max":682,"o":"m 131 0 l 301 972 l 375 972 l 217 69 l 682 69 l 669 0 l 131 0 m 324 -340 l 306 -335 q 378 -197 367 -269 q 342 -183 354 -197 q 329 -149 329 -169 q 349 -100 329 -119 q 394 -81 368 -81 q 429 -96 415 -81 q 443 -139 443 -111 q 409 -249 443 -193 q 324 -340 375 -306 z "},"ļ":{"ha":329,"x_min":54,"x_max":371,"o":"m 121 0 l 292 969 l 371 1003 l 196 0 l 121 0 m 72 -340 l 54 -335 q 126 -197 115 -269 q 90 -183 103 -197 q 78 -149 78 -169 q 97 -100 78 -119 q 143 -81 117 -81 q 178 -96 164 -81 q 192 -139 192 -111 q 158 -249 192 -193 q 72 -340 124 -306 z "},"Ľ":{"ha":731,"x_min":131,"x_max":682,"o":"m 383 1021 l 307 1021 l 147 1238 l 214 1238 l 354 1085 l 550 1238 l 621 1238 l 383 1021 m 131 0 l 301 972 l 375 972 l 217 69 l 682 69 l 669 0 l 131 0 z "},"ľ":{"ha":521,"x_min":121,"x_max":628,"o":"m 121 0 l 292 969 l 371 1003 l 196 0 l 121 0 m 628 989 l 624 969 q 481 672 588 772 l 463 688 q 556 989 521 782 l 628 989 z "},"Ŀ":{"ha":731,"x_min":131,"x_max":682,"o":"m 350 1063 q 319 1076 332 1063 q 307 1108 307 1089 q 327 1151 308 1133 q 369 1169 346 1169 q 401 1156 389 1169 q 413 1124 413 1143 q 394 1081 413 1099 q 350 1063 375 1063 m 131 0 l 301 972 l 375 972 l 217 69 l 682 69 l 669 0 l 131 0 z "},"ŀ":{"ha":536,"x_min":121,"x_max":533,"o":"m 121 0 l 292 969 l 371 1003 l 196 0 l 121 0 m 471 371 q 440 384 453 371 q 428 417 428 397 q 448 460 429 442 q 490 478 467 478 q 522 465 510 478 q 533 432 533 451 q 515 389 533 407 q 471 371 496 371 z "},"Ł":{"ha":731,"x_min":85,"x_max":682,"o":"m 131 0 l 201 397 l 85 318 l 100 399 l 215 478 l 303 972 l 375 972 l 299 539 l 482 665 l 467 583 l 285 457 l 217 69 l 682 69 l 669 0 l 131 0 z "},"ł":{"ha":329,"x_min":79,"x_max":399,"o":"m 92 386 l 203 463 l 292 969 l 371 1003 l 286 518 l 399 594 l 386 526 l 275 450 l 196 0 l 121 0 l 192 396 l 79 318 l 92 386 z "},"Ń":{"ha":929,"x_min":129,"x_max":947,"o":"m 643 1021 l 569 1021 l 807 1238 l 917 1238 l 643 1021 m 129 0 l 300 972 l 369 972 l 682 233 q 703 182 688 221 q 725 131 719 143 q 733 177 726 138 q 743 233 740 217 l 874 972 l 947 972 l 776 0 l 703 0 l 403 710 q 350 836 397 725 l 328 708 l 204 0 l 129 0 z "},"ń":{"ha":744,"x_min":118,"x_max":794,"o":"m 521 799 l 447 799 l 685 1015 l 794 1015 l 521 799 m 118 0 l 243 710 l 315 710 l 297 607 q 508 726 375 726 q 649 674 599 726 q 699 519 699 621 q 689 408 699 465 l 617 0 l 543 0 l 617 426 q 625 515 625 468 q 590 624 625 588 q 493 660 556 660 q 347 599 408 660 q 265 422 285 539 l 192 0 l 118 0 z "},"Ņ":{"ha":929,"x_min":129,"x_max":947,"o":"m 129 0 l 300 972 l 369 972 l 682 233 q 703 182 688 221 q 725 131 719 143 q 733 177 726 138 q 743 233 740 217 l 874 972 l 947 972 l 776 0 l 703 0 l 403 710 q 350 836 397 725 l 328 708 l 204 0 l 129 0 m 367 -340 l 349 -335 q 421 -197 410 -269 q 385 -183 397 -197 q 372 -149 372 -169 q 392 -100 372 -119 q 438 -81 411 -81 q 472 -96 458 -81 q 486 -139 486 -111 q 452 -249 486 -193 q 367 -340 418 -306 z "},"ņ":{"ha":744,"x_min":118,"x_max":699,"o":"m 118 0 l 243 710 l 315 710 l 297 607 q 508 726 375 726 q 649 674 599 726 q 699 519 699 621 q 689 408 699 465 l 617 0 l 543 0 l 617 426 q 625 515 625 468 q 590 624 625 588 q 493 660 556 660 q 347 599 408 660 q 265 422 285 539 l 192 0 l 118 0 m 285 -333 l 267 -328 q 339 -190 328 -262 q 303 -176 315 -190 q 290 -142 290 -162 q 310 -93 290 -112 q 356 -74 329 -74 q 390 -89 376 -74 q 404 -132 404 -104 q 370 -242 404 -186 q 285 -333 336 -299 z "},"Ň":{"ha":929,"x_min":129,"x_max":947,"o":"m 669 1021 l 593 1021 l 433 1238 l 500 1238 l 640 1085 l 836 1238 l 907 1238 l 669 1021 m 129 0 l 300 972 l 369 972 l 682 233 q 703 182 688 221 q 725 131 719 143 q 733 177 726 138 q 743 233 740 217 l 874 972 l 947 972 l 776 0 l 703 0 l 403 710 q 350 836 397 725 l 328 708 l 204 0 l 129 0 z "},"ň":{"ha":744,"x_min":118,"x_max":785,"o":"m 547 799 l 471 799 l 311 1015 l 378 1015 l 518 863 l 714 1015 l 785 1015 l 547 799 m 118 0 l 243 710 l 315 710 l 297 607 q 508 726 375 726 q 649 674 599 726 q 699 519 699 621 q 689 408 699 465 l 617 0 l 543 0 l 617 426 q 625 515 625 468 q 590 624 625 588 q 493 660 556 660 q 347 599 408 660 q 265 422 285 539 l 192 0 l 118 0 z "},"ŉ":{"ha":1036,"x_min":206,"x_max":990,"o":"m 224 686 l 206 692 q 260 766 233 719 q 290 858 286 813 q 247 874 264 858 q 231 914 231 889 q 251 968 231 947 q 303 989 272 989 q 344 971 328 989 q 361 919 361 953 q 320 789 361 854 q 224 686 279 724 m 410 0 l 535 710 l 607 710 l 589 607 q 800 726 667 726 q 940 674 890 726 q 990 519 990 621 q 981 408 990 465 l 908 0 l 835 0 l 908 426 q 917 515 917 468 q 882 624 917 588 q 785 660 847 660 q 638 599 700 660 q 557 422 576 539 l 483 0 l 410 0 z "},"Ŋ":{"ha":929,"x_min":129,"x_max":947,"o":"m 515 -339 l 490 -278 q 625 -231 582 -269 q 682 -111 668 -192 l 701 4 l 403 710 l 350 836 q 338 767 347 818 q 328 708 329 717 l 204 0 l 129 0 l 300 972 l 369 972 l 682 233 l 725 131 q 743 233 739 201 l 874 972 l 947 972 l 756 -122 q 657 -297 733 -246 q 515 -339 601 -332 z "},"ŋ":{"ha":746,"x_min":118,"x_max":699,"o":"m 338 -236 q 473 -189 431 -226 q 531 -71 515 -151 l 617 425 q 625 513 625 469 q 489 660 625 660 q 347 600 410 660 q 265 422 285 540 l 192 0 l 118 0 l 243 710 l 315 710 l 297 607 q 392 697 336 667 q 506 726 449 726 q 649 672 600 726 q 699 515 699 617 q 689 408 699 463 l 604 -75 q 525 -239 583 -187 q 361 -299 467 -290 l 338 -236 z "},"Ō":{"ha":964,"x_min":164,"x_max":946,"o":"m 428 1076 l 440 1142 l 889 1142 l 878 1076 l 428 1076 m 476 -17 q 297 40 369 -17 q 194 182 224 97 q 164 371 164 267 q 193 582 164 476 q 277 781 222 688 q 426 931 332 874 q 638 989 521 989 q 781 957 719 989 q 877 869 842 925 q 929 748 913 814 q 946 606 946 682 q 929 435 946 521 q 875 268 913 350 q 784 124 838 186 q 651 22 731 61 q 476 -17 571 -17 m 479 53 q 656 105 578 53 q 778 240 733 157 q 847 417 824 324 q 871 606 871 511 q 813 831 871 740 q 633 921 756 921 q 456 869 535 921 q 332 733 378 817 q 263 556 286 650 q 239 368 239 463 q 297 142 239 231 q 479 53 356 53 z "},"ō":{"ha":728,"x_min":125,"x_max":739,"o":"m 278 854 l 290 919 l 739 919 l 728 854 l 278 854 m 363 -17 q 186 61 247 -17 q 125 271 125 139 q 219 594 125 461 q 475 726 314 726 q 653 647 592 726 q 714 442 714 568 q 621 117 714 250 q 363 -17 528 -17 m 367 53 q 567 165 494 53 q 639 438 639 278 q 597 597 639 536 q 474 658 554 658 q 273 544 344 658 q 201 269 201 431 q 243 112 201 171 q 367 53 285 53 z "},"Ŏ":{"ha":964,"x_min":164,"x_max":946,"o":"m 643 1028 q 489 1079 540 1028 q 438 1207 438 1131 q 440 1251 438 1236 l 507 1251 q 504 1218 504 1229 q 649 1094 504 1094 q 775 1136 719 1094 q 844 1251 831 1178 l 914 1251 q 828 1090 896 1151 q 643 1028 760 1028 m 476 -17 q 297 40 369 -17 q 194 182 224 97 q 164 371 164 267 q 193 582 164 476 q 277 781 222 688 q 426 931 332 874 q 638 989 521 989 q 781 957 719 989 q 877 869 842 925 q 929 748 913 814 q 946 606 946 682 q 929 435 946 521 q 875 268 913 350 q 784 124 838 186 q 651 22 731 61 q 476 -17 571 -17 m 479 53 q 656 105 578 53 q 778 240 733 157 q 847 417 824 324 q 871 606 871 511 q 813 831 871 740 q 633 921 756 921 q 456 869 535 921 q 332 733 378 817 q 263 556 286 650 q 239 368 239 463 q 297 142 239 231 q 479 53 356 53 z "},"ŏ":{"ha":728,"x_min":125,"x_max":764,"o":"m 493 806 q 339 857 390 806 q 288 985 288 908 q 290 1029 288 1014 l 357 1029 q 354 996 354 1007 q 499 872 354 872 q 625 914 569 872 q 694 1029 681 956 l 764 1029 q 678 867 746 929 q 493 806 610 806 m 363 -17 q 186 61 247 -17 q 125 271 125 139 q 219 594 125 461 q 475 726 314 726 q 653 647 592 726 q 714 442 714 568 q 621 117 714 250 q 363 -17 528 -17 m 367 53 q 567 165 494 53 q 639 438 639 278 q 597 597 639 536 q 474 658 554 658 q 273 544 344 658 q 201 269 201 431 q 243 112 201 171 q 367 53 285 53 z "},"Ő":{"ha":964,"x_min":164,"x_max":1068,"o":"m 451 1021 l 689 1238 l 799 1238 l 524 1021 l 451 1021 m 721 1021 l 958 1238 l 1068 1238 l 793 1021 l 721 1021 m 476 -17 q 297 40 369 -17 q 194 182 224 97 q 164 371 164 267 q 193 582 164 476 q 277 781 222 688 q 426 931 332 874 q 638 989 521 989 q 781 957 719 989 q 877 869 842 925 q 929 748 913 814 q 946 606 946 682 q 929 435 946 521 q 875 268 913 350 q 784 124 838 186 q 651 22 731 61 q 476 -17 571 -17 m 479 53 q 656 105 578 53 q 778 240 733 157 q 847 417 824 324 q 871 606 871 511 q 813 831 871 740 q 633 921 756 921 q 456 869 535 921 q 332 733 378 817 q 263 556 286 650 q 239 368 239 463 q 297 142 239 231 q 479 53 356 53 z "},"ő":{"ha":728,"x_min":125,"x_max":918,"o":"m 301 799 l 539 1015 l 649 1015 l 374 799 l 301 799 m 571 799 l 808 1015 l 918 1015 l 643 799 l 571 799 m 363 -17 q 186 61 247 -17 q 125 271 125 139 q 219 594 125 461 q 475 726 314 726 q 653 647 592 726 q 714 442 714 568 q 621 117 714 250 q 363 -17 528 -17 m 367 53 q 567 165 494 53 q 639 438 639 278 q 597 597 639 536 q 474 658 554 658 q 273 544 344 658 q 201 269 201 431 q 243 112 201 171 q 367 53 285 53 z "},"Œ":{"ha":1235,"x_min":164,"x_max":1261,"o":"m 475 -17 q 295 42 368 -17 q 193 183 222 100 q 164 368 164 267 q 181 538 164 453 q 236 704 199 622 q 328 849 274 786 q 463 950 382 911 q 639 989 543 989 q 807 938 742 989 l 813 972 l 1261 972 l 1250 906 l 876 906 l 811 538 l 1040 538 l 1028 471 l 799 471 l 728 67 l 1132 67 l 1121 0 l 643 0 l 647 22 q 475 -17 572 -17 m 479 53 q 661 107 581 53 l 793 857 q 633 921 729 921 q 456 869 535 921 q 332 733 378 817 q 263 557 286 650 q 239 371 239 464 q 297 143 239 233 q 479 53 354 53 z "},"œ":{"ha":1199,"x_min":125,"x_max":1197,"o":"m 363 -17 q 186 61 247 -17 q 125 271 125 139 q 217 591 125 456 q 475 726 310 726 q 619 681 563 726 q 696 553 675 636 q 815 681 742 636 q 971 726 888 726 q 1136 665 1075 726 q 1197 478 1197 604 q 1174 328 1197 408 l 703 328 q 700 279 700 294 q 872 54 700 54 q 1038 113 953 54 l 1072 58 q 860 -17 971 -17 q 719 29 775 -17 q 643 156 664 75 q 363 -17 549 -17 m 713 394 l 1114 394 q 1124 481 1124 442 q 1079 619 1124 578 q 971 660 1035 660 q 805 588 872 660 q 713 394 738 517 m 367 53 q 565 165 492 53 q 639 438 639 276 q 598 597 639 535 q 474 658 557 658 q 274 545 346 658 q 201 269 201 432 q 243 112 201 171 q 367 53 285 53 z "},"Ŕ":{"ha":874,"x_min":131,"x_max":872,"o":"m 597 1021 l 524 1021 l 761 1238 l 871 1238 l 597 1021 m 872 738 q 794 544 872 622 q 582 451 717 465 l 731 0 l 653 0 l 506 447 l 283 447 l 204 0 l 131 0 l 301 972 l 610 972 q 809 903 746 972 q 872 738 872 833 m 531 514 q 727 575 656 514 q 799 736 799 636 q 755 856 799 806 q 611 906 711 906 l 364 906 l 296 514 l 531 514 z "},"ŕ":{"ha":510,"x_min":118,"x_max":711,"o":"m 438 799 l 364 799 l 601 1015 l 711 1015 l 438 799 m 118 0 l 243 710 l 315 710 l 293 585 q 396 691 339 656 q 507 726 453 726 q 596 697 564 726 l 572 629 q 486 653 535 653 q 351 588 419 653 q 261 397 283 524 l 192 0 l 118 0 z "},"Ŗ":{"ha":874,"x_min":131,"x_max":872,"o":"m 872 738 q 794 544 872 622 q 582 451 717 465 l 731 0 l 653 0 l 506 447 l 283 447 l 204 0 l 131 0 l 301 972 l 610 972 q 809 903 746 972 q 872 738 872 833 m 531 514 q 727 575 656 514 q 799 736 799 636 q 755 856 799 806 q 611 906 711 906 l 364 906 l 296 514 l 531 514 m 343 -340 l 325 -335 q 397 -197 386 -269 q 361 -183 374 -197 q 349 -149 349 -169 q 368 -100 349 -119 q 414 -81 388 -81 q 449 -96 435 -81 q 463 -139 463 -111 q 428 -249 463 -193 q 343 -340 394 -306 z "},"ŗ":{"ha":510,"x_min":51,"x_max":596,"o":"m 118 0 l 243 710 l 315 710 l 293 585 q 396 691 339 656 q 507 726 453 726 q 596 697 564 726 l 572 629 q 486 653 535 653 q 351 588 419 653 q 261 397 283 524 l 192 0 l 118 0 m 69 -340 l 51 -335 q 124 -197 113 -269 q 88 -183 100 -197 q 75 -149 75 -169 q 94 -100 75 -119 q 140 -81 114 -81 q 175 -96 161 -81 q 189 -139 189 -111 q 155 -249 189 -193 q 69 -340 121 -306 z "},"Ř":{"ha":874,"x_min":131,"x_max":872,"o":"m 624 1021 l 547 1021 l 388 1238 l 454 1238 l 594 1085 l 790 1238 l 861 1238 l 624 1021 m 872 738 q 794 544 872 622 q 582 451 717 465 l 731 0 l 653 0 l 506 447 l 283 447 l 204 0 l 131 0 l 301 972 l 610 972 q 809 903 746 972 q 872 738 872 833 m 531 514 q 727 575 656 514 q 799 736 799 636 q 755 856 799 806 q 611 906 711 906 l 364 906 l 296 514 l 531 514 z "},"ř":{"ha":510,"x_min":118,"x_max":701,"o":"m 464 799 l 388 799 l 228 1015 l 294 1015 l 435 863 l 631 1015 l 701 1015 l 464 799 m 118 0 l 243 710 l 315 710 l 293 585 q 396 691 339 656 q 507 726 453 726 q 596 697 564 726 l 572 629 q 486 653 535 653 q 351 588 419 653 q 261 397 283 524 l 192 0 l 118 0 z "},"Ś":{"ha":793,"x_min":122,"x_max":828,"o":"m 554 1021 l 481 1021 l 718 1238 l 828 1238 l 554 1021 m 707 808 q 532 921 668 921 q 376 873 433 921 q 319 746 319 825 q 342 669 319 703 q 400 614 364 636 q 479 570 436 592 q 565 524 522 549 q 644 470 608 500 q 703 393 681 440 q 725 285 725 346 q 633 64 725 144 q 399 -17 540 -17 q 217 40 290 -17 q 122 185 144 97 l 192 210 q 406 51 243 51 q 581 111 514 51 q 647 276 647 171 q 606 392 647 344 q 505 471 564 440 q 386 533 446 501 q 285 616 326 564 q 243 742 243 668 q 324 918 243 847 q 536 989 406 989 q 694 946 631 989 q 775 835 758 903 l 707 808 z "},"ś":{"ha":610,"x_min":93,"x_max":697,"o":"m 424 799 l 350 799 l 588 1015 l 697 1015 l 424 799 m 315 -17 q 93 99 171 -17 l 150 144 q 318 50 214 50 q 437 87 392 50 q 482 189 482 124 q 449 269 482 236 q 371 323 417 301 q 278 367 325 344 q 199 432 232 390 q 167 533 167 474 q 231 672 167 618 q 397 726 296 726 q 603 629 538 726 l 550 588 q 393 660 489 660 q 281 624 325 660 q 238 535 238 589 q 270 463 238 493 q 350 413 303 433 q 444 367 397 392 q 523 299 490 343 q 556 190 556 254 q 491 40 556 97 q 315 -17 426 -17 z "},"Ŝ":{"ha":793,"x_min":122,"x_max":776,"o":"m 708 1021 l 568 1175 l 374 1021 l 303 1021 l 540 1238 l 615 1238 l 776 1021 l 708 1021 m 707 808 q 532 921 668 921 q 376 873 433 921 q 319 746 319 825 q 342 669 319 703 q 400 614 364 636 q 479 570 436 592 q 565 524 522 549 q 644 470 608 500 q 703 393 681 440 q 725 285 725 346 q 633 64 725 144 q 399 -17 540 -17 q 217 40 290 -17 q 122 185 144 97 l 192 210 q 406 51 243 51 q 581 111 514 51 q 647 276 647 171 q 606 392 647 344 q 505 471 564 440 q 386 533 446 501 q 285 616 326 564 q 243 742 243 668 q 324 918 243 847 q 536 989 406 989 q 694 946 631 989 q 775 835 758 903 l 707 808 z "},"ŝ":{"ha":610,"x_min":93,"x_max":646,"o":"m 578 799 l 438 953 l 243 799 l 172 799 l 410 1015 l 485 1015 l 646 799 l 578 799 m 315 -17 q 93 99 171 -17 l 150 144 q 318 50 214 50 q 437 87 392 50 q 482 189 482 124 q 449 269 482 236 q 371 323 417 301 q 278 367 325 344 q 199 432 232 390 q 167 533 167 474 q 231 672 167 618 q 397 726 296 726 q 603 629 538 726 l 550 588 q 393 660 489 660 q 281 624 325 660 q 238 535 238 589 q 270 463 238 493 q 350 413 303 433 q 444 367 397 392 q 523 299 490 343 q 556 190 556 254 q 491 40 556 97 q 315 -17 426 -17 z "},"Ş":{"ha":793,"x_min":122,"x_max":775,"o":"m 336 -325 q 233 -281 268 -325 l 285 -250 q 339 -272 307 -272 q 404 -247 378 -272 q 431 -186 431 -222 q 410 -137 431 -156 q 357 -119 390 -119 q 306 -128 324 -119 l 293 -110 l 378 -17 q 210 45 278 -11 q 122 185 143 101 l 192 210 q 406 51 243 51 q 581 111 514 51 q 647 276 647 171 q 606 392 647 344 q 505 471 564 440 q 386 533 446 501 q 285 616 326 564 q 243 742 243 668 q 324 918 243 847 q 536 989 406 989 q 694 946 631 989 q 775 835 758 903 l 707 808 q 532 921 668 921 q 376 873 433 921 q 319 746 319 825 q 342 669 319 703 q 400 614 364 636 q 479 570 436 592 q 565 524 522 549 q 644 470 608 500 q 703 393 681 440 q 725 285 725 346 q 642 72 725 151 q 426 -17 558 -8 l 379 -79 q 469 -108 440 -79 q 499 -179 499 -137 q 453 -284 499 -243 q 336 -325 407 -325 z "},"ş":{"ha":610,"x_min":93,"x_max":603,"o":"m 350 -284 q 327 -305 350 -284 q 233 -325 304 -325 q 131 -281 163 -325 l 181 -250 q 236 -272 203 -272 q 301 -247 275 -272 q 328 -186 328 -222 q 308 -137 328 -156 q 254 -119 288 -119 q 203 -128 219 -119 l 190 -110 l 276 -14 q 93 99 158 1 l 150 144 q 318 50 214 50 q 437 87 392 50 q 482 189 482 124 q 449 268 482 235 q 371 323 417 301 q 278 367 325 344 q 199 432 232 390 q 167 533 167 474 q 231 672 167 618 q 397 726 296 726 q 603 629 538 726 l 550 588 q 393 660 489 660 q 281 624 325 660 q 238 535 238 589 q 270 463 238 493 q 350 412 303 432 q 444 367 397 392 q 523 299 490 343 q 556 190 556 254 q 493 41 556 97 q 324 -17 431 -15 l 276 -79 q 366 -108 336 -79 q 396 -179 396 -137 q 350 -284 396 -243 z "},"Š":{"ha":793,"x_min":122,"x_max":818,"o":"m 581 1021 l 504 1021 l 344 1238 l 411 1238 l 551 1085 l 747 1238 l 818 1238 l 581 1021 m 707 808 q 532 921 668 921 q 376 873 433 921 q 319 746 319 825 q 342 669 319 703 q 400 614 364 636 q 479 570 436 592 q 565 524 522 549 q 644 470 608 500 q 703 393 681 440 q 725 285 725 346 q 633 64 725 144 q 399 -17 540 -17 q 217 40 290 -17 q 122 185 144 97 l 192 210 q 406 51 243 51 q 581 111 514 51 q 647 276 647 171 q 606 392 647 344 q 505 471 564 440 q 386 533 446 501 q 285 616 326 564 q 243 742 243 668 q 324 918 243 847 q 536 989 406 989 q 694 946 631 989 q 775 835 758 903 l 707 808 z "},"š":{"ha":610,"x_min":93,"x_max":688,"o":"m 450 799 l 374 799 l 214 1015 l 281 1015 l 421 863 l 617 1015 l 688 1015 l 450 799 m 315 -17 q 93 99 171 -17 l 150 144 q 318 50 214 50 q 437 87 392 50 q 482 189 482 124 q 449 269 482 236 q 371 323 417 301 q 278 367 325 344 q 199 432 232 390 q 167 533 167 474 q 231 672 167 618 q 397 726 296 726 q 603 629 538 726 l 550 588 q 393 660 489 660 q 281 624 325 660 q 238 535 238 589 q 270 463 238 493 q 350 413 303 433 q 444 367 397 392 q 523 299 490 343 q 556 190 556 254 q 491 40 556 97 q 315 -17 426 -17 z "},"Ţ":{"ha":757,"x_min":188,"x_max":836,"o":"m 407 -284 q 384 -305 407 -284 q 290 -325 361 -325 q 188 -281 219 -325 l 238 -250 q 293 -272 260 -272 q 358 -247 332 -272 q 385 -186 385 -222 q 365 -137 385 -156 q 311 -119 344 -119 q 260 -128 276 -119 l 247 -110 l 346 0 l 333 0 l 493 906 l 236 906 l 247 972 l 836 972 l 825 906 l 567 906 l 407 0 l 392 0 l 333 -79 q 423 -108 393 -79 q 453 -179 453 -137 q 407 -284 453 -243 z "},"ţ":{"ha":483,"x_min":94,"x_max":528,"o":"m 197 -325 q 94 -281 129 -325 l 146 -250 q 200 -272 168 -272 q 265 -247 239 -272 q 292 -186 292 -222 q 272 -137 292 -156 q 218 -119 251 -119 q 167 -128 185 -119 l 154 -110 l 244 -10 q 176 100 176 13 q 183 161 176 122 l 268 643 l 151 643 l 163 710 l 279 710 l 325 969 l 404 1003 l 353 710 l 528 710 l 515 643 l 342 643 l 260 174 q 253 117 253 142 q 317 54 253 54 q 424 89 368 54 l 401 13 q 288 -17 349 -17 l 240 -79 q 331 -108 301 -79 q 360 -179 360 -137 q 314 -284 360 -243 q 197 -325 268 -325 z "},"Ť":{"ha":757,"x_min":236,"x_max":836,"o":"m 590 1021 l 514 1021 l 354 1238 l 421 1238 l 561 1085 l 757 1238 l 828 1238 l 590 1021 m 567 906 l 407 0 l 333 0 l 493 906 l 236 906 l 247 972 l 836 972 l 825 906 l 567 906 z "},"ť":{"ha":483,"x_min":151,"x_max":643,"o":"m 643 1167 l 639 1147 q 496 850 603 950 l 478 865 q 571 1167 536 960 l 643 1167 m 289 -17 q 205 15 233 -17 q 176 100 176 47 q 183 161 176 122 l 268 643 l 151 643 l 163 710 l 279 710 l 325 969 l 404 1003 l 353 710 l 528 710 l 515 643 l 342 643 l 260 174 q 253 117 253 142 q 317 54 253 54 q 424 89 368 54 l 401 13 q 289 -17 349 -17 z "},"Ŧ":{"ha":757,"x_min":217,"x_max":836,"o":"m 333 0 l 404 406 l 217 406 l 229 475 l 417 475 l 493 906 l 236 906 l 247 972 l 836 972 l 825 906 l 567 906 l 492 475 l 678 475 l 665 406 l 479 406 l 407 0 l 333 0 z "},"ŧ":{"ha":497,"x_min":117,"x_max":544,"o":"m 306 -17 q 222 15 250 -17 q 193 100 193 47 q 200 161 193 122 l 231 342 l 117 342 l 129 408 l 243 408 l 285 643 l 168 643 l 179 710 l 296 710 l 342 969 l 421 1003 l 369 710 l 544 710 l 532 643 l 358 643 l 317 408 l 490 408 l 479 342 l 306 342 l 276 174 q 269 117 269 142 q 333 54 269 54 q 440 89 385 54 l 418 13 q 306 -17 367 -17 z "},"Ũ":{"ha":897,"x_min":176,"x_max":921,"o":"m 735 1057 q 621 1103 685 1057 q 522 1149 557 1149 q 472 1126 493 1149 q 440 1063 450 1103 l 396 1063 q 444 1175 407 1135 q 540 1215 482 1215 q 656 1169 592 1215 q 753 1124 719 1124 q 836 1210 814 1124 l 881 1210 q 735 1057 853 1057 m 447 -17 q 251 51 325 -17 q 176 256 176 119 q 188 368 176 304 l 293 972 l 368 972 l 263 368 q 253 263 253 314 q 449 51 253 51 q 739 356 685 51 l 846 972 l 921 972 l 813 354 q 689 72 779 160 q 447 -17 599 -17 z "},"ũ":{"ha":744,"x_min":151,"x_max":761,"o":"m 615 835 q 501 881 565 835 q 403 926 438 926 q 352 903 374 926 q 321 840 331 881 l 276 840 q 325 953 288 913 q 421 993 363 993 q 536 947 472 993 q 633 901 600 901 q 717 988 694 901 l 761 988 q 615 835 733 835 m 536 0 l 553 96 q 351 -17 482 -17 q 202 37 253 -17 q 151 192 151 90 q 161 289 151 228 l 235 710 l 308 710 l 232 271 q 225 197 225 226 q 363 50 225 50 q 505 106 444 50 q 586 286 565 163 l 660 710 l 735 710 l 610 0 l 536 0 z "},"Ū":{"ha":897,"x_min":176,"x_max":921,"o":"m 399 1076 l 411 1142 l 860 1142 l 849 1076 l 399 1076 m 447 -17 q 251 51 325 -17 q 176 256 176 119 q 188 368 176 304 l 293 972 l 368 972 l 263 368 q 253 263 253 314 q 449 51 253 51 q 739 356 685 51 l 846 972 l 921 972 l 813 354 q 689 72 779 160 q 447 -17 599 -17 z "},"ū":{"ha":744,"x_min":151,"x_max":740,"o":"m 279 854 l 292 919 l 740 919 l 729 854 l 279 854 m 536 0 l 553 96 q 351 -17 482 -17 q 202 37 253 -17 q 151 192 151 90 q 161 289 151 228 l 235 710 l 308 710 l 232 271 q 225 197 225 226 q 363 50 225 50 q 505 106 444 50 q 586 286 565 163 l 660 710 l 735 710 l 610 0 l 536 0 z "},"Ŭ":{"ha":897,"x_min":176,"x_max":921,"o":"m 614 1028 q 460 1079 511 1028 q 408 1207 408 1131 q 411 1251 408 1236 l 478 1251 q 475 1218 475 1229 q 619 1094 475 1094 q 746 1136 690 1094 q 815 1251 801 1178 l 885 1251 q 799 1090 867 1151 q 614 1028 731 1028 m 447 -17 q 251 51 325 -17 q 176 256 176 119 q 188 368 176 304 l 293 972 l 368 972 l 263 368 q 253 263 253 314 q 449 51 253 51 q 739 356 685 51 l 846 972 l 921 972 l 813 354 q 689 72 779 160 q 447 -17 599 -17 z "},"ŭ":{"ha":744,"x_min":151,"x_max":765,"o":"m 494 806 q 340 857 392 806 q 289 985 289 908 q 292 1029 289 1014 l 358 1029 q 356 996 356 1007 q 500 872 356 872 q 626 914 571 872 q 696 1029 682 956 l 765 1029 q 679 867 747 929 q 494 806 611 806 m 536 0 l 553 96 q 351 -17 482 -17 q 202 37 253 -17 q 151 192 151 90 q 161 289 151 228 l 235 710 l 308 710 l 232 271 q 225 197 225 226 q 363 50 225 50 q 505 106 444 50 q 586 286 565 163 l 660 710 l 735 710 l 610 0 l 536 0 z "},"Ů":{"ha":897,"x_min":176,"x_max":921,"o":"m 614 1019 q 517 1060 556 1019 q 478 1157 478 1100 q 532 1281 478 1231 q 660 1332 586 1332 q 757 1292 718 1332 q 796 1197 796 1253 q 741 1072 796 1124 q 614 1019 686 1019 m 621 1078 q 700 1111 667 1078 q 733 1193 733 1144 q 711 1252 733 1229 q 653 1275 689 1275 q 574 1243 607 1275 q 542 1161 542 1211 q 565 1101 542 1124 q 621 1078 588 1078 m 447 -17 q 251 51 325 -17 q 176 256 176 119 q 188 368 176 304 l 293 972 l 368 972 l 263 368 q 253 263 253 314 q 449 51 253 51 q 739 356 685 51 l 846 972 l 921 972 l 813 354 q 689 72 779 160 q 447 -17 599 -17 z "},"ů":{"ha":744,"x_min":151,"x_max":735,"o":"m 494 797 q 397 838 436 797 q 358 935 358 878 q 413 1059 358 1008 q 540 1110 467 1110 q 638 1070 599 1110 q 676 975 676 1031 q 622 849 676 901 q 494 797 567 797 m 501 856 q 581 889 547 856 q 614 971 614 922 q 592 1030 614 1007 q 533 1053 569 1053 q 455 1021 488 1053 q 422 939 422 989 q 445 878 422 901 q 501 856 468 856 m 536 0 l 553 96 q 351 -17 482 -17 q 202 37 253 -17 q 151 192 151 90 q 161 289 151 228 l 235 710 l 308 710 l 232 271 q 225 197 225 226 q 363 50 225 50 q 505 106 444 50 q 586 286 565 163 l 660 710 l 735 710 l 610 0 l 536 0 z "},"Ű":{"ha":897,"x_min":176,"x_max":1039,"o":"m 422 1021 l 660 1238 l 769 1238 l 494 1021 l 422 1021 m 692 1021 l 929 1238 l 1039 1238 l 764 1021 l 692 1021 m 447 -17 q 251 51 325 -17 q 176 256 176 119 q 188 368 176 304 l 293 972 l 368 972 l 263 368 q 253 263 253 314 q 449 51 253 51 q 739 356 685 51 l 846 972 l 921 972 l 813 354 q 689 72 779 160 q 447 -17 599 -17 z "},"ű":{"ha":744,"x_min":151,"x_max":919,"o":"m 303 799 l 540 1015 l 650 1015 l 375 799 l 303 799 m 572 799 l 810 1015 l 919 1015 l 644 799 l 572 799 m 536 0 l 553 96 q 351 -17 482 -17 q 202 37 253 -17 q 151 192 151 90 q 161 289 151 228 l 235 710 l 308 710 l 232 271 q 225 197 225 226 q 363 50 225 50 q 505 106 444 50 q 586 286 565 163 l 660 710 l 735 710 l 610 0 l 536 0 z "},"Ų":{"ha":897,"x_min":176,"x_max":921,"o":"m 426 -325 q 340 -297 374 -325 q 307 -215 307 -268 q 460 -15 307 -96 q 415 -15 438 -18 q 241 61 306 -7 q 176 256 176 129 q 188 368 176 304 l 293 972 l 368 972 l 263 368 q 253 263 253 314 q 449 51 253 51 q 739 356 685 51 l 846 972 l 921 972 l 813 354 q 578 1 764 69 q 424 -89 474 -40 q 374 -201 374 -137 q 393 -253 374 -236 q 440 -271 413 -271 q 528 -232 482 -271 l 564 -264 q 426 -325 503 -325 z "},"ų":{"ha":744,"x_min":151,"x_max":735,"o":"m 465 -325 q 379 -297 413 -325 q 346 -215 346 -268 q 397 -90 346 -144 q 536 0 449 -35 l 553 96 q 351 -17 482 -17 q 202 37 253 -17 q 151 192 151 90 q 161 289 151 228 l 235 710 l 308 710 l 232 271 q 225 197 225 226 q 363 50 225 50 q 505 106 444 50 q 586 286 565 163 l 660 710 l 735 710 l 610 0 q 413 -201 413 -72 q 432 -253 413 -236 q 479 -271 451 -271 q 565 -232 522 -271 l 603 -264 q 465 -325 542 -325 z "},"Ŵ":{"ha":1117,"x_min":233,"x_max":1196,"o":"m 885 1021 l 744 1175 l 550 1021 l 479 1021 l 717 1238 l 792 1238 l 953 1021 l 885 1021 m 265 0 l 233 972 l 308 972 l 332 247 q 335 167 332 200 l 368 246 l 681 972 l 738 972 l 800 242 l 806 165 q 821 203 810 175 q 835 239 832 232 l 1117 972 l 1196 972 l 818 0 l 753 0 l 689 722 q 682 801 685 765 q 649 722 665 760 l 331 0 l 265 0 z "},"ŵ":{"ha":942,"x_min":174,"x_max":996,"o":"m 768 799 l 628 953 l 433 799 l 363 799 l 600 1015 l 675 1015 l 836 799 l 768 799 m 226 0 l 174 710 l 244 710 l 275 183 q 278 137 276 167 q 281 106 281 107 q 290 127 283 114 q 303 158 296 140 q 315 183 311 175 l 557 710 l 610 710 l 671 183 q 676 142 672 169 q 681 107 679 115 q 693 138 682 110 q 711 183 704 167 l 922 710 l 996 710 l 703 0 l 638 0 l 569 508 l 561 574 q 547 542 558 567 q 531 507 535 517 l 292 0 l 226 0 z "},"Ŷ":{"ha":815,"x_min":224,"x_max":908,"o":"m 742 1021 l 601 1175 l 407 1021 l 336 1021 l 574 1238 l 649 1238 l 810 1021 l 742 1021 m 358 0 l 426 388 l 224 972 l 299 972 l 472 456 l 829 972 l 908 972 l 497 382 l 431 0 l 358 0 z "},"ŷ":{"ha":679,"x_min":139,"x_max":738,"o":"m 631 799 l 490 953 l 296 799 l 225 799 l 463 1015 l 538 1015 l 699 799 l 631 799 m 139 -269 l 293 21 l 165 710 l 240 710 l 325 210 q 335 151 328 189 q 342 111 342 114 q 393 210 351 132 l 657 710 l 738 710 l 215 -269 l 139 -269 z "},"Ÿ":{"ha":815,"x_min":224,"x_max":908,"o":"m 472 1082 q 442 1095 454 1082 q 429 1128 429 1108 q 449 1171 431 1153 q 492 1189 468 1189 q 523 1176 511 1189 q 535 1143 535 1163 q 516 1100 535 1118 q 472 1082 497 1082 m 699 1082 q 668 1095 681 1082 q 656 1128 656 1108 q 675 1171 656 1153 q 718 1189 694 1189 q 749 1176 738 1189 q 761 1143 761 1163 q 742 1100 761 1118 q 699 1082 724 1082 m 358 0 l 426 388 l 224 972 l 299 972 l 472 456 l 829 972 l 908 972 l 497 382 l 431 0 l 358 0 z "},"Ź":{"ha":825,"x_min":78,"x_max":894,"o":"m 596 1021 l 522 1021 l 760 1238 l 869 1238 l 596 1021 m 78 0 l 88 47 l 789 907 l 269 907 l 281 972 l 894 972 l 885 922 l 188 67 l 733 67 l 724 0 l 78 0 z "},"ź":{"ha":664,"x_min":82,"x_max":747,"o":"m 474 799 l 400 799 l 638 1015 l 747 1015 l 474 799 m 82 0 l 90 46 l 568 643 l 222 643 l 233 710 l 682 710 l 675 667 l 193 67 l 568 67 l 557 0 l 82 0 z "},"Ż":{"ha":825,"x_min":78,"x_max":894,"o":"m 589 1063 q 558 1076 571 1063 q 546 1108 546 1089 q 566 1151 547 1133 q 608 1169 585 1169 q 640 1156 628 1169 q 651 1124 651 1143 q 633 1081 651 1099 q 589 1063 614 1063 m 78 0 l 88 47 l 789 907 l 269 907 l 281 972 l 894 972 l 885 922 l 188 67 l 733 67 l 724 0 l 78 0 z "},"ż":{"ha":664,"x_min":82,"x_max":682,"o":"m 467 840 q 436 853 449 840 q 424 886 424 867 q 444 929 425 911 q 486 947 463 947 q 517 934 506 947 q 529 901 529 921 q 510 858 529 876 q 467 840 492 840 m 82 0 l 90 46 l 568 643 l 222 643 l 233 710 l 682 710 l 675 667 l 193 67 l 568 67 l 557 0 l 82 0 z "},"Ž":{"ha":825,"x_min":78,"x_max":894,"o":"m 622 1021 l 546 1021 l 386 1238 l 453 1238 l 593 1085 l 789 1238 l 860 1238 l 622 1021 m 78 0 l 88 47 l 789 907 l 269 907 l 281 972 l 894 972 l 885 922 l 188 67 l 733 67 l 724 0 l 78 0 z "},"ž":{"ha":664,"x_min":82,"x_max":738,"o":"m 500 799 l 424 799 l 264 1015 l 331 1015 l 471 863 l 667 1015 l 738 1015 l 500 799 m 82 0 l 90 46 l 568 643 l 222 643 l 233 710 l 682 710 l 675 667 l 193 67 l 568 67 l 557 0 l 82 0 z "},"ſ":{"ha":413,"x_min":128,"x_max":533,"o":"m 128 0 l 274 835 q 436 989 301 989 q 533 961 493 989 l 522 897 q 436 921 481 921 q 376 897 396 921 q 347 824 356 872 l 201 0 l 128 0 z "},"ƒ":{"ha":472,"x_min":-33,"x_max":585,"o":"m -10 -296 l -33 -236 q 105 -190 60 -228 q 163 -78 150 -151 l 289 643 l 178 643 l 190 710 l 301 710 l 324 835 q 381 951 336 913 q 490 989 426 989 q 585 961 542 989 l 574 897 q 486 921 529 921 q 422 897 442 921 q 394 824 403 872 l 374 710 l 540 710 l 529 643 l 361 643 l 239 -57 q -10 -296 200 -279 z "},"Ǎ":{"ha":886,"x_min":78,"x_max":886,"o":"m 649 1021 l 572 1021 l 413 1238 l 479 1238 l 619 1085 l 815 1238 l 886 1238 l 649 1021 m 78 0 l 572 972 l 629 972 l 786 0 l 713 0 l 669 263 l 290 263 l 157 0 l 78 0 m 321 326 l 661 326 l 599 731 q 581 851 585 801 q 551 785 574 833 q 525 731 528 738 l 321 326 z "},"ǎ":{"ha":701,"x_min":111,"x_max":768,"o":"m 531 799 l 454 799 l 294 1015 l 361 1015 l 501 863 l 697 1015 l 768 1015 l 531 799 m 514 0 l 528 82 q 306 -17 426 -17 q 163 38 215 -17 q 111 185 111 92 q 194 380 111 310 q 394 450 278 450 q 582 388 500 450 l 596 464 q 604 538 604 511 q 479 661 604 661 q 254 588 378 661 l 243 651 q 483 726 378 726 q 620 683 565 726 q 675 544 675 640 q 667 471 675 522 l 585 0 l 514 0 m 315 49 q 544 171 433 49 l 569 318 q 393 383 486 383 q 245 332 306 383 q 185 189 185 281 q 219 88 185 126 q 315 49 254 49 z "},"Ǐ":{"ha":351,"x_min":131,"x_max":625,"o":"m 388 1021 l 311 1021 l 151 1238 l 218 1238 l 358 1085 l 554 1238 l 625 1238 l 388 1021 m 131 0 l 301 972 l 375 972 l 204 0 l 131 0 z "},"ǐ":{"ha":326,"x_min":100,"x_max":574,"o":"m 336 799 l 260 799 l 100 1015 l 167 1015 l 307 863 l 503 1015 l 574 1015 l 336 799 m 119 0 l 244 710 l 315 710 l 190 0 l 119 0 z "},"Ǒ":{"ha":964,"x_min":164,"x_max":946,"o":"m 683 1021 l 607 1021 l 447 1238 l 514 1238 l 654 1085 l 850 1238 l 921 1238 l 683 1021 m 476 -17 q 297 40 369 -17 q 194 182 224 97 q 164 371 164 267 q 193 582 164 476 q 277 781 222 688 q 426 931 332 874 q 638 989 521 989 q 781 957 719 989 q 877 869 842 925 q 929 748 913 814 q 946 606 946 682 q 929 435 946 521 q 875 268 913 350 q 784 124 838 186 q 651 22 731 61 q 476 -17 571 -17 m 479 53 q 656 105 578 53 q 778 240 733 157 q 847 417 824 324 q 871 606 871 511 q 813 831 871 740 q 633 921 756 921 q 456 869 535 921 q 332 733 378 817 q 263 556 286 650 q 239 368 239 463 q 297 142 239 231 q 479 53 356 53 z "},"ǒ":{"ha":728,"x_min":125,"x_max":771,"o":"m 533 799 l 457 799 l 297 1015 l 364 1015 l 504 863 l 700 1015 l 771 1015 l 533 799 m 363 -17 q 186 61 247 -17 q 125 271 125 139 q 219 594 125 461 q 475 726 314 726 q 653 647 592 726 q 714 442 714 568 q 621 117 714 250 q 363 -17 528 -17 m 367 53 q 567 165 494 53 q 639 438 639 278 q 597 597 639 536 q 474 658 554 658 q 273 544 344 658 q 201 269 201 431 q 243 112 201 171 q 367 53 285 53 z "},"Ǔ":{"ha":897,"x_min":176,"x_max":921,"o":"m 654 1021 l 578 1021 l 418 1238 l 485 1238 l 625 1085 l 821 1238 l 892 1238 l 654 1021 m 447 -17 q 251 51 325 -17 q 176 256 176 119 q 188 368 176 304 l 293 972 l 368 972 l 263 368 q 253 263 253 314 q 449 51 253 51 q 739 356 685 51 l 846 972 l 921 972 l 813 354 q 689 72 779 160 q 447 -17 599 -17 z "},"ǔ":{"ha":744,"x_min":151,"x_max":772,"o":"m 535 799 l 458 799 l 299 1015 l 365 1015 l 506 863 l 701 1015 l 772 1015 l 535 799 m 536 0 l 553 96 q 351 -17 482 -17 q 202 37 253 -17 q 151 192 151 90 q 161 289 151 228 l 235 710 l 308 710 l 232 271 q 225 197 225 226 q 363 50 225 50 q 505 106 444 50 q 586 286 565 163 l 660 710 l 735 710 l 610 0 l 536 0 z "},"Ǽ":{"ha":1160,"x_min":-19,"x_max":1193,"o":"m 801 1021 l 728 1021 l 965 1238 l 1075 1238 l 801 1021 m -19 0 l 704 972 l 1193 972 l 1182 906 l 794 906 l 729 538 l 979 538 l 967 471 l 718 471 l 647 67 l 1064 67 l 1053 0 l 561 0 l 607 263 l 264 263 l 71 0 l -19 0 m 311 326 l 618 326 l 715 882 q 661 806 689 842 l 311 326 z "},"ǽ":{"ha":1149,"x_min":111,"x_max":1146,"o":"m 721 799 l 647 799 l 885 1015 l 994 1015 l 721 799 m 308 -17 q 163 38 215 -17 q 111 185 111 92 q 194 381 111 311 q 397 450 278 450 q 582 388 500 450 l 597 472 q 604 536 604 511 q 479 661 604 661 q 254 588 378 661 l 243 651 q 483 726 378 726 q 606 692 556 726 q 667 588 656 658 q 919 726 763 726 q 1086 663 1026 726 q 1146 476 1146 600 q 1124 328 1146 431 l 651 328 q 649 278 649 292 q 819 54 649 54 q 986 113 904 54 l 1021 58 q 808 -17 921 -17 q 670 28 726 -17 q 592 153 614 72 q 308 -17 468 -17 m 661 394 l 1063 394 q 1072 485 1072 442 q 1028 617 1072 575 q 919 660 985 660 q 753 588 821 660 q 661 394 686 515 m 318 49 q 576 213 453 49 l 572 265 q 574 315 572 307 q 393 383 489 383 q 247 333 308 383 q 185 189 185 283 q 219 88 185 126 q 318 49 254 49 z "},"Ǿ":{"ha":964,"x_min":100,"x_max":1013,"o":"m 660 1064 l 586 1064 l 824 1281 l 933 1281 l 660 1064 m 100 -17 l 217 124 q 164 371 164 218 q 181 538 164 454 q 235 704 197 622 q 326 849 272 786 q 463 950 381 911 q 642 989 544 989 q 858 899 782 989 l 935 989 l 1013 989 l 896 849 q 946 604 946 754 q 918 392 946 497 q 836 194 890 288 q 687 42 782 100 q 471 -17 592 -17 q 253 74 333 -17 l 178 -17 l 100 -17 m 269 189 l 810 839 q 631 921 746 921 q 454 869 532 921 q 331 734 376 817 q 263 558 286 651 q 239 371 239 464 q 269 189 239 260 m 482 53 q 658 105 581 53 q 781 240 736 157 q 848 415 825 322 q 871 601 871 508 q 840 782 871 711 l 301 133 q 482 53 361 53 z "},"ǿ":{"ha":728,"x_min":64,"x_max":781,"o":"m 507 800 l 433 800 l 671 1017 l 781 1017 l 507 800 m 64 -17 l 163 97 q 125 271 125 168 q 219 594 125 461 q 475 726 314 726 q 642 658 581 726 l 701 726 l 775 726 l 676 611 q 714 442 714 540 q 621 117 714 250 q 363 -17 528 -17 q 196 51 256 -17 l 138 -17 l 64 -17 m 217 163 l 593 600 q 474 658 550 658 q 273 544 344 658 q 201 269 201 431 q 217 163 201 204 m 367 53 q 567 165 494 53 q 639 438 639 278 q 621 547 639 501 l 246 108 q 367 53 286 53 z "},"Ș":{"ha":793,"x_min":122,"x_max":775,"o":"m 707 808 q 532 921 668 921 q 376 873 433 921 q 319 746 319 825 q 342 669 319 703 q 400 614 364 636 q 479 570 436 592 q 565 524 522 549 q 644 470 608 500 q 703 393 681 440 q 725 285 725 346 q 633 64 725 144 q 399 -17 540 -17 q 217 40 290 -17 q 122 185 144 97 l 192 210 q 406 51 243 51 q 581 111 514 51 q 647 276 647 171 q 606 392 647 344 q 505 471 564 440 q 386 533 446 501 q 285 616 326 564 q 243 742 243 668 q 324 918 243 847 q 536 989 406 989 q 694 946 631 989 q 775 835 758 903 l 707 808 m 322 -340 l 304 -335 q 376 -197 365 -269 q 340 -183 353 -197 q 328 -149 328 -169 q 347 -100 328 -119 q 393 -81 367 -81 q 428 -96 414 -81 q 442 -139 442 -111 q 408 -249 442 -193 q 322 -340 374 -306 z "},"ș":{"ha":610,"x_min":93,"x_max":603,"o":"m 315 -17 q 93 99 171 -17 l 150 144 q 318 50 214 50 q 437 87 392 50 q 482 189 482 124 q 449 269 482 236 q 371 323 417 301 q 278 367 325 344 q 199 432 232 390 q 167 533 167 474 q 231 672 167 618 q 397 726 296 726 q 603 629 538 726 l 550 588 q 393 660 489 660 q 281 624 325 660 q 238 535 238 589 q 270 463 238 493 q 350 413 303 433 q 444 367 397 392 q 523 299 490 343 q 556 190 556 254 q 491 40 556 97 q 315 -17 426 -17 m 238 -340 l 219 -335 q 292 -197 281 -269 q 256 -183 268 -197 q 243 -149 243 -169 q 263 -100 243 -119 q 308 -81 282 -81 q 343 -96 329 -81 q 357 -139 357 -111 q 323 -249 357 -193 q 238 -340 289 -306 z "},"Ț":{"ha":757,"x_min":236,"x_max":836,"o":"m 567 906 l 407 0 l 333 0 l 493 906 l 236 906 l 247 972 l 836 972 l 825 906 l 567 906 m 289 -340 l 271 -335 q 343 -197 332 -269 q 307 -183 319 -197 q 294 -149 294 -169 q 314 -100 294 -119 q 360 -81 333 -81 q 394 -96 381 -81 q 408 -139 408 -111 q 374 -249 408 -193 q 289 -340 340 -306 z "},"ț":{"ha":483,"x_min":151,"x_max":528,"o":"m 289 -17 q 205 15 233 -17 q 176 100 176 47 q 183 161 176 122 l 268 643 l 151 643 l 163 710 l 279 710 l 325 969 l 404 1003 l 353 710 l 528 710 l 515 643 l 342 643 l 260 174 q 253 117 253 142 q 317 54 253 54 q 424 89 368 54 l 401 13 q 289 -17 349 -17 m 207 -340 l 189 -335 q 261 -197 250 -269 q 225 -183 238 -197 q 213 -149 213 -169 q 232 -100 213 -119 q 278 -81 251 -81 q 313 -96 299 -81 q 326 -139 326 -111 q 292 -249 326 -193 q 207 -340 258 -306 z "},"ȷ":{"ha":336,"x_min":-86,"x_max":319,"o":"m -61 -299 l -86 -236 q 51 -190 8 -226 q 108 -69 93 -153 l 246 710 l 319 710 l 182 -75 q 98 -243 160 -196 q -61 -299 36 -290 z "},"ˆ":{"ha":454,"x_min":140,"x_max":614,"o":"m 546 800 l 406 954 l 211 800 l 140 800 l 378 1017 l 453 1017 l 614 800 l 546 800 z "},"ˇ":{"ha":454,"x_min":174,"x_max":647,"o":"m 410 800 l 333 800 l 174 1017 l 240 1017 l 381 864 l 576 1017 l 647 1017 l 410 800 z "},"ˉ":{"ha":454,"x_min":164,"x_max":625,"o":"m 164 856 l 176 921 l 625 921 l 614 856 l 164 856 z "},"˘":{"ha":454,"x_min":179,"x_max":656,"o":"m 385 807 q 231 858 282 807 q 179 986 179 910 q 182 1031 179 1015 l 249 1031 q 246 997 246 1008 q 390 874 246 874 q 517 915 461 874 q 586 1031 572 957 l 656 1031 q 569 869 638 931 q 385 807 501 807 z "},"˙":{"ha":454,"x_min":340,"x_max":446,"o":"m 383 842 q 353 855 365 842 q 340 888 340 868 q 360 931 342 913 q 403 949 379 949 q 434 935 422 949 q 446 903 446 922 q 427 860 446 878 q 383 842 408 842 z "},"˚":{"ha":454,"x_min":235,"x_max":553,"o":"m 371 750 q 274 790 313 750 q 235 888 235 831 q 289 1012 235 961 q 417 1063 343 1063 q 514 1023 475 1063 q 553 928 553 983 q 498 802 553 854 q 371 750 443 750 m 378 808 q 458 842 425 808 q 490 924 490 875 q 468 983 490 960 q 410 1006 446 1006 q 331 974 364 1006 q 299 892 299 942 q 322 831 299 854 q 378 808 344 808 z "},"˛":{"ha":454,"x_min":6,"x_max":289,"o":"m 125 -325 q 39 -297 72 -325 q 6 -215 6 -268 q 67 -80 6 -140 q 231 14 128 -19 l 289 14 q 72 -201 72 -72 q 91 -253 72 -236 q 138 -271 110 -271 q 225 -232 182 -271 l 263 -264 q 125 -325 201 -325 z "},"˜":{"ha":454,"x_min":151,"x_max":636,"o":"m 490 836 q 376 882 440 836 q 278 928 313 928 q 227 905 249 928 q 196 842 206 882 l 151 842 q 200 954 163 914 q 296 994 238 994 q 411 949 347 994 q 508 903 475 903 q 592 989 569 903 l 636 989 q 490 836 608 836 z "},"˝":{"ha":454,"x_min":271,"x_max":888,"o":"m 271 800 l 508 1017 l 618 1017 l 343 800 l 271 800 m 540 800 l 778 1017 l 888 1017 l 613 800 l 540 800 z "},"̒":{"ha":0,"x_min":-121,"x_max":18,"o":"m -68 838 q -121 901 -121 838 q -86 1008 -121 951 q -1 1097 -51 1064 l 18 1092 q -54 954 -43 1026 q -19 940 -32 954 q -6 906 -6 926 q -24 856 -6 875 q -68 838 -42 838 z "},"̦":{"ha":0,"x_min":-325,"x_max":-187,"o":"m -307 -340 l -325 -335 q -253 -197 -264 -269 q -289 -183 -276 -197 q -301 -149 -301 -169 q -282 -100 -301 -119 q -236 -81 -262 -81 q -201 -96 -215 -81 q -187 -139 -187 -111 q -222 -249 -187 -193 q -307 -340 -256 -306 z "},"Ω":{"ha":989,"x_min":97,"x_max":963,"o":"m 578 0 l 592 79 q 819 341 753 214 q 886 628 886 468 q 828 835 886 750 q 644 921 769 921 q 476 877 550 921 q 358 762 401 833 q 291 608 314 690 q 268 439 268 525 q 403 79 268 228 l 389 0 l 97 0 l 110 69 l 346 69 q 233 224 274 128 q 193 436 193 321 q 220 627 193 533 q 300 803 247 721 q 444 938 353 886 q 653 989 536 989 q 887 885 811 989 q 963 638 963 782 q 879 308 963 453 q 646 69 796 164 l 881 69 l 869 0 l 578 0 z "},"μ":{"ha":744,"x_min":63,"x_max":735,"o":"m 538 0 l 556 101 q 351 -17 478 -17 q 199 69 236 -17 l 143 -246 l 63 -281 l 238 710 l 311 710 l 235 272 q 226 190 226 228 q 263 85 226 121 q 365 50 299 50 q 506 107 444 50 q 588 286 567 164 l 661 710 l 735 710 l 610 0 l 538 0 z "},"π":{"ha":886,"x_min":67,"x_max":915,"o":"m 119 -28 l 67 21 q 160 94 122 54 q 238 225 199 133 q 303 456 278 317 l 335 633 l 201 633 l 214 710 l 915 710 l 901 633 l 729 633 l 649 174 q 642 117 642 132 q 706 54 642 54 q 813 89 757 54 l 790 13 q 686 -17 739 -17 q 599 15 631 -17 q 567 100 567 46 q 575 176 567 131 l 656 633 l 406 633 l 381 490 q 286 158 344 283 q 119 -28 228 33 z "},"Ẁ":{"ha":1117,"x_min":233,"x_max":1196,"o":"m 697 1021 l 499 1238 l 608 1238 l 769 1021 l 697 1021 m 265 0 l 233 972 l 308 972 l 332 247 q 335 167 332 200 l 368 246 l 681 972 l 738 972 l 800 242 l 806 165 q 821 203 810 175 q 835 239 832 232 l 1117 972 l 1196 972 l 818 0 l 753 0 l 689 722 q 682 801 685 765 q 649 722 665 760 l 331 0 l 265 0 z "},"ẁ":{"ha":942,"x_min":174,"x_max":996,"o":"m 581 799 l 382 1015 l 492 1015 l 653 799 l 581 799 m 226 0 l 174 710 l 244 710 l 275 183 q 278 137 276 167 q 281 106 281 107 q 290 127 283 114 q 303 158 296 140 q 315 183 311 175 l 557 710 l 610 710 l 671 183 q 676 142 672 169 q 681 107 679 115 q 693 138 682 110 q 711 183 704 167 l 922 710 l 996 710 l 703 0 l 638 0 l 569 508 l 561 574 q 547 542 558 567 q 531 507 535 517 l 292 0 l 226 0 z "},"Ẃ":{"ha":1117,"x_min":233,"x_max":1196,"o":"m 731 1021 l 657 1021 l 894 1238 l 1004 1238 l 731 1021 m 265 0 l 233 972 l 308 972 l 332 247 q 335 167 332 200 l 368 246 l 681 972 l 738 972 l 800 242 l 806 165 q 821 203 810 175 q 835 239 832 232 l 1117 972 l 1196 972 l 818 0 l 753 0 l 689 722 q 682 801 685 765 q 649 722 665 760 l 331 0 l 265 0 z "},"ẃ":{"ha":942,"x_min":174,"x_max":996,"o":"m 614 799 l 540 799 l 778 1015 l 888 1015 l 614 799 m 226 0 l 174 710 l 244 710 l 275 183 q 278 137 276 167 q 281 106 281 107 q 290 127 283 114 q 303 158 296 140 q 315 183 311 175 l 557 710 l 610 710 l 671 183 q 676 142 672 169 q 681 107 679 115 q 693 138 682 110 q 711 183 704 167 l 922 710 l 996 710 l 703 0 l 638 0 l 569 508 l 561 574 q 547 542 558 567 q 531 507 535 517 l 292 0 l 226 0 z "},"Ẅ":{"ha":1117,"x_min":233,"x_max":1196,"o":"m 615 1082 q 585 1095 597 1082 q 572 1128 572 1108 q 592 1171 574 1153 q 635 1189 611 1189 q 666 1176 654 1189 q 678 1143 678 1163 q 659 1100 678 1118 q 615 1082 640 1082 m 842 1082 q 811 1095 824 1082 q 799 1128 799 1108 q 818 1171 799 1153 q 861 1189 838 1189 q 892 1176 881 1189 q 904 1143 904 1163 q 885 1100 904 1118 q 842 1082 867 1082 m 265 0 l 233 972 l 308 972 l 332 247 q 335 167 332 200 l 368 246 l 681 972 l 738 972 l 800 242 l 806 165 q 821 203 810 175 q 835 239 832 232 l 1117 972 l 1196 972 l 818 0 l 753 0 l 689 722 q 682 801 685 765 q 649 722 665 760 l 331 0 l 265 0 z "},"ẅ":{"ha":942,"x_min":174,"x_max":996,"o":"m 499 860 q 468 873 481 860 q 456 906 456 886 q 476 949 457 931 q 518 967 494 967 q 549 953 538 967 q 561 921 561 940 q 542 878 561 896 q 499 860 524 860 m 725 860 q 694 873 707 860 q 682 906 682 886 q 701 949 682 931 q 744 967 721 967 q 776 953 764 967 q 788 921 788 940 q 769 878 788 896 q 725 860 750 860 m 226 0 l 174 710 l 244 710 l 275 183 q 278 137 276 167 q 281 106 281 107 q 290 127 283 114 q 303 158 296 140 q 315 183 311 175 l 557 710 l 610 710 l 671 183 q 676 142 672 169 q 681 107 679 115 q 693 138 682 110 q 711 183 704 167 l 922 710 l 996 710 l 703 0 l 638 0 l 569 508 l 561 574 q 547 542 558 567 q 531 507 535 517 l 292 0 l 226 0 z "},"Ỳ":{"ha":815,"x_min":224,"x_max":908,"o":"m 554 1021 l 356 1238 l 465 1238 l 626 1021 l 554 1021 m 358 0 l 426 388 l 224 972 l 299 972 l 472 456 l 829 972 l 908 972 l 497 382 l 431 0 l 358 0 z "},"ỳ":{"ha":679,"x_min":139,"x_max":738,"o":"m 443 799 l 244 1015 l 354 1015 l 515 799 l 443 799 m 139 -269 l 293 21 l 165 710 l 240 710 l 325 210 q 335 151 328 189 q 342 111 342 114 q 393 210 351 132 l 657 710 l 738 710 l 215 -269 l 139 -269 z "},"–":{"ha":713,"x_min":150,"x_max":689,"o":"m 150 365 l 161 432 l 689 432 l 678 365 l 150 365 z "},"—":{"ha":822,"x_min":69,"x_max":878,"o":"m 69 365 l 82 432 l 878 432 l 867 365 l 69 365 z "},"―":{"ha":822,"x_min":69,"x_max":878,"o":"m 69 365 l 82 432 l 878 432 l 867 365 l 69 365 z "},"‘":{"ha":292,"x_min":194,"x_max":350,"o":"m 253 686 q 211 704 228 686 q 194 756 194 722 q 235 886 194 821 q 332 989 276 951 l 350 983 q 296 909 322 956 q 265 817 269 863 q 310 801 293 817 q 326 761 326 786 q 305 708 326 729 q 253 686 283 686 z "},"’":{"ha":292,"x_min":206,"x_max":361,"o":"m 224 686 l 206 692 q 260 766 233 719 q 290 858 286 813 q 247 874 264 858 q 231 914 231 889 q 251 968 231 947 q 303 989 272 989 q 344 971 328 989 q 361 919 361 953 q 320 789 361 854 q 224 686 279 724 z "},"‚":{"ha":292,"x_min":67,"x_max":222,"o":"m 85 -196 l 67 -190 q 121 -117 94 -164 q 153 -24 147 -69 q 108 -8 125 -24 q 92 32 92 7 q 113 87 92 65 q 164 108 135 108 q 206 90 189 108 q 222 39 222 72 q 181 -93 222 -28 q 85 -196 140 -158 z "},"‛":{"ha":292,"x_min":215,"x_max":357,"o":"m 275 685 q 233 758 250 710 q 215 857 215 806 q 242 954 215 919 q 306 989 268 989 q 342 974 328 989 q 357 935 357 958 q 333 880 357 901 q 274 858 308 858 q 271 797 269 829 q 299 692 276 732 l 275 685 z "},"“":{"ha":544,"x_min":194,"x_max":604,"o":"m 253 686 q 211 704 228 686 q 194 756 194 722 q 235 886 194 821 q 332 989 276 951 l 350 983 q 296 909 322 956 q 265 817 269 863 q 310 801 293 817 q 326 761 326 786 q 305 708 326 729 q 253 686 283 686 m 506 686 q 464 704 481 686 q 447 756 447 722 q 488 886 447 821 q 585 989 529 951 l 604 983 q 550 910 576 957 q 518 817 524 863 q 563 801 546 817 q 579 761 579 786 q 558 708 579 729 q 506 686 536 686 z "},"”":{"ha":544,"x_min":206,"x_max":614,"o":"m 224 686 l 206 692 q 260 766 233 719 q 290 858 286 813 q 247 874 264 858 q 231 914 231 889 q 251 968 231 947 q 303 989 272 989 q 344 971 328 989 q 361 919 361 953 q 320 789 361 854 q 224 686 279 724 m 476 686 l 458 692 q 513 766 486 719 q 543 858 539 813 q 500 874 517 858 q 483 914 483 889 q 504 968 483 947 q 556 989 525 989 q 597 971 581 989 q 614 919 614 953 q 573 789 614 854 q 476 686 532 724 z "},"„":{"ha":544,"x_min":65,"x_max":474,"o":"m 83 -196 l 65 -190 q 119 -117 93 -164 q 151 -24 146 -71 q 107 -8 124 -24 q 90 32 90 7 q 111 87 90 65 q 163 108 132 108 q 204 90 188 108 q 221 39 221 72 q 180 -93 221 -28 q 83 -196 139 -158 m 336 -196 l 318 -190 q 372 -117 346 -164 q 404 -24 399 -71 q 360 -8 376 -24 q 343 32 343 7 q 365 87 343 65 q 415 108 386 108 q 457 90 440 108 q 474 39 474 72 q 433 -93 474 -28 q 336 -196 392 -158 z "},"†":{"ha":761,"x_min":219,"x_max":757,"o":"m 508 640 l 493 469 l 344 -196 l 336 -196 l 419 469 l 461 640 l 268 621 l 219 621 l 233 692 l 281 692 l 465 671 l 481 815 l 510 989 l 583 989 l 554 815 l 515 671 l 708 692 l 757 692 l 744 621 l 696 621 l 508 640 z "},"‡":{"ha":761,"x_min":129,"x_max":757,"o":"m 617 174 l 665 174 l 653 101 l 604 101 l 418 122 l 406 -22 l 375 -196 l 303 -196 l 332 -22 l 369 122 l 176 101 l 129 101 l 142 174 l 190 174 l 376 153 l 393 324 l 419 469 l 463 640 l 268 621 l 219 621 l 233 692 l 281 692 l 465 671 l 481 815 l 511 989 l 583 989 l 553 815 l 515 671 l 708 692 l 757 692 l 743 621 l 694 621 l 508 640 l 492 469 l 467 324 l 422 153 l 617 174 z "},"•":{"ha":565,"x_min":206,"x_max":510,"o":"m 329 339 q 240 375 274 339 q 206 464 206 411 q 258 586 206 535 q 382 638 311 638 q 474 600 438 638 q 510 510 510 563 q 456 390 510 440 q 329 339 401 339 z "},"…":{"ha":1114,"x_min":151,"x_max":967,"o":"m 190 -18 q 163 -6 174 -18 q 151 24 151 7 q 169 63 151 46 q 208 79 188 79 q 238 67 226 79 q 249 36 249 54 q 231 -2 249 14 q 190 -18 214 -18 m 550 -18 q 522 -6 533 -18 q 510 24 510 7 q 528 63 511 46 q 568 79 546 79 q 597 67 586 79 q 608 36 608 54 q 591 -2 608 14 q 550 -18 574 -18 m 908 -18 q 880 -6 892 -18 q 868 24 868 7 q 887 63 869 46 q 926 79 904 79 q 956 67 944 79 q 967 36 967 54 q 948 -2 965 14 q 908 -18 931 -18 z "},"‰":{"ha":1738,"x_min":204,"x_max":1688,"o":"m 381 494 q 248 552 292 494 q 204 692 204 610 q 272 894 204 799 q 463 989 340 989 q 594 931 551 989 q 636 792 636 872 q 622 692 636 742 q 577 597 607 642 q 497 523 547 551 q 381 494 446 494 m 308 -17 l 231 -17 l 1058 989 l 1136 989 l 308 -17 m 389 560 q 519 628 472 560 q 567 785 567 697 q 538 883 567 843 q 453 924 510 924 q 322 855 368 924 q 276 699 276 786 q 304 599 276 639 q 389 560 332 560 m 904 -17 q 771 40 814 -17 q 728 179 728 97 q 753 311 728 246 q 840 427 778 376 q 986 478 901 478 q 1117 419 1075 478 q 1158 281 1158 361 q 1144 181 1158 231 q 1100 85 1129 131 q 1020 12 1071 40 q 904 -17 969 -17 m 1432 -17 q 1300 41 1343 -17 q 1257 179 1257 99 q 1324 383 1257 288 q 1514 478 1392 478 q 1645 419 1603 478 q 1688 281 1688 361 q 1673 181 1688 231 q 1629 85 1658 131 q 1549 12 1600 40 q 1432 -17 1497 -17 m 913 49 q 1042 117 996 49 q 1089 272 1089 185 q 1061 372 1089 332 q 976 413 1033 413 q 845 344 892 413 q 799 188 799 275 q 827 88 799 128 q 913 49 856 49 m 1440 49 q 1571 117 1524 49 q 1618 272 1618 185 q 1590 372 1618 332 q 1504 413 1561 413 q 1374 344 1419 413 q 1328 188 1328 275 q 1356 88 1328 128 q 1440 49 1383 49 z "},"′":{"ha":278,"x_min":168,"x_max":364,"o":"m 269 1014 l 364 1014 l 229 590 l 168 590 l 269 1014 z "},"″":{"ha":525,"x_min":168,"x_max":613,"o":"m 168 590 l 269 1014 l 364 1014 l 229 590 l 168 590 m 415 590 l 518 1014 l 613 1014 l 476 590 l 415 590 z "},"‹":{"ha":400,"x_min":119,"x_max":469,"o":"m 264 0 l 119 356 l 389 710 l 469 710 l 201 356 l 346 0 l 264 0 z "},"›":{"ha":400,"x_min":42,"x_max":393,"o":"m 42 0 l 311 356 l 167 710 l 247 710 l 393 356 l 124 0 l 42 0 z "},"⁄":{"ha":440,"x_min":-154,"x_max":750,"o":"m -154 -17 l 674 989 l 750 989 l -78 -17 l -154 -17 z "},"ⁿ":{"ha":624,"x_min":168,"x_max":644,"o":"m 506 393 l 564 726 q 574 807 574 778 q 475 922 574 922 q 365 876 411 922 q 301 735 318 831 l 242 393 l 168 393 l 271 975 l 343 975 l 329 890 q 493 989 394 989 q 603 946 561 989 q 644 814 644 903 q 633 711 644 767 l 578 393 l 506 393 z "},"₤":{"ha":810,"x_min":122,"x_max":871,"o":"m 122 0 l 136 83 q 315 340 288 178 l 179 340 l 190 403 l 322 403 q 322 450 324 424 q 313 511 321 476 l 210 511 l 219 574 l 299 574 q 286 679 286 626 q 377 899 286 808 q 629 989 468 989 q 871 907 779 989 l 832 840 q 617 918 754 918 q 431 849 496 918 q 365 686 365 779 q 379 574 365 628 l 644 574 l 633 511 l 394 511 q 400 463 400 481 q 401 403 401 443 l 614 403 l 603 340 l 392 340 q 197 68 358 194 l 744 68 l 732 0 l 122 0 z "},"€":{"ha":861,"x_min":119,"x_max":872,"o":"m 485 -17 q 211 331 214 -17 l 119 331 l 158 394 l 214 394 q 243 560 221 475 l 160 560 l 199 622 l 263 622 q 418 885 317 782 q 669 989 519 989 q 872 929 796 989 l 835 863 q 658 919 767 919 q 463 835 542 919 q 340 622 385 751 l 693 622 l 657 560 l 321 560 q 290 394 299 481 l 560 394 l 524 331 l 289 331 q 492 54 289 54 q 707 151 613 54 l 760 113 q 485 -17 644 -17 z "},"℅":{"ha":1344,"x_min":186,"x_max":1307,"o":"m 367 378 q 233 440 281 378 q 186 608 186 503 q 263 876 186 764 q 471 989 339 989 q 587 950 549 989 q 632 864 625 911 l 560 836 q 456 918 542 918 q 311 827 361 918 q 261 613 261 736 q 290 492 261 535 q 375 449 319 449 q 515 542 465 449 l 576 515 q 492 416 546 454 q 367 378 438 378 m 271 -17 l 1099 989 l 1179 989 l 351 -17 l 271 -17 m 1007 -17 q 863 46 915 -17 q 810 218 810 108 q 893 492 810 389 q 1108 594 976 594 q 1255 532 1203 594 q 1307 360 1307 469 q 1224 86 1307 189 q 1007 -17 1142 -17 m 1019 54 q 1176 136 1119 54 q 1233 356 1233 218 q 1198 481 1233 436 q 1099 525 1163 525 q 943 444 1001 525 q 885 225 885 363 q 920 99 885 144 q 1019 54 956 54 z "},"ℓ":{"ha":615,"x_min":167,"x_max":657,"o":"m 347 -17 q 264 13 297 -17 q 231 99 231 42 q 240 183 231 121 l 272 365 q 178 318 215 332 l 167 375 q 285 436 219 396 l 338 733 q 533 989 382 989 q 622 947 588 989 q 657 824 657 904 q 634 704 657 763 q 583 606 611 646 q 506 522 556 567 q 428 457 456 478 q 351 404 400 436 l 311 171 q 306 110 306 143 q 361 51 306 51 q 475 103 418 51 l 489 49 q 347 -17 421 -17 m 524 919 q 456 876 483 919 q 407 717 428 832 l 365 482 q 536 650 490 569 q 582 819 582 731 q 524 919 582 919 z "},"№":{"ha":1601,"x_min":136,"x_max":1583,"o":"m 1283 378 q 1139 440 1192 378 q 1086 613 1086 503 q 1169 886 1086 783 q 1386 989 1253 989 q 1531 926 1479 989 q 1583 754 1583 864 q 1501 481 1583 583 q 1283 378 1418 378 m 136 0 l 307 972 l 376 972 l 689 233 q 710 182 694 221 q 732 131 726 143 q 740 177 733 138 q 750 233 747 217 l 881 972 l 954 972 l 783 0 l 710 0 l 410 710 q 357 836 404 725 l 335 708 l 211 0 l 136 0 m 1296 449 q 1453 530 1396 449 q 1510 750 1510 611 q 1474 875 1510 831 q 1375 919 1439 919 q 1219 838 1278 919 q 1160 621 1160 757 q 1196 494 1160 540 q 1296 449 1232 449 m 1029 188 l 1040 251 l 1479 251 l 1468 188 l 1029 188 z "},"™":{"ha":1068,"x_min":154,"x_max":1072,"o":"m 318 386 l 318 913 l 154 913 l 154 972 l 543 972 l 543 913 l 382 913 l 382 386 l 318 386 m 1072 386 l 1008 386 l 1008 765 l 986 713 l 840 374 l 694 713 l 671 767 l 671 386 l 607 386 l 607 972 l 654 972 l 824 571 l 840 532 l 857 571 l 1026 972 l 1072 972 l 1072 386 z "},"Ω":{"ha":989,"x_min":97,"x_max":963,"o":"m 578 0 l 592 79 q 819 341 753 214 q 886 628 886 468 q 828 835 886 750 q 644 921 769 921 q 476 877 550 921 q 358 762 401 833 q 291 608 314 690 q 268 439 268 525 q 403 79 268 228 l 389 0 l 97 0 l 110 69 l 346 69 q 233 224 274 128 q 193 436 193 321 q 220 627 193 533 q 300 803 247 721 q 444 938 353 886 q 653 989 536 989 q 887 885 811 989 q 963 638 963 782 q 879 308 963 453 q 646 69 796 164 l 881 69 l 869 0 l 578 0 z "},"℮":{"ha":1101,"x_min":163,"x_max":1107,"o":"m 642 -17 q 301 122 440 -17 q 163 486 163 261 q 203 708 163 610 q 311 868 243 807 q 465 961 379 929 q 646 993 551 993 q 816 960 736 993 q 960 866 896 928 q 1063 706 1024 804 q 1107 486 1101 608 l 372 486 l 372 160 q 490 80 418 110 q 642 50 561 50 q 992 251 860 50 l 1049 217 q 877 42 972 101 q 642 -17 782 -17 m 904 821 q 792 897 861 867 q 644 926 724 926 q 372 829 476 926 l 372 551 l 904 553 l 904 821 z "},"⅓":{"ha":994,"x_min":19,"x_max":981,"o":"m 19 -17 l 847 989 l 924 989 l 96 -17 l 19 -17 m 175 393 l 256 850 l 186 850 l 194 896 q 260 917 236 897 q 300 979 283 938 l 346 979 l 243 393 l 175 393 m 618 144 q 740 43 649 43 q 842 79 803 43 q 882 174 882 115 q 859 242 882 215 q 793 269 836 269 l 749 269 l 760 329 l 789 329 q 876 367 843 329 q 910 454 910 406 q 888 513 910 489 q 825 536 865 536 q 686 447 744 536 l 631 471 q 719 561 664 526 q 835 596 774 596 q 941 560 901 596 q 981 464 981 525 q 951 369 981 413 q 871 307 921 326 q 953 185 953 282 q 890 39 953 94 q 735 -17 826 -17 q 617 20 663 -17 q 554 119 571 57 l 618 144 z "},"⅔":{"ha":1213,"x_min":117,"x_max":1199,"o":"m 199 851 q 275 951 225 913 q 396 989 325 989 q 513 949 469 989 q 557 842 557 908 q 515 712 557 761 q 365 603 472 663 q 207 458 244 538 l 489 458 l 478 393 l 117 393 q 147 485 126 444 q 203 560 167 526 q 270 614 240 593 q 356 668 300 635 q 458 746 428 710 q 489 838 489 782 q 465 902 489 875 q 393 929 442 929 q 253 828 297 929 l 199 851 m 238 -17 l 1065 989 l 1142 989 l 314 -17 l 238 -17 m 836 144 q 958 43 867 43 q 1060 79 1021 43 q 1100 174 1100 115 q 1077 242 1100 215 q 1011 269 1054 269 l 967 269 l 978 329 l 1007 329 q 1094 367 1061 329 q 1128 454 1128 406 q 1106 513 1128 489 q 1043 536 1083 536 q 904 447 963 536 l 849 471 q 937 561 882 526 q 1053 596 992 596 q 1159 560 1119 596 q 1199 464 1199 525 q 1169 369 1199 413 q 1089 307 1139 326 q 1171 185 1171 282 q 1108 39 1171 94 q 953 -17 1044 -17 q 835 20 881 -17 q 772 119 789 57 l 836 144 z "},"⅛":{"ha":983,"x_min":19,"x_max":951,"o":"m 19 -17 l 847 989 l 924 989 l 96 -17 l 19 -17 m 175 393 l 256 850 l 186 850 l 194 896 q 260 917 236 897 q 300 979 283 938 l 346 979 l 243 393 l 175 393 m 714 -17 q 597 26 640 -17 q 554 135 554 68 q 689 324 554 271 q 647 363 664 335 q 631 422 631 390 q 685 546 631 496 q 815 596 739 596 q 913 558 875 596 q 951 465 951 521 q 923 377 951 417 q 853 321 894 338 q 929 192 929 285 q 868 42 929 100 q 714 -17 807 -17 m 774 346 q 856 377 824 346 q 888 457 888 408 q 867 516 888 494 q 808 538 846 538 q 726 505 760 538 q 693 422 693 472 q 715 367 693 389 q 774 346 736 346 m 721 43 q 821 83 779 43 q 863 188 863 122 q 835 260 863 231 q 764 290 808 290 q 665 247 706 290 q 624 143 624 203 q 651 70 624 97 q 721 43 678 43 z "},"⅜":{"ha":1185,"x_min":129,"x_max":1151,"o":"m 308 376 q 190 413 236 376 q 129 513 144 450 l 192 538 q 315 436 225 436 q 417 472 378 436 q 457 567 457 508 q 433 635 457 607 q 367 663 410 663 l 322 663 l 333 722 l 363 722 q 450 760 417 722 q 483 847 483 799 q 462 906 483 883 q 399 929 440 929 q 260 840 318 929 l 206 864 q 293 954 239 919 q 408 989 347 989 q 515 954 475 989 q 554 857 554 919 q 525 763 554 806 q 446 700 496 719 q 526 578 526 675 q 463 432 526 488 q 308 376 400 376 m 218 -17 l 1046 989 l 1122 989 l 294 -17 l 218 -17 m 914 -17 q 797 26 840 -17 q 754 135 754 68 q 889 324 754 271 q 847 363 864 335 q 831 422 831 390 q 885 546 831 496 q 1015 596 939 596 q 1113 558 1075 596 q 1151 465 1151 521 q 1123 377 1151 417 q 1053 321 1094 338 q 1129 192 1129 285 q 1068 42 1129 100 q 914 -17 1007 -17 m 974 346 q 1056 377 1024 346 q 1088 457 1088 408 q 1067 516 1088 494 q 1008 538 1046 538 q 926 505 960 538 q 893 422 893 472 q 915 367 893 389 q 974 346 936 346 m 921 43 q 1021 83 979 43 q 1063 188 1063 122 q 1035 260 1063 231 q 964 290 1008 290 q 865 247 906 290 q 824 143 824 203 q 851 70 824 97 q 921 43 878 43 z "},"⅝":{"ha":1161,"x_min":114,"x_max":1128,"o":"m 196 -17 l 1024 989 l 1100 989 l 272 -17 l 196 -17 m 279 376 q 177 398 221 376 q 114 446 133 419 l 160 493 q 212 452 178 468 q 283 436 246 436 q 405 484 360 436 q 450 601 450 532 q 424 678 450 649 q 349 708 399 708 q 213 650 271 708 l 167 665 l 267 972 l 542 972 l 529 908 l 304 908 l 246 729 q 367 768 303 768 q 476 724 436 768 q 517 608 517 681 q 449 443 517 510 q 279 376 381 376 m 890 -17 q 774 26 817 -17 q 731 135 731 68 q 865 324 731 271 q 824 363 840 335 q 807 422 807 390 q 861 546 807 496 q 992 596 915 596 q 1090 558 1051 596 q 1128 465 1128 521 q 1099 377 1128 417 q 1029 321 1071 338 q 1106 192 1106 285 q 1044 42 1106 100 q 890 -17 983 -17 m 950 346 q 1032 377 1000 346 q 1064 457 1064 408 q 1043 516 1064 494 q 985 538 1022 538 q 903 505 936 538 q 869 422 869 472 q 891 367 869 389 q 950 346 913 346 m 897 43 q 997 83 956 43 q 1039 188 1039 122 q 1012 260 1039 231 q 940 290 985 290 q 841 247 882 290 q 800 143 800 203 q 827 70 800 97 q 897 43 854 43 z "},"⅞":{"ha":1035,"x_min":68,"x_max":1003,"o":"m 68 -17 l 896 989 l 972 989 l 144 -17 l 68 -17 m 196 393 q 463 910 250 679 l 181 910 l 192 972 l 543 972 l 531 901 q 267 393 325 703 l 196 393 m 765 -17 q 649 26 692 -17 q 606 135 606 68 q 740 324 606 271 q 699 363 715 335 q 682 422 682 390 q 736 546 682 496 q 867 596 790 596 q 965 558 926 596 q 1003 465 1003 521 q 974 377 1003 417 q 904 321 946 338 q 981 192 981 285 q 919 42 981 100 q 765 -17 858 -17 m 825 346 q 907 377 875 346 q 939 457 939 408 q 918 516 939 494 q 860 538 897 538 q 778 505 811 538 q 744 422 744 472 q 766 367 744 389 q 825 346 788 346 m 772 43 q 872 83 831 43 q 914 188 914 122 q 887 260 914 231 q 815 290 860 290 q 716 247 757 290 q 675 143 675 203 q 702 70 675 97 q 772 43 729 43 z "},"←":{"ha":1125,"x_min":69,"x_max":1042,"o":"m 363 293 q 338 304 356 293 l 88 474 q 69 500 69 488 q 88 526 69 515 l 338 697 q 363 708 356 708 q 379 693 379 708 q 371 664 379 686 l 325 531 l 1042 544 l 1042 456 l 325 469 l 371 338 q 379 308 379 313 q 363 293 379 293 z "},"↑":{"ha":558,"x_min":72,"x_max":486,"o":"m 236 0 l 249 715 l 110 667 q 90 663 100 663 q 72 682 72 663 q 81 701 72 689 l 254 957 q 279 972 265 972 q 304 957 293 972 l 478 701 q 486 682 486 689 q 468 663 486 663 q 449 667 458 663 l 310 715 l 324 0 l 236 0 z "},"→":{"ha":1125,"x_min":83,"x_max":1056,"o":"m 764 293 q 747 308 747 293 q 756 338 747 313 l 801 469 l 83 456 l 83 544 l 801 531 l 756 664 q 747 693 747 686 q 764 708 747 708 q 789 697 769 708 l 1038 526 q 1056 500 1056 517 q 1038 474 1056 486 l 789 304 q 764 293 769 293 z "},"↓":{"ha":563,"x_min":74,"x_max":489,"o":"m 282 0 q 260 13 268 0 l 79 279 q 74 293 74 285 q 93 311 74 311 q 103 310 100 311 l 250 258 l 239 974 l 325 974 l 313 258 l 460 310 q 469 311 463 311 q 489 293 489 311 q 483 279 489 285 l 303 13 q 282 0 294 0 z "},"↔":{"ha":1182,"x_min":69,"x_max":1113,"o":"m 819 293 q 803 308 803 293 q 811 338 803 313 l 856 465 l 326 465 l 371 338 q 379 308 379 313 q 363 293 379 293 q 338 304 356 293 l 88 474 q 69 500 69 488 q 88 526 69 515 l 338 697 q 363 708 356 708 q 379 693 379 708 q 371 664 379 686 l 326 535 l 856 535 l 811 664 q 803 693 803 686 q 819 708 803 708 q 844 697 826 708 l 1094 526 q 1113 500 1113 515 q 1094 474 1113 488 l 844 304 q 819 293 826 293 z "},"↕":{"ha":563,"x_min":74,"x_max":489,"o":"m 281 -236 q 254 -218 267 -236 l 85 32 q 74 57 74 50 q 89 74 74 74 q 118 65 93 74 l 246 21 l 246 808 l 118 764 q 89 756 93 756 q 74 772 74 756 q 85 797 74 778 l 254 1046 q 281 1064 267 1064 q 307 1046 297 1064 l 478 797 q 489 772 489 778 q 474 756 489 756 q 444 764 467 756 l 315 808 l 315 21 l 444 65 q 474 74 467 74 q 489 57 489 74 q 478 32 489 50 l 307 -218 q 281 -236 297 -236 z "},"↖":{"ha":861,"x_min":90,"x_max":815,"o":"m 754 111 l 257 628 l 196 501 q 169 471 182 471 q 149 503 154 471 l 93 792 q 90 813 90 806 q 115 838 90 838 q 140 833 124 838 l 426 779 q 457 758 457 772 q 426 733 457 746 l 299 671 l 815 174 l 754 111 z "},"↗":{"ha":861,"x_min":46,"x_max":771,"o":"m 107 111 l 46 174 l 563 671 l 435 733 q 404 758 404 746 q 435 779 404 772 l 721 833 q 746 838 738 838 q 771 813 771 838 q 768 792 771 806 l 713 503 q 692 471 707 471 q 665 501 679 471 l 604 628 l 107 111 z "},"↘":{"ha":861,"x_min":46,"x_max":771,"o":"m 746 111 q 721 115 738 111 l 435 169 q 404 190 404 176 q 435 215 404 203 l 563 278 l 46 775 l 107 838 l 604 321 l 665 447 q 692 478 679 478 q 713 446 707 478 l 768 157 q 771 136 771 143 q 746 111 771 111 z "},"↙":{"ha":861,"x_min":90,"x_max":815,"o":"m 115 111 q 90 136 90 111 q 93 157 90 143 l 149 446 q 169 478 154 478 q 196 447 182 478 l 257 321 l 754 838 l 815 775 l 299 278 l 426 215 q 457 190 457 203 q 426 169 457 176 l 140 115 q 115 111 124 111 z "},"↳":{"ha":944,"x_min":138,"x_max":875,"o":"m 857 324 q 875 297 875 314 q 857 271 875 283 l 608 101 q 583 90 589 90 q 567 106 567 90 q 575 135 567 110 l 619 263 l 138 263 l 138 972 l 214 972 l 214 332 l 619 332 l 575 461 q 567 490 567 483 q 583 506 567 506 q 608 494 589 506 l 857 324 z "},"↴":{"ha":944,"x_min":138,"x_max":875,"o":"m 860 456 q 875 439 875 456 q 864 414 875 433 l 694 165 q 668 147 682 147 q 642 165 651 147 l 471 414 q 460 439 460 433 q 475 456 460 456 q 504 447 482 456 l 631 404 l 631 903 l 138 903 l 138 972 l 706 972 l 706 404 l 831 447 q 860 456 856 456 z "},"↵":{"ha":944,"x_min":69,"x_max":808,"o":"m 732 972 l 808 972 l 808 263 l 326 263 l 371 135 q 379 106 379 110 q 363 90 379 90 q 338 101 356 90 l 88 271 q 69 297 69 285 q 88 324 69 313 l 338 494 q 363 506 356 506 q 379 490 379 506 q 371 461 379 483 l 326 332 l 732 332 l 732 972 z "},"↶":{"ha":1072,"x_min":69,"x_max":929,"o":"m 337 888 q 385 939 337 888 q 585 989 433 989 q 833 888 736 989 q 929 618 929 788 l 929 0 l 854 0 l 854 618 q 778 840 854 760 q 585 921 703 921 q 390 841 465 921 q 315 618 315 761 l 315 564 l 442 607 q 471 615 464 615 q 486 599 486 615 q 474 574 486 592 l 304 325 q 278 307 294 307 q 251 325 264 307 l 82 574 q 69 599 69 592 q 85 615 69 615 q 114 607 92 615 l 240 564 l 240 618 q 337 888 240 788 z "},"↷":{"ha":1072,"x_min":143,"x_max":1003,"o":"m 988 615 q 1003 599 1003 615 q 992 574 1003 593 l 821 325 q 794 307 811 307 q 768 325 781 307 l 599 574 q 588 599 588 593 q 603 615 588 615 q 632 607 607 615 l 757 564 l 757 618 q 682 841 757 761 q 488 921 607 921 q 294 840 369 921 q 218 618 218 760 l 218 0 l 143 0 l 143 618 q 240 888 143 788 q 488 989 336 989 q 735 888 639 989 q 832 618 832 788 l 832 564 l 958 607 q 988 615 981 615 z "},"↸":{"ha":861,"x_min":90,"x_max":815,"o":"m 90 903 l 90 972 l 815 972 l 815 903 l 90 903 m 754 28 l 257 544 l 196 418 q 169 388 182 388 q 149 419 154 388 l 93 708 q 90 729 90 722 q 115 754 90 754 q 140 750 124 754 l 426 696 q 457 675 457 689 q 426 650 457 663 l 299 588 l 815 90 l 754 28 z "},"↹":{"ha":1110,"x_min":138,"x_max":972,"o":"m 600 536 q 575 547 593 536 l 325 717 q 307 743 307 731 q 325 769 307 758 l 575 940 q 600 951 593 951 q 617 936 617 951 q 608 907 617 929 l 563 774 l 972 788 l 972 699 l 563 713 l 608 581 q 617 551 617 556 q 600 536 617 536 m 138 550 l 138 938 l 218 938 l 218 550 l 138 550 m 510 -258 q 493 -243 493 -258 q 501 -214 493 -236 l 547 -81 l 138 -94 l 138 -7 l 547 -19 l 501 114 q 493 143 493 136 q 510 158 493 158 q 535 147 517 158 l 785 -24 q 803 -50 803 -37 q 785 -76 803 -65 l 535 -246 q 510 -258 518 -258 m 892 -244 l 892 151 l 972 151 l 972 -244 l 892 -244 z "},"↺":{"ha":1175,"x_min":139,"x_max":1065,"o":"m 1065 878 q 1035 853 1065 867 l 914 794 q 1036 486 1036 661 q 904 169 1036 300 q 588 38 772 38 q 271 169 403 38 q 139 486 139 300 q 271 803 139 671 l 324 750 q 214 486 214 636 q 324 223 214 333 q 588 113 435 113 q 851 223 742 113 q 961 486 961 333 q 861 740 961 631 l 803 621 q 776 590 789 590 q 756 622 761 590 l 701 911 q 699 932 699 925 q 724 957 699 957 q 749 953 732 957 l 1033 899 q 1065 878 1065 892 z "},"⇚":{"ha":1125,"x_min":69,"x_max":1042,"o":"m 1042 581 l 342 581 l 322 525 l 1042 525 l 1042 476 l 322 476 l 342 421 l 1042 421 l 1042 372 l 358 372 l 371 338 q 379 308 379 313 q 363 293 379 293 q 338 304 356 293 l 88 474 q 69 500 69 488 q 88 526 69 515 l 338 697 q 363 708 356 708 q 379 693 379 708 q 371 664 379 686 l 358 629 l 1042 629 l 1042 581 z "},"⇛":{"ha":1125,"x_min":83,"x_max":1056,"o":"m 1038 526 q 1056 500 1056 517 q 1038 474 1056 486 l 789 304 q 764 293 769 293 q 747 308 747 293 q 756 338 747 313 l 768 372 l 83 372 l 83 421 l 785 421 l 804 476 l 83 476 l 83 525 l 804 525 l 785 581 l 83 581 l 83 629 l 768 629 l 756 664 q 747 693 747 686 q 764 708 747 708 q 789 697 769 708 l 1038 526 z "},"⇜":{"ha":1125,"x_min":69,"x_max":1042,"o":"m 903 535 l 1042 535 l 1042 465 l 860 465 l 832 553 l 765 349 l 700 349 l 635 553 l 568 349 l 503 349 l 465 465 l 326 465 l 371 338 q 379 308 379 313 q 363 293 379 293 q 338 304 356 293 l 88 474 q 69 500 69 488 q 88 526 69 515 l 338 697 q 363 708 356 708 q 379 693 379 708 q 371 664 379 686 l 326 535 l 508 535 l 535 449 l 601 654 l 667 654 l 732 449 l 799 654 l 864 654 l 903 535 z "},"⇝":{"ha":1125,"x_min":83,"x_max":1056,"o":"m 1038 526 q 1056 500 1056 517 q 1038 474 1056 486 l 789 304 q 764 293 769 293 q 747 308 747 293 q 756 338 747 313 l 800 465 l 661 465 l 624 349 l 558 349 l 493 553 l 426 349 l 361 349 l 294 553 l 267 465 l 83 465 l 83 535 l 224 535 l 263 654 l 328 654 l 393 449 l 460 654 l 525 654 l 590 449 l 618 535 l 800 535 l 756 664 q 747 693 747 686 q 764 708 747 708 q 789 697 769 708 l 1038 526 z "},"⇞":{"ha":558,"x_min":72,"x_max":486,"o":"m 449 667 l 317 713 l 317 475 l 472 475 l 472 406 l 317 406 l 317 256 l 472 256 l 472 186 l 317 186 l 317 0 l 242 0 l 242 186 l 86 186 l 86 256 l 242 256 l 242 406 l 86 406 l 86 475 l 242 475 l 242 713 l 110 667 q 90 663 100 663 q 72 682 72 663 q 81 701 72 689 l 254 957 q 279 972 265 972 q 304 957 293 972 l 478 701 q 486 682 486 689 q 468 663 486 663 q 449 667 458 663 z "},"⇟":{"ha":558,"x_min":72,"x_max":486,"o":"m 468 311 q 481 305 475 311 q 486 292 486 299 q 478 272 486 285 l 304 17 q 279 0 294 0 q 254 17 264 0 l 81 272 q 72 292 72 285 q 78 305 72 299 q 90 311 83 311 q 110 306 96 311 l 242 260 l 242 497 l 86 497 l 86 567 l 242 567 l 242 717 l 86 717 l 86 786 l 242 786 l 242 972 l 317 972 l 317 786 l 472 786 l 472 717 l 317 717 l 317 567 l 472 567 l 472 497 l 317 497 l 317 260 l 449 306 q 468 311 463 311 z "},"⇠":{"ha":1125,"x_min":69,"x_max":1042,"o":"m 371 664 l 326 535 l 478 535 l 478 465 l 326 465 l 371 338 q 379 308 379 313 q 363 293 379 293 q 338 304 356 293 l 88 474 q 69 500 69 488 q 88 526 69 515 l 338 697 q 363 708 356 708 q 379 693 379 708 q 371 664 379 686 m 596 465 l 596 535 l 760 535 l 760 465 l 596 465 m 878 535 l 1042 535 l 1042 465 l 878 465 l 878 535 z "},"⇡":{"ha":556,"x_min":72,"x_max":486,"o":"m 478 701 q 486 682 486 689 q 468 663 486 663 q 449 667 458 663 l 317 713 l 317 557 l 242 557 l 242 713 l 110 667 q 90 663 100 663 q 72 682 72 663 q 81 701 72 689 l 254 957 q 279 972 265 972 q 304 957 293 972 l 478 701 m 242 279 l 242 449 l 317 449 l 317 279 l 242 279 m 242 0 l 242 169 l 317 169 l 317 0 l 242 0 z "},"⇢":{"ha":1125,"x_min":76,"x_max":1049,"o":"m 1031 526 q 1049 500 1049 517 q 1031 474 1049 486 l 782 304 q 757 293 763 293 q 740 308 740 293 q 749 338 740 313 l 793 465 l 640 465 l 640 535 l 793 535 l 749 664 q 740 693 740 686 q 757 708 740 708 q 782 697 763 708 l 1031 526 m 76 465 l 76 535 l 240 535 l 240 465 l 76 465 m 358 465 l 358 535 l 522 535 l 522 465 l 358 465 z "},"⇣":{"ha":558,"x_min":72,"x_max":486,"o":"m 317 972 l 317 803 l 242 803 l 242 972 l 317 972 m 317 694 l 317 525 l 242 525 l 242 694 l 317 694 m 468 311 q 481 305 475 311 q 486 292 486 299 q 478 272 486 285 l 304 17 q 279 0 294 0 q 254 17 264 0 l 81 272 q 72 292 72 285 q 78 305 72 299 q 90 311 83 311 q 110 306 96 311 l 242 260 l 242 415 l 317 415 l 317 260 l 449 306 q 468 311 463 311 z "},"⇤":{"ha":1049,"x_min":138,"x_max":965,"o":"m 138 144 l 138 854 l 211 854 l 211 144 l 138 144 m 600 293 q 575 304 593 293 l 325 474 q 307 500 307 488 q 325 526 307 515 l 575 697 q 600 708 593 708 q 617 693 617 708 q 608 664 617 686 l 563 531 l 965 544 l 965 456 l 563 469 l 608 338 q 617 308 617 313 q 600 293 617 293 z "},"⇥":{"ha":1049,"x_min":83,"x_max":913,"o":"m 839 144 l 839 854 l 913 854 l 913 144 l 839 144 m 450 293 q 433 308 433 293 q 442 338 433 313 l 488 469 l 83 456 l 83 544 l 488 531 l 442 664 q 433 693 433 686 q 450 708 433 708 q 475 697 456 708 l 724 526 q 742 500 742 517 q 724 474 742 486 l 475 304 q 450 293 456 293 z "},"∂":{"ha":803,"x_min":100,"x_max":799,"o":"m 356 -17 q 169 53 238 -17 q 100 238 100 122 q 207 501 100 396 q 461 606 314 606 q 630 551 568 606 q 700 408 692 497 q 726 606 726 503 q 656 830 726 750 q 467 922 585 910 l 494 989 q 722 872 646 969 q 799 610 799 774 q 783 435 799 522 q 732 267 767 349 q 647 122 697 185 q 522 22 597 60 q 356 -17 446 -17 m 361 56 q 565 139 482 56 q 649 339 649 222 q 597 482 649 432 q 454 532 544 532 q 258 449 340 532 q 176 242 176 365 q 226 106 176 157 q 361 56 275 56 z "},"∆":{"ha":900,"x_min":81,"x_max":799,"o":"m 81 0 l 581 972 l 638 972 l 799 0 l 81 0 m 193 71 l 715 71 l 606 732 q 589 846 594 796 q 532 732 563 789 l 193 71 z "},"∏":{"ha":965,"x_min":106,"x_max":982,"o":"m 703 -194 l 896 899 l 372 899 l 179 -194 l 106 -194 l 310 972 l 982 972 l 778 -194 l 703 -194 z "},"∑":{"ha":856,"x_min":47,"x_max":915,"o":"m 47 -197 l 58 -135 l 539 404 l 261 913 l 271 969 l 915 969 l 903 897 l 358 897 l 629 403 l 158 -125 l 750 -125 l 738 -197 l 47 -197 z "},"−":{"ha":897,"x_min":197,"x_max":850,"o":"m 197 486 l 524 511 l 850 464 l 524 439 l 197 486 z "},"∕":{"ha":440,"x_min":-154,"x_max":750,"o":"m -154 -17 l 674 989 l 750 989 l -78 -17 l -154 -17 z "},"∙":{"ha":292,"x_min":160,"x_max":286,"o":"m 211 421 q 174 438 189 421 q 160 476 160 454 q 183 528 161 506 q 235 550 206 550 q 272 533 258 550 q 286 494 286 517 q 264 444 286 467 q 211 421 242 421 z "},"√":{"ha":758,"x_min":169,"x_max":857,"o":"m 857 972 l 397 0 l 317 0 l 169 446 l 242 446 l 364 78 l 781 972 l 857 972 z "},"∞":{"ha":1371,"x_min":147,"x_max":1381,"o":"m 400 189 q 217 257 288 189 q 147 443 147 325 q 250 708 147 608 q 497 807 353 807 q 772 553 689 807 q 931 741 847 675 q 1128 807 1015 807 q 1310 738 1240 807 q 1381 550 1381 669 q 1279 287 1381 385 q 1032 189 1178 189 q 854 255 919 189 q 754 439 789 321 q 400 189 593 189 m 415 256 q 736 496 582 256 q 492 740 656 740 q 301 661 381 740 q 222 454 222 582 q 276 309 222 363 q 415 256 329 256 m 1038 256 q 1228 333 1150 256 q 1306 538 1306 410 q 1252 685 1306 631 q 1113 740 1199 740 q 789 496 947 740 q 1038 256 869 256 z "},"∫":{"ha":549,"x_min":32,"x_max":643,"o":"m 132 -194 q 32 -168 74 -194 l 42 -110 q 129 -131 89 -131 q 196 -106 175 -131 q 225 -33 217 -82 l 378 835 q 543 989 406 989 q 643 961 600 989 l 633 903 q 546 925 579 925 q 480 900 501 925 q 449 826 458 875 l 296 -40 q 132 -194 268 -194 z "},"≈":{"ha":897,"x_min":201,"x_max":849,"o":"m 201 510 q 243 638 201 586 q 369 689 285 689 q 537 634 435 689 q 686 579 639 579 q 763 609 733 579 q 794 689 792 639 l 849 689 q 807 561 849 613 q 681 510 765 510 q 515 564 617 510 q 364 618 413 618 q 287 589 317 618 q 254 510 257 560 l 201 510 m 201 264 q 243 392 201 340 q 369 444 285 444 q 537 390 435 444 q 686 336 639 336 q 763 365 733 336 q 794 444 792 394 l 849 444 q 806 316 849 368 q 681 264 764 264 q 515 319 617 264 q 364 374 413 374 q 287 344 317 374 q 254 264 257 315 l 201 264 z "},"≠":{"ha":897,"x_min":200,"x_max":850,"o":"m 483 317 l 410 171 l 331 171 l 403 317 l 200 317 l 200 392 l 443 392 l 531 560 l 200 560 l 200 635 l 568 635 l 633 758 l 713 758 l 647 635 l 850 635 l 850 560 l 610 560 l 522 392 l 850 392 l 850 317 l 483 317 z "},"≤":{"ha":897,"x_min":199,"x_max":851,"o":"m 850 242 l 199 501 l 199 576 l 850 836 l 850 753 l 293 539 l 850 325 l 850 242 m 199 0 l 199 72 l 851 72 l 851 0 l 199 0 z "},"≥":{"ha":897,"x_min":199,"x_max":851,"o":"m 199 242 l 199 325 l 754 539 l 199 753 l 199 836 l 850 576 l 850 501 l 199 242 m 199 0 l 199 72 l 851 72 l 851 0 l 199 0 z "},"◊":{"ha":842,"x_min":188,"x_max":813,"o":"m 374 -17 l 188 486 l 550 989 l 626 989 l 813 486 l 450 -17 l 374 -17 m 579 935 l 257 483 l 419 39 l 743 489 l 579 935 z "},"◌":{"ha":915,"x_min":164,"x_max":906,"o":"m 505 794 q 499 800 505 794 q 493 825 493 806 q 505 857 493 844 q 535 869 517 869 q 565 857 553 869 q 576 825 576 844 q 565 794 576 806 q 535 783 553 783 q 505 794 517 783 m 367 800 q 378 832 367 819 q 410 844 390 844 q 440 832 428 844 q 451 800 451 819 q 440 770 451 782 q 410 758 428 758 q 379 770 392 758 q 367 800 367 782 m 628 770 q 623 776 628 770 q 617 800 617 782 q 629 831 617 818 q 658 843 642 843 q 690 831 678 843 q 703 800 703 819 q 690 770 703 782 q 658 758 678 758 q 628 770 640 758 m 261 731 q 273 760 261 749 q 304 772 285 772 q 334 761 322 772 q 346 731 346 750 q 335 699 346 711 q 304 688 324 688 q 273 699 285 688 q 261 731 261 711 m 735 699 q 729 705 735 699 q 724 731 724 711 q 735 761 724 750 q 765 772 747 772 q 797 760 785 772 q 808 731 808 749 q 797 699 808 711 q 765 688 785 688 q 735 699 746 688 m 806 594 q 800 600 806 594 q 794 624 794 606 q 806 655 794 642 q 836 668 818 668 q 867 655 854 668 q 879 624 879 642 q 867 594 879 606 q 836 582 854 582 q 806 594 818 582 m 203 593 q 197 599 203 593 q 190 624 190 606 q 202 654 190 642 q 233 667 214 667 q 265 654 253 667 q 276 624 276 642 q 263 593 276 606 q 233 581 250 581 q 203 593 215 581 m 164 499 q 176 530 164 518 q 208 542 189 542 q 239 530 228 542 q 250 499 250 518 q 239 469 250 481 q 208 457 228 457 q 176 469 189 457 q 164 499 164 481 m 819 499 q 831 530 819 518 q 861 542 842 542 q 892 530 879 542 q 906 499 906 518 q 892 469 906 481 q 861 457 879 457 q 831 469 842 457 q 819 499 819 481 m 203 343 q 197 349 203 343 q 190 374 190 356 q 202 404 190 392 q 233 417 214 417 q 263 404 251 417 q 275 374 275 392 q 263 343 275 356 q 233 331 251 331 q 203 343 215 331 m 793 375 q 806 405 793 393 q 836 417 818 417 q 867 405 854 417 q 879 375 879 393 q 867 344 879 356 q 836 332 856 332 q 805 344 817 332 q 793 375 793 356 m 273 238 q 267 244 273 238 q 261 268 261 250 q 274 299 261 286 q 304 311 286 311 q 334 299 322 311 q 346 268 346 288 q 334 238 346 250 q 304 226 322 226 q 273 238 285 226 m 724 268 q 735 299 724 288 q 765 311 747 311 q 796 299 783 311 q 808 268 808 286 q 797 238 808 250 q 765 226 785 226 q 735 238 747 226 q 724 268 724 250 m 367 199 q 379 228 367 217 q 411 240 392 240 q 441 228 429 240 q 453 199 453 217 q 440 167 453 181 q 411 154 428 154 q 379 167 392 154 q 367 199 367 179 m 630 167 q 624 173 630 167 q 618 197 618 179 q 630 228 618 215 q 660 240 642 240 q 690 228 678 240 q 703 197 703 217 q 690 166 703 178 q 660 154 678 154 q 630 167 642 154 m 505 141 q 499 147 505 141 q 493 172 493 153 q 505 203 493 192 q 535 215 517 215 q 565 203 553 215 q 576 172 576 192 q 565 141 576 153 q 535 129 553 129 q 505 141 517 129 z "},"":{"ha":0,"x_min":-185,"x_max":-19,"o":"m -19 1014 l -24 994 q -167 697 -60 797 l -185 713 q -92 1014 -126 807 l -19 1014 z "},"ﬁ":{"ha":750,"x_min":140,"x_max":792,"o":"m 329 643 l 215 0 l 142 0 l 254 643 l 140 643 l 151 710 l 267 710 l 289 838 q 451 989 317 989 q 547 961 504 989 l 536 897 q 451 921 489 921 q 389 897 408 921 q 361 824 369 872 l 340 710 l 504 710 l 492 643 l 329 643 m 731 861 q 699 874 711 861 q 688 906 688 886 q 705 949 688 931 q 747 968 722 968 q 780 955 768 968 q 792 922 792 942 q 774 879 792 897 q 731 861 756 861 m 543 0 l 668 710 l 742 710 l 617 0 l 543 0 z "},"ﬂ":{"ha":753,"x_min":140,"x_max":794,"o":"m 544 0 l 715 969 l 794 1003 l 619 0 l 544 0 m 329 643 l 215 0 l 142 0 l 254 643 l 140 643 l 151 710 l 267 710 l 289 838 q 451 989 317 989 q 547 961 504 989 l 536 897 q 451 921 489 921 q 389 897 408 921 q 361 824 369 872 l 340 710 l 504 710 l 492 643 l 329 643 z "}}}
